{
.appVersion = "3151";
.formatVersion = 3;
DisplayStrings = (
"ÁÁĂĂÂÂÄÄÀÀĀĀĄĄÅÅǺǺÃÃǼǼĆĆČČÇÇĈĈĊĊĎĎÉÉĔĔĚĚÊÊËËĖĖÈÈĒĒĘĘĞĞĜĜĠĠĤĤÍÍĬĬÎÎÏÏİİÌÌĪĪĮĮĨĨĴĴĹĹĽĽĿĿŃŃŇŇÑÑÓÓŎŎÔÔÖÖÒÒŐŐŌŌØØǾǾÕÕŔŔŘŘŚŚŠŠŞŞŜŜŤŤÚÚŬŬÛÛÜÜÙÙŰŰŪŪŲŲŮŮŨŨẂẂŴŴẄẄẀẀÝÝŶŶŸŸỲỲŹŹŽŽŻŻŢŢááăăââääààāāąąååǻǻããǽǽććččççĉĉċċďďééĕĕěěêêëëėėèèēēęęğğĝĝġġĥĥííĭĭîîïïììīīįįĩĩĵĵĺĺľľŀŀńńŉŉňňññóóŏŏôôööòòőőōōøøõõŕŕřřśśššşşŝŝťťúúŭŭûûüüùùűűūūţţųųůůũũẃẃŵŵẅẅẁẁýýŷŷÿÿỳỳźźžžżż½½¼¼¾¾%%‰‰"
);
customParameters = (
{
name = fsType;
value = (
);
},
{
name = "Use Typo Metrics";
value = 1;
}
);
date = "2023-02-15 15:54:01 +0000";
familyName = "Diplomata SC";
featurePrefixes = (
{
automatic = 1;
code = "languagesystem DFLT dflt;

languagesystem latn dflt;
languagesystem latn CAT;
";
name = Languagesystems;
}
);
features = (
{
automatic = 1;
code = "feature locl;
feature subs;
feature sinf;
feature sups;
feature frac;
feature ordn;
feature case;
feature salt;
";
tag = aalt;
},
{
automatic = 1;
code = "lookup ccmp_latn_1 {
	sub fi by f i;
	sub fl by f l;
} ccmp_latn_1;

script latn;
lookup ccmp_latn_1;
";
tag = ccmp;
},
{
automatic = 1;
code = "lookup locl_latn_0 {
	script latn;
	language CAT;
	sub  l' periodcentered' l by ldot;
	sub  L' periodcentered' L by Ldot;
} locl_latn_0;
";
tag = locl;
},
{
automatic = 1;
code = "sub zero by zeroinferior;
sub one by oneinferior;
sub two by twoinferior;
sub three by threeinferior;
sub four by fourinferior;
sub five by fiveinferior;
sub six by sixinferior;
sub seven by seveninferior;
sub eight by eightinferior;
sub nine by nineinferior;
";
tag = subs;
},
{
automatic = 1;
code = "sub zero by zeroinferior;
sub one by oneinferior;
sub two by twoinferior;
sub three by threeinferior;
sub four by fourinferior;
sub five by fiveinferior;
sub six by sixinferior;
sub seven by seveninferior;
sub eight by eightinferior;
sub nine by nineinferior;
";
tag = sinf;
},
{
automatic = 1;
code = "sub one by onesuperior;
sub two by twosuperior;
sub three by threesuperior;
";
tag = sups;
},
{
automatic = 1;

glyphs = (
{
glyphname = A;
layers = (
{
layerId = master01;
shapes = (
{
closed = 1;
nodes = (
(806,650,l),
(234,650,l),
(234,607,l),
(313,607,ls),
(378,607,o),
(406,589,o),
(436,553,cs),
(461,522,l),
(204,195,ls),
(204,194,o),
(97,43,o),
(-14,43,c),
(-14,0,l),
(422,0,l),
(422,43,l),
(329,43,ls),
(286,43,o),
(254,68,o),
(254,112,cs),
(254,135,o),
(263,163,o),
(283,194,c),
(726,194,l),
(763,148,ls),
(783,123,o),
(792,103,o),
(792,86,cs),
(792,58,o),
(766,43,o),
(733,43,cs),
(659,43,l),
(659,0,l),
(1410,0,l),
(1410,43,l),
(1296,43,l,{
name = hr00;
})
);
},
{
closed = 1;
nodes = (
(500,474,l),
(688,242,l),
(321,242,l)
);
},
{
closed = 1;
nodes = (
(473,607,l),
(550,607,l),
(1005,43,l),
(928,43,l)
);
}
);
width = 1397;
}
);
unicode = 65;
},
{
glyphname = AE;
layers = (
{
layerId = master01;
shapes = (
{
closed = 1;
nodes = (
(1524,605,o),
(1659,507,o),
(1724,420,c),
(1753,420,l),
(1753,650,l),
(546,650,l),
(546,607,l),
(666,607,ls),
(747,607,o),
(775,566,o),
(775,507,cs),
(775,151,ls),
(775,71,o),
(727,43,o),
(666,43,cs),
(546,43,l),
(546,0,l),
(1753,0,l),
(1753,212,l),
(1724,212,l),
(1602,48,o),
(1420,43,o),
(1275,43,cs),
(1250,43,ls),
(1170,43,o),
(1164,99,o),
(1164,187,cs),
(1164,223,ls),
(1164,265,o),
(1184,312,o),
(1252,312,cs),
(1339,312,o),
(1462,270,o),
(1495,194,c),
(1532,194,l),
(1532,499,l),
(1495,499,l),
(1462,428,o),
(1339,372,o),
(1252,372,cs),
(1174,372,o),
(1164,433,o),
(1164,474,cs),
(1164,508,ls),
(1164,565,o),
(1207,605,o),
(1277,605,cs,{
name = hr00;
})
);
},
{
closed = 1;
nodes = (
(842,43,l),
(842,607,l),
(908,607,l),
(908,43,l)
);
},
{
closed = 1;
nodes = (
(786,312,l),
(786,372,l),
(371,372,l),
(371,312,l)
);
},
{
closed = 1;
nodes = (
(234,607,l),
(313,607,ls),
(378,607,o),
(406,589,o),
(436,553,cs),
(461,522,l),
(204,195,ls),
(204,194,o),
(97,43,o),
(-14,43,c),
(-14,0,l),
(422,0,l),
(422,43,l),
(329,43,ls),
(286,43,o),
(254,68,o),
(254,112,cs),
(254,135,o),
(260,165,o),
(283,194,cs),
(638,650,l),
(234,650,l)
);
}
);
width = 1833;
}
);
unicode = 198;
},
{
glyphname = B;
layers = (
{
layerId = master01;
shapes = (
{
closed = 1;
nodes = (
(1362,634,o),
(1214,650,o),
(1035,650,cs),
(73,650,l),
(73,607,l),
(193,607,ls),
(253,607,o),
(301,556,o),
(301,497,cs),
(301,151,ls),
(301,72,o),
(253,43,o),
(193,43,cs),
(73,43,l),
(73,0,l),
(1114,0,ls),
(1230,0,o),
(1421,32,o),
(1421,175,cs,{
name = hr01;
}),
(1421,298,o),
(1273,337,o),
(1228,345,c),
(1228,350,l),
(1264,363,o),
(1362,407,o),
(1362,505,cs)
);
},
{
closed = 1;
nodes = (
(714,43,o),
(692,85,o),
(692,145,cs),
(692,324,l),
(856,324,ls),
(948,324,o),
(1018,283,o),
(1018,184,cs),
(1018,76,o),
(934,43,o),
(867,43,cs),
(776,43,ls)
);
},
{
closed = 1;
nodes = (
(692,567,o),
(736,606,o),
(810,606,cs),
(919,606,o),
(980,562,o),
(980,484,cs,{
name = hr03;
}),
(980,398,o),
(908,362,o),
(849,362,cs),
(692,362,l),
(692,508,ls)
);
},
{
closed = 1;
nodes = (
(369,43,l),
(369,607,l),
(434,607,l),
(434,43,l)
);
},
{
closed = 1;
nodes = (
(1047,400,o),
(1061,434,o),
(1061,478,cs),
(1061,523,o),
(1046,557,o),
(1021,588,c),
(1024,591,l),
(1086,573,o),
(1132,532,o),
(1132,478,cs),
(1132,424,o),
(1085,384,o),
(1024,364,c),
(1021,368,l)
);
},
{
closed = 1;
nodes = (
(1078,83,o),
(1102,127,o),
(1102,184,cs,{
name = hr04;
}),
(1102,243,o),
(1077,287,o),
(1040,319,c),
(1043,323,l),
(1118,299,o),
(1172,249,o),
(1172,184,cs),
(1172,121,o),
(1118,71,o),
(1043,47,c),
(1041,51,l)
);
}
);
width = 1481;
}
);
unicode = 66;
},
{
glyphname = C;
layers = (
{
layerId = master01;
shapes = (
{
closed = 1;
nodes = (
(1047,76,o),
(1084,103,o),
(1084,123,cs),
(1084,139,o),
(1069,143,o),
(1060,143,cs),
(1025,143,o),
(922,20,o),
(669,20,cs,{
name = hr01;
}),
(523,20,o),
(474,78,o),
(474,211,cs),
(474,211,o),
(474,430,o),
(474,485,cs),
(474,568,o),
(508,630,o),
(625,630,cs),
(782,630,o),
(937,509,o),
(989,411,c),
(1037,411,l),
(1037,650,l),
(989,650,l),
(989,600,l),
(887,637,o),
(764,674,o),
(630,674,cs,{
name = hr02;
}),
(351,674,o),
(22,580,o),
(22,328,cs),
(22,80,o),
(322,-22,o),
(666,-22,cs),
(817,-22,o),
(913,9,o),
(980,42,cs)
);
},
{
closed = 1;
nodes = (
(152,195,o),
(247,111,o),
(357,64,c),
(356,59,l),
(195,101,o),
(81,202,o),
(81,320,cs),
(81,449,o),
(195,560,o),
(356,605,c),
(357,600,l),
(247,549,o),
(152,457,o),
(152,320,c)
);
}
);
width = 1097;
}
);
unicode = 67;
},
{
glyphname = D;
layers = (
{
layerId = master01;
shapes = (
{
closed = 1;
nodes = (
(70,607,l),
(190,607,ls),
(250,607,o),
(299,557,o),
(299,498,cs),
(299,152,ls),
(299,72,o),
(250,43,o),
(190,43,cs),
(70,43,l),
(70,0,l),
(925,0,ls),
(1110,0,o),
(1446,58,o),
(1446,337,cs),
(1446,568,o),
(1139,650,o),
(833,650,cs),
(70,650,l,{
name = hr00;
})
);
},
{
closed = 1;
nodes = (
(366,43,l),
(366,607,l),
(431,607,l),
(431,43,l)
);
},
{
closed = 1;
nodes = (
(710,43,o),
(688,85,o),
(688,145,cs),
(688,508,ls),
(688,568,o),
(733,606,o),
(807,606,cs),
(979,606,o),
(1030,484,o),
(1030,324,cs),
(1030,184,o),
(987,43,o),
(863,43,cs),
(772,43,ls)
);
},
{
closed = 1;
nodes = (
(1200,189,o),
(1135,107,o),
(1034,50,c),
(1032,53,l),
(1088,129,o),
(1119,222,o),
(1119,324,cs),
(1119,426,o),
(1088,519,o),
(1032,595,c),
(1034,598,l),
(1135,541,o),
(1200,459,o),
(1200,324,cs)
);
}
);
width = 1469;
}
);
unicode = 68;
},
{
glyphname = Eth;
layers = (
{
layerId = master01;
shapes = (
{
closed = 1;
nodes = (
(510,365,l),
(510,285,l),
(876,285,l),
(876,365,l,{
name = hr00;
})
);
},
{
closed = 1;
nodes = (
(148,365,l),
(148,285,l),
(324,285,l),
(324,365,l)
);
},
{
ref = D;
}
);
width = 1469;
}
);
unicode = 208;
},
{
glyphname = Dcroat;
layers = (
{
layerId = master01;
shapes = (
{
closed = 1;
nodes = (
(510,365,l),
(510,285,l),
(876,285,l),
(876,365,l,{
name = hr00;
})
);
},
{
closed = 1;
nodes = (
(148,365,l),
(148,285,l),
(324,285,l),
(324,365,l)
);
},
{
ref = D;
}
);
width = 1469;
}
);
unicode = 272;
},
{
glyphname = E;
layers = (
{
layerId = master01;
shapes = (
{
closed = 1;
nodes = (
(1051,605,o),
(1186,507,o),
(1251,420,c),
(1280,420,l),
(1280,650,l),
(73,650,l),
(73,607,l),
(193,607,ls),
(254,607,o),
(302,556,o),
(302,497,cs),
(302,151,ls),
(302,71,o),
(254,43,o),
(193,43,cs),
(73,43,l),
(73,0,l),
(1280,0,l),
(1280,212,l),
(1251,212,l),
(1129,48,o),
(947,43,o),
(802,43,cs),
(777,43,ls),
(697,43,o),
(691,99,o),
(691,187,cs),
(691,223,ls),
(691,265,o),
(711,312,o),
(779,312,cs),
(866,312,o),
(989,270,o),
(1022,194,c),
(1059,194,l),
(1059,499,l),
(1022,499,l),
(989,428,o),
(866,372,o),
(779,372,cs),
(701,372,o),
(691,433,o),
(691,474,cs),
(691,508,ls),
(691,565,o),
(734,605,o),
(804,605,cs,{
name = hr00;
})
);
},
{
closed = 1;
nodes = (
(369,43,l),
(369,607,l),
(435,607,l),
(435,43,l)
);
}
);
width = 1360;
}
);
unicode = 69;
},
{
glyphname = F;
layers = (
{
layerId = master01;
shapes = (
{
closed = 1;
nodes = (
(810,43,ls),
(725,43,o),
(692,54,o),
(692,147,cs),
(692,223,ls),
(692,266,o),
(711,313,o),
(779,313,cs),
(865,313,o),
(928,290,o),
(961,213,c),
(998,213,l),
(998,463,l),
(961,463,l),
(928,414,o),
(865,372,o),
(779,372,cs),
(701,372,o),
(692,434,o),
(692,474,cs),
(692,508,ls),
(692,565,o),
(733,606,o),
(804,606,cs),
(1050,606,o),
(1118,528,o),
(1180,463,c),
(1208,463,l),
(1208,650,l),
(73,650,l),
(73,607,l),
(193,607,ls),
(253,607,o),
(301,557,o),
(301,497,cs),
(301,152,ls),
(301,72,o),
(253,43,o),
(193,43,cs),
(73,43,l),
(73,0,l),
(910,0,l),
(910,43,l,{
name = hr00;
})
);
},
{
closed = 1;
nodes = (
(369,43,l),
(369,607,l),
(434,607,l),
(434,43,l)
);
}
);
width = 1235;
}
);
unicode = 70;
},
{
glyphname = G;
layers = (
{
layerId = master01;
shapes = (
{
closed = 1;
nodes = (
(603,348,l),
(718,348,ls),
(774,348,o),
(832,305,o),
(832,247,cs),
(832,175,ls),
(832,44,o),
(731,21,o),
(669,21,cs),
(508,21,o),
(474,112,o),
(474,203,cs),
(474,482,ls),
(474,588,o),
(567,629,o),
(684,629,cs),
(859,629,o),
(1020,529,o),
(1079,439,c),
(1127,439,l),
(1127,650,l,{
name = hr01;
}),
(1079,650,l),
(1079,607,l),
(935,650,o),
(770,674,o),
(630,674,cs,{
name = hr02;
}),
(307,674,o),
(22,598,o),
(22,328,cs),
(22,74,o),
(305,-23,o),
(666,-23,cs),
(912,-23,o),
(1020,63,o),
(1094,63,cs),
(1141,63,o),
(1165,36,o),
(1165,0,c,{
name = hr03;
}),
(1213,0,l),
(1213,348,l),
(1403,348,l),
(1403,391,l),
(603,391,l)
);
},
{
closed = 1;
nodes = (
(175,108,o),
(85,213,o),
(85,335,cs),
(85,457,o),
(175,560,o),
(299,601,c),
(301,596,l),
(218,548,o),
(159,449,o),
(159,335,cs),
(159,220,o),
(218,120,o),
(301,71,c),
(300,67,l)
);
},
{
closed = 1;
nodes = (
(964,136,o),
(937,71,o),
(914,71,cs),
(904,71,o),
(899,85,o),
(899,149,cs),
(899,346,l),
(964,346,l),
(964,215,ls)
);
}
);
width = 1372;
}
);
unicode = 71;
},
{
glyphname = H;
layers = (
{
layerId = master01;
shapes = (
{
closed = 1;
nodes = (
(1402,71,o),
(1452,43,o),
(1511,43,cs),
(1632,43,l),
(1632,0,l),
(877,0,l),
(877,43,l),
(1009,43,o),
(1012,83,o),
(1012,139,cs),
(1012,274,ls),
(1012,295,o),
(1003,318,o),
(970,318,cs),
(734,318,ls),
(702,318,o),
(692,295,o),
(692,274,cs),
(692,136,ls),
(692,81,o),
(695,43,o),
(827,43,c),
(827,0,l),
(73,0,l),
(73,43,l),
(193,43,ls),
(253,43,o),
(301,71,o),
(301,151,cs),
(301,497,ls),
(301,556,o),
(253,607,o),
(193,607,cs),
(73,607,l),
(73,650,l),
(827,650,l),
(827,607,l),
(717,607,o),
(692,565,o),
(692,508,cs),
(692,371,l),
(1012,371,l),
(1012,508,ls),
(1012,565,o),
(987,607,o),
(877,607,c),
(877,650,l),
(1632,650,l),
(1632,607,l),
(1511,607,ls),
(1452,607,o),
(1402,556,o),
(1402,497,cs),
(1402,151,ls,{
name = hr00;
})
);
},
{
closed = 1;
nodes = (
(369,607,l),
(369,43,l),
(434,43,l),
(434,607,l)
);
},
{
closed = 1;
nodes = (
(1081,607,l),
(1081,43,l),
(1146,43,l),
(1146,607,l)
);
}
);
width = 1711;
}
);
unicode = 72;
},
{
glyphname = Hbar;
layers = (
{
layerId = master01;
shapes = (
{
closed = 1;
nodes = (
(181,510,l),
(181,438,l),
(339,438,l),
(339,510,l,{
name = hr00;
})
);
},
{
closed = 1;
nodes = (
(662,510,l),
(662,438,l),
(1042,438,l),
(1042,510,l)
);
},
{
closed = 1;
nodes = (
(1364,510,l),
(1364,438,l),
(1522,438,l),
(1522,510,l)
);
},
{
ref = H;
}
);
width = 1711;
}
);
unicode = 294;
},
{
glyphname = I;
layers = (
{
layerId = master01;
shapes = (
{
closed = 1;
nodes = (
(694,556,o),
(743,607,o),
(803,607,cs),
(924,607,l),
(924,650,l),
(73,650,l),
(73,607,l),
(195,607,ls),
(255,607,o),
(304,556,o),
(304,497,cs),
(304,151,ls),
(304,71,o),
(255,43,o),
(195,43,cs),
(73,43,l),
(73,0,l),
(924,0,l),
(924,43,l),
(803,43,ls),
(743,43,o),
(694,71,o),
(694,151,cs),
(694,497,ls,{
name = hr00;
})
);
},
{
closed = 1;
nodes = (
(371,43,l),
(371,607,l),
(436,607,l),
(436,43,l)
);
}
);
width = 1003;
}
);
unicode = 73;
},
{
glyphname = J;
layers = (
{
layerId = master01;
shapes = (
{
closed = 1;
nodes = (
(608,109,o),
(571,75,o),
(544,64,c),
(544,607,l),
(608,607,l),
(608,208,l)
);
},
{
closed = 1;
nodes = (
(247,607,l),
(368,607,ls),
(437,607,o),
(477,556,o),
(477,497,cs),
(477,129,ls),
(477,49,o),
(427,21,o),
(368,21,cs),
(141,21,o),
(35,262,o),
(35,262,c),
(-14,262,l),
(-14,0,l),
(35,0,l),
(35,51,l),
(81,33,o),
(234,-22,o),
(434,-22,cs,{
name = hr01;
}),
(773,-22,o),
(867,60,o),
(867,196,cs),
(867,497,ls),
(867,556,o),
(906,607,o),
(976,607,cs),
(1075,607,l),
(1075,650,l),
(247,650,l)
);
}
);
width = 1088;
}
);
unicode = 74;
},
{
glyphname = K;
layers = (
{
layerId = master01;
shapes = (
{
closed = 1;
nodes = (
(369,43,l),
(369,607,l),
(434,607,l),
(434,43,l,{
name = hr00;
})
);
},
{
closed = 1;
nodes = (
(1126,43,l),
(875,324,l),
(962,324,l),
(1213,43,l)
);
},
{
closed = 1;
nodes = (
(873,43,l),
(801,43,ls),
(741,43,o),
(692,72,o),
(692,151,cs),
(692,252,ls),
(692,273,o),
(701,296,o),
(734,296,cs),
(813,296,l),
(1077,0,l),
(1633,0,l),
(1633,43,l),
(1499,43,l),
(1201,397,ls),
(1190,410,o),
(1186,422,o),
(1186,433,cs),
(1186,453,o),
(1201,469,o),
(1216,478,cs),
(1240,492,o),
(1443,607,o),
(1526,607,cs),
(1609,607,o),
(1633,607,o),
(1633,607,c),
(1633,650,l),
(1041,650,l),
(1041,607,l),
(1143,607,o),
(1181,599,o),
(1181,563,cs),
(1181,527,o),
(1145,498,o),
(1061,460,cs),
(864,371,ls),
(829,355,o),
(806,345,o),
(770,345,cs),
(750,345,ls),
(700,345,o),
(692,376,o),
(692,403,cs),
(692,509,ls),
(692,566,o),
(734,607,o),
(804,607,cs),
(915,607,l),
(915,650,l),
(73,650,l),
(73,607,l),
(193,607,ls),
(253,607,o),
(301,557,o),
(301,498,cs),
(301,151,ls),
(301,72,o),
(253,43,o),
(193,43,cs),
(73,43,l),
(73,0,l),
(873,0,l)
);
}
);
width = 1655;
}
);
unicode = 75;
},
{
glyphname = L;
layers = (
{
layerId = master01;
shapes = (
{
closed = 1;
nodes = (
(692,556,o),
(741,607,o),
(801,607,cs),
(968,607,l),
(968,650,l),
(73,650,l),
(73,607,l),
(193,607,ls),
(253,607,o),
(301,556,o),
(301,497,cs),
(301,151,ls),
(301,71,o),
(253,43,o),
(193,43,cs),
(73,43,l),
(73,0,l),
(1236,0,l),
(1236,288,l),
(1202,288,l),
(1059,85,o),
(900,43,o),
(801,43,cs),
(715,43,o),
(692,92,o),
(692,151,cs),
(692,497,ls,{
name = hr00;
})
);
},
{
closed = 1;
nodes = (
(369,43,l),
(369,607,l),
(434,607,l),
(434,43,l)
);
}
);
width = 1249;
}
);
unicode = 76;
},
{
glyphname = Lslash;
layers = (
{
layerId = master01;
shapes = (
{
closed = 1;
nodes = (
(510,365,l),
(510,285,l),
(876,403,l),
(876,483,l,{
name = hr00;
})
);
},
{
closed = 1;
nodes = (
(151,249,l),
(151,169,l),
(349,233,l),
(349,313,l)
);
},
{
ref = L;
}
);
width = 1249;
}
);
unicode = 321;
},
{
glyphname = M;
layers = (
{
layerId = master01;
shapes = (
{
closed = 1;
nodes = (
(1291,607,l),
(1291,43,l),
(1226,43,l),
(1226,607,l,{
name = hr00;
})
);
},
{
closed = 1;
nodes = (
(1825,650,l),
(1144,650,l),
(976,389,l),
(669,650,l),
(22,650,l),
(22,607,l),
(187,607,o),
(350,519,o),
(350,382,cs),
(350,277,ls),
(350,105,o),
(168,43,o),
(35,43,c),
(35,0,l),
(730,0,l),
(730,43,l),
(597,43,o),
(415,105,o),
(415,277,cs),
(415,411,l),
(801,85,l),
(853,85,l),
(1159,559,l),
(1159,151,ls),
(1159,71,o),
(1110,43,o),
(1050,43,cs),
(930,43,l),
(930,0,l),
(1825,0,l),
(1825,43,l),
(1658,43,ls),
(1598,43,o),
(1549,71,o),
(1549,151,cs),
(1549,526,ls),
(1549,585,o),
(1598,607,o),
(1658,607,cs),
(1825,607,l)
);
},
{
closed = 1;
nodes = (
(811,169,l),
(296,605,l),
(396,605,l),
(836,232,l),
(836,169,l)
);
}
);
width = 1858;
}
);
unicode = 77;
},
{
glyphname = N;
layers = (
{
layerId = master01;
shapes = (
{
closed = 1;
nodes = (
(1009,607,l),
(1108,607,o),
(1237,583,o),
(1237,410,cs),
(1237,387,o),
(1222,383,o),
(1214,383,cs),
(1196,383,o),
(1120,431,o),
(1120,431,cs),
(772,650,l),
(23,650,l),
(23,607,l),
(187,607,o),
(350,519,o),
(350,382,cs),
(350,277,ls),
(350,104,o),
(168,43,o),
(35,43,c),
(35,0,l),
(730,0,l),
(730,43,l),
(597,43,o),
(415,104,o),
(415,277,cs),
(415,323,ls),
(415,379,o),
(440,393,o),
(465,393,cs),
(490,393,o),
(515,379,o),
(515,379,cs),
(1211,-42,l),
(1301,-42,l),
(1301,410,ls),
(1301,583,o),
(1430,607,o),
(1529,607,c),
(1529,650,l),
(1009,650,l,{
name = hr00;
})
);
},
{
closed = 1;
nodes = (
(356,552,l),
(356,607,l),
(383,607,l),
(1211,107,l),
(1211,35,l)
);
}
);
width = 1544;
}
);
unicode = 78;
},
{
glyphname = Eng;
layers = (
{
layerId = master01;
shapes = (
{
closed = 1;
nodes = (
(356,552,l),
(356,607,l),
(383,607,l),
(1096,176,l),
(1096,-54,ls),
(1096,-153,o),
(1059,-187,o),
(1032,-198,c),
(1032,143,l)
);
},
{
closed = 1;
nodes = (
(964,-135,ls),
(964,-195,o),
(944,-216,o),
(904,-216,cs),
(825,-216,o),
(782,-152,o),
(772,-76,c),
(733,-76,l,{
name = hr01;
}),
(733,-260,l),
(780,-260,l),
(780,-213,l),
(831,-259,o),
(924,-283,o),
(1019,-283,cs),
(1170,-283,o),
(1305,-222,o),
(1302,-86,cs),
(1301,410,ls),
(1301,583,o),
(1430,607,o),
(1529,607,c),
(1529,650,l),
(1009,650,l),
(1009,607,l),
(1108,607,o),
(1237,583,o),
(1237,410,cs),
(1237,387,o),
(1222,383,o),
(1214,383,cs),
(1196,383,o),
(1120,431,o),
(1120,431,cs),
(772,650,l),
(23,650,l),
(23,607,l),
(187,607,o),
(350,519,o),
(350,382,cs),
(350,277,ls),
(350,104,o),
(168,43,o),
(35,43,c),
(35,0,l),
(730,0,l),
(730,43,l),
(597,43,o),
(415,104,o),
(415,277,cs),
(415,323,ls),
(415,379,o),
(440,393,o),
(465,393,cs,{
name = hr02;
}),
(490,393,o),
(515,379,o),
(515,379,cs),
(964,108,l)
);
}
);
width = 1544;
}
);
unicode = 330;
},
{
glyphname = O;
layers = (
{
layerId = master01;
shapes = (
{
closed = 1;
nodes = (
(1322,516,o),
(1070,670,o),
(672,670,cs),
(274,670,o),
(22,516,o),
(22,325,cs),
(22,133,o),
(313,-22,o),
(672,-22,cs),
(1031,-22,o),
(1322,133,o),
(1322,325,cs,{
name = hr00;
})
);
},
{
closed = 1;
nodes = (
(836,629,o),
(879,524,o),
(879,324,cs),
(879,123,o),
(803,19,o),
(672,19,cs),
(542,19,o),
(465,123,o),
(465,324,cs),
(465,524,o),
(509,629,o),
(672,629,cs)
);
},
{
closed = 1;
nodes = (
(200,96,o),
(76,202,o),
(76,325,cs),
(76,449,o),
(202,556,o),
(388,611,c),
(389,607,l),
(246,551,o),
(149,445,o),
(149,325,cs),
(149,205,o),
(244,100,o),
(385,44,c),
(384,40,l)
);
},
{
closed = 1;
nodes = (
(1035,219,o),
(984,116,o),
(909,47,c),
(903,49,l),
(937,133,o),
(960,231,o),
(960,325,cs),
(960,419,o),
(937,517,o),
(903,601,c),
(909,603,l),
(984,534,o),
(1035,431,o),
(1035,325,c)
);
}
);
width = 1345;
}
);
unicode = 79;
},
{
glyphname = OE;
layers = (
{
layerId = master01;
shapes = (
{
closed = 1;
nodes = (
(542,43,o),
(465,139,o),
(465,325,cs),
(465,510,o),
(509,607,o),
(672,607,cs),
(771,607,ls),
(832,607,o),
(880,556,o),
(880,497,cs),
(880,151,ls),
(880,71,o),
(832,43,o),
(771,43,cs),
(672,43,ls,{
name = hr00;
})
);
},
{
closed = 1;
nodes = (
(1858,212,l),
(1829,212,l),
(1707,48,o),
(1525,43,o),
(1380,43,cs),
(1355,43,ls),
(1275,43,o),
(1269,99,o),
(1269,187,cs),
(1269,223,ls),
(1269,265,o),
(1289,312,o),
(1357,312,cs),
(1444,312,o),
(1567,270,o),
(1600,194,c),
(1637,194,l),
(1637,499,l),
(1600,499,l),
(1567,428,o),
(1444,372,o),
(1357,372,cs),
(1279,372,o),
(1269,433,o),
(1269,474,cs),
(1269,508,ls),
(1269,565,o),
(1312,605,o),
(1382,605,cs),
(1629,605,o),
(1764,507,o),
(1829,420,c),
(1858,420,l),
(1858,650,l),
(672,650,ls),
(274,650,o),
(22,505,o),
(22,326,cs),
(22,146,o),
(313,0,o),
(672,0,cs),
(1858,0,l)
);
},
{
closed = 1;
nodes = (
(200,116,o),
(76,202,o),
(76,325,cs),
(76,449,o),
(202,536,o),
(388,591,c),
(389,587,l),
(246,531,o),
(149,445,o),
(149,325,cs),
(149,205,o),
(244,120,o),
(385,64,c),
(384,60,l)
);
},
{
closed = 1;
nodes = (
(947,43,l),
(947,607,l),
(1013,607,l),
(1013,43,l)
);
}
);
width = 1938;
}
);
unicode = 338;
},
{
glyphname = P;
layers = (
{
layerId = master01;
shapes = (
{
closed = 1;
nodes = (
(73,607,l),
(194,607,ls),
(255,607,o),
(303,556,o),
(303,497,cs),
(303,151,ls),
(303,72,o),
(255,43,o),
(194,43,cs),
(73,43,l),
(73,0,l),
(924,0,l),
(924,43,l),
(802,43,ls),
(742,43,o),
(694,72,o),
(694,151,cs),
(694,216,ls),
(694,265,o),
(712,284,o),
(749,284,cs),
(1122,284,ls),
(1300,284,o),
(1434,332,o),
(1434,469,cs),
(1434,630,o),
(1229,650,o),
(1082,650,cs),
(73,650,l,{
name = hr00;
})
);
},
{
closed = 1;
nodes = (
(370,43,l),
(370,607,l),
(436,607,l),
(436,43,l)
);
},
{
closed = 1;
nodes = (
(717,329,o),
(695,352,o),
(695,379,cs),
(695,556,ls),
(695,584,o),
(717,607,o),
(745,607,cs),
(846,607,ls),
(901,607,o),
(1010,571,o),
(1010,468,cs),
(1010,365,o),
(901,329,o),
(846,329,cs),
(745,329,ls)
);
},
{
closed = 1;
nodes = (
(1157,411,o),
(1113,351,o),
(1061,333,c),
(1056,336,l),
(1080,373,o),
(1088,422,o),
(1088,468,cs),
(1088,514,o),
(1080,563,o),
(1056,600,c),
(1061,603,l),
(1113,585,o),
(1157,525,o),
(1157,468,c)
);
}
);
width = 1447;
}
);
unicode = 80;
},
{
glyphname = Thorn;
layers = (
{
layerId = master01;
shapes = (
{
closed = 1;
nodes = (
(716,187,o),
(694,210,o),
(694,237,cs),
(694,413,ls),
(694,441,o),
(716,464,o),
(744,464,cs),
(845,464,ls),
(900,464,o),
(1009,429,o),
(1009,326,cs),
(1009,223,o),
(900,187,o),
(845,187,cs),
(744,187,ls,{
name = hr00;
})
);
},
{
closed = 1;
nodes = (
(1156,269,o),
(1112,209,o),
(1060,191,c),
(1055,194,l),
(1079,231,o),
(1087,280,o),
(1087,326,cs),
(1087,372,o),
(1079,421,o),
(1055,458,c),
(1060,461,l),
(1112,443,o),
(1156,383,o),
(1156,326,c)
);
},
{
closed = 1;
nodes = (
(924,607,l),
(924,650,l),
(73,650,l),
(73,607,l),
(195,607,ls),
(255,607,o),
(304,556,o),
(304,497,cs),
(304,151,ls),
(304,71,o),
(255,43,o),
(195,43,cs),
(73,43,l),
(73,0,l),
(924,0,l),
(924,43,l),
(693,43,l),
(693,74,ls),
(693,123,o),
(711,142,o),
(748,142,cs),
(1121,142,ls),
(1299,142,o),
(1433,190,o),
(1433,327,cs),
(1433,488,o),
(1228,509,o),
(1081,509,cs),
(748,509,ls),
(711,509,o),
(693,528,o),
(693,577,cs),
(693,607,l)
);
},
{
closed = 1;
nodes = (
(371,43,l),
(371,607,l),
(436,607,l),
(436,43,l)
);
}
);
width = 1447;
}
);
unicode = 222;
},
{
glyphname = Q;
layers = (
{
layerId = master01;
shapes = (
{
closed = 1;
nodes = (
(1322,517,o),
(1070,671,o),
(672,671,cs),
(274,671,o),
(22,517,o),
(22,325,cs),
(22,139,o),
(295,-11,o),
(638,-21,c),
(638,-25,l),
(552,-56,o),
(457,-101,o),
(427,-164,c),
(427,-207,l),
(916,-207,l),
(916,-164,l),
(759,-164,ls),
(734,-164,o),
(721,-139,o),
(721,-106,cs),
(721,-78,o),
(730,-46,o),
(751,-19,c),
(1072,2,o),
(1322,148,o),
(1322,325,cs,{
name = hr00;
})
);
},
{
closed = 1;
nodes = (
(465,525,o),
(509,629,o),
(672,629,cs),
(836,629,o),
(879,525,o),
(879,325,cs),
(879,124,o),
(803,20,o),
(672,20,cs),
(542,20,o),
(465,124,o),
(465,325,cs)
);
},
{
closed = 1;
nodes = (
(637,-59,o),
(558,-128,o),
(558,-164,c),
(497,-164,l),
(497,-126,o),
(607,-57,o),
(655,-39,c),
(657,-42,l)
);
},
{
closed = 1;
nodes = (
(200,96,o),
(76,202,o),
(76,325,cs),
(76,449,o),
(202,556,o),
(388,611,c),
(389,607,l),
(246,551,o),
(149,445,o),
(149,325,cs),
(149,205,o),
(244,100,o),
(385,44,c),
(384,40,l)
);
},
{
closed = 1;
nodes = (
(1035,219,o),
(984,116,o),
(909,47,c),
(903,49,l),
(937,133,o),
(960,231,o),
(960,325,cs),
(960,419,o),
(937,517,o),
(903,601,c),
(909,603,l),
(984,534,o),
(1035,431,o),
(1035,325,cs)
);
}
);
width = 1345;
}
);
unicode = 81;
},
{
glyphname = R;
layers = (
{
layerId = master01;
shapes = (
{
closed = 1;
nodes = (
(1319,215,l),
(1222,230,o),
(1148,267,o),
(1120,291,c),
(1120,296,l),
(1291,300,o),
(1499,321,o),
(1499,469,cs),
(1499,631,o),
(1295,650,o),
(1147,650,cs),
(73,650,l),
(73,607,l),
(194,607,ls),
(255,607,o),
(303,557,o),
(303,497,cs),
(303,152,ls),
(303,72,o),
(255,43,o),
(194,43,cs),
(73,43,l),
(73,0,l),
(877,0,l),
(877,43,l),
(802,43,ls),
(742,43,o),
(694,72,o),
(694,152,cs),
(694,227,ls),
(694,275,o),
(695,298,o),
(723,298,cs),
(746,298,o),
(778,256,o),
(778,256,cs),
(978,0,l),
(1571,0,l),
(1571,43,l),
(1453,43,l,{
name = hr00;
})
);
},
{
closed = 1;
nodes = (
(370,43,l),
(370,607,l),
(436,607,l),
(436,43,l)
);
},
{
closed = 1;
nodes = (
(1113,375,o),
(1119,421,o),
(1119,468,cs),
(1119,518,o),
(1114,561,o),
(1089,598,c),
(1092,601,l),
(1148,585,o),
(1188,532,o),
(1188,468,cs),
(1188,405,o),
(1148,351,o),
(1093,336,c),
(1090,339,l)
);
},
{
closed = 1;
nodes = (
(695,584,o),
(717,607,o),
(745,607,cs),
(745,607,o),
(807,607,o),
(862,607,cs),
(917,607,o),
(1026,571,o),
(1026,468,cs),
(1026,380,o),
(940,349,o),
(856,349,cs),
(774,349,o),
(695,378,o),
(695,413,cs),
(695,556,ls)
);
},
{
closed = 1;
nodes = (
(826,298,l),
(909,298,l),
(1107,43,l),
(1024,43,l)
);
}
);
width = 1585;
}
);
unicode = 82;
},
{
glyphname = S;
layers = (
{
layerId = master01;
shapes = (
{
closed = 1;
nodes = (
(96,186,o),
(858,185,o),
(858,70,cs),
(858,27,o),
(768,20,o),
(691,20,cs),
(433,20,o),
(183,185,o),
(141,281,c),
(94,281,l),
(94,0,l,{
name = hr01;
}),
(141,0,l),
(169,58,l),
(332,8,o),
(457,-21,o),
(644,-21,cs,{
name = hr02;
}),
(981,-21,o),
(1166,44,o),
(1166,206,cs),
(1166,526,o),
(431,436,o),
(431,575,cs),
(431,617,o),
(487,629,o),
(558,629,cs),
(733,629,o),
(1035,508,o),
(1083,439,c),
(1130,439,l),
(1130,650,l,{
name = hr03;
}),
(1083,650,l),
(1065,607,l),
(936,636,o),
(706,670,o),
(567,670,cs,{
name = hr04;
}),
(377,670,o),
(96,666,o),
(96,447,cs)
);
},
{
closed = 1;
nodes = (
(909,167,o),
(800,168,o),
(504,244,cs),
(266,305,o),
(157,367,o),
(157,460,cs,{
name = hr05;
}),
(157,482,o),
(162,512,o),
(170,530,c),
(177,529,l),
(202,395,o),
(390,335,o),
(577,291,cs),
(784,241,o),
(977,230,o),
(977,92,cs),
(977,69,l),
(973,68,l)
);
}
);
width = 1261;
}
);
unicode = 83;
},
{
glyphname = T;
layers = (
{
layerId = master01;
shapes = (
{
closed = 1;
nodes = (
(846,606,o),
(1017,365,o),
(1017,365,c),
(1055,365,l),
(1055,650,l),
(66,650,l),
(66,365,l),
(86,365,l),
(86,365,o),
(258,606,o),
(319,606,cs),
(346,606,o),
(356,587,o),
(356,557,cs,{
name = hr01;
}),
(356,152,ls),
(356,72,o),
(308,43,o),
(248,43,cs),
(127,43,l),
(127,0,l),
(977,0,l),
(977,43,l),
(856,43,ls),
(796,43,o),
(747,72,o),
(747,152,cs),
(747,557,ls),
(747,587,o),
(758,606,o),
(785,606,cs)
);
},
{
closed = 1;
nodes = (
(424,43,l),
(424,607,l),
(489,607,l),
(489,43,l)
);
}
);
width = 1104;
}
);
unicode = 84;
},
{
glyphname = Tbar;
layers = (
{
layerId = master01;
shapes = (
{
closed = 1;
nodes = (
(216,310,l),
(216,238,l),
(394,238,l),
(394,310,l,{
name = hr00;
})
);
},
{
closed = 1;
nodes = (
(710,310,l),
(710,238,l),
(888,238,l),
(888,310,l)
);
},
{
ref = T;
}
);
width = 1104;
}
);
unicode = 358;
},
{
glyphname = U;
layers = (
{
layerId = master01;
shapes = (
{
closed = 1;
nodes = (
(757,607,l),
(818,607,o),
(947,584,o),
(947,411,cs),
(947,174,ls),
(947,97,o),
(904,31,o),
(692,31,cs),
(608,31,o),
(577,73,o),
(577,167,cs),
(577,499,ls),
(577,579,o),
(625,607,o),
(685,607,cs),
(701,607,l),
(701,650,l),
(40,650,l),
(40,607,l),
(78,607,ls),
(138,607,o),
(186,579,o),
(186,499,cs),
(186,177,ls),
(186,96,o),
(220,-22,o),
(652,-22,cs),
(1000,-22,o),
(1012,96,o),
(1012,220,cs),
(1012,411,ls),
(1012,584,o),
(1113,607,o),
(1212,607,c),
(1212,650,l),
(757,650,l,{
name = hr00;
})
);
},
{
closed = 1;
nodes = (
(319,607,l),
(319,88,l),
(315,88,o),
(254,88,o),
(254,210,cs),
(254,334,o),
(254,607,o),
(254,607,c)
);
}
);
width = 1217;
}
);
unicode = 85;
},
{
glyphname = V;
layers = (
{
layerId = master01;
shapes = (
{
closed = 1;
nodes = (
(1222,607,l),
(654,-23,l),
(618,-23,l),
(53,607,l),
(-14,607,l),
(-14,650,l),
(690,650,l),
(690,607,l),
(662,607,ls),
(621,607,o),
(599,573,o),
(599,533,cs),
(599,505,o),
(611,473,o),
(634,450,cs),
(821,260,l),
(951,402,ls),
(972,424,o),
(981,449,o),
(981,474,cs),
(981,541,o),
(910,607,o),
(805,607,cs),
(779,607,o),
(755,607,o),
(755,607,c),
(755,650,l),
(1273,650,l),
(1273,607,l,{
name = hr00;
})
);
},
{
closed = 1;
nodes = (
(651,38,l),
(691,83,l),
(221,607,l),
(141,607,l)
);
}
);
width = 1259;
}
);
unicode = 86;
},
{
glyphname = W;
layers = (
{
layerId = master01;
shapes = (
{
closed = 1;
nodes = (
(1459,650,l),
(755,650,l),
(755,607,l),
(822,607,l),
(978,433,l),
(821,260,l),
(634,450,ls),
(611,473,o),
(599,505,o),
(599,533,cs),
(599,573,o),
(621,607,o),
(662,607,cs),
(690,607,l),
(690,650,l),
(-14,650,l),
(-14,607,l),
(53,607,l),
(618,-23,l),
(654,-23,l),
(1021,383,l),
(1387,-23,l),
(1423,-23,l),
(1992,607,l),
(2041,607,l),
(2041,650,l),
(1524,650,l),
(1524,607,l),
(1524,607,o),
(1549,607,o),
(1573,607,cs),
(1679,607,o),
(1750,542,o),
(1750,474,cs),
(1750,449,o),
(1741,424,o),
(1720,402,cs),
(1589,260,l),
(1404,450,ls),
(1381,473,o),
(1369,505,o),
(1369,533,cs),
(1369,573,o),
(1391,607,o),
(1432,607,cs),
(1459,607,l,{
name = hr00;
})
);
},
{
closed = 1;
nodes = (
(691,83,l),
(651,38,l),
(141,607,l),
(221,607,l)
);
},
{
closed = 1;
nodes = (
(1460,83,l),
(1420,38,l),
(910,607,l),
(990,607,l)
);
}
);
width = 2028;
}
);
unicode = 87;
},
{
glyphname = X;
layers = (
{
layerId = master01;
shapes = (
{
closed = 1;
nodes = (
(1221,43,o),
(1145,71,o),
(1067,151,cs),
(849,376,l),
(1079,525,ls),
(1115,548,o),
(1210,607,o),
(1294,607,cs),
(1327,607,l),
(1327,649,l),
(841,649,l),
(841,607,l),
(860,607,ls),
(893,607,o),
(920,583,o),
(920,546,cs),
(920,518,o),
(898,483,o),
(833,439,cs),
(805,420,l),
(730,497,ls),
(701,526,o),
(687,552,o),
(687,572,cs),
(687,592,o),
(702,607,o),
(733,607,cs),
(751,607,l),
(751,650,l),
(64,650,l),
(64,607,l),
(125,607,l),
(185,607,o),
(282,556,o),
(340,497,cs),
(535,296,l),
(263,121,ls),
(227,98,o),
(131,43,o),
(47,43,cs),
(22,43,o),
(13,43,o),
(13,43,c),
(13,0,l),
(576,0,l),
(576,43,l),
(481,43,ls),
(448,43,o),
(421,65,o),
(421,102,cs),
(421,130,o),
(442,166,o),
(508,209,cs),
(577,254,l),
(677,151,ls),
(712,114,o),
(727,89,o),
(727,72,cs),
(727,52,o),
(706,43,o),
(674,43,cs),
(634,43,l),
(634,0,l),
(1360,0,l),
(1360,43,l),
(1282,43,ls,{
name = hr00;
})
);
},
{
closed = 1;
nodes = (
(313,607,l),
(390,607,l),
(942,43,l),
(865,43,l)
);
}
);
width = 1373;
}
);
unicode = 88;
},
{
glyphname = Y;
layers = (
{
layerId = master01;
shapes = (
{
closed = 1;
nodes = (
(800,607,l),
(850,607,ls),
(914,607,o),
(949,575,o),
(949,534,cs),
(949,499,o),
(925,457,o),
(877,418,cs),
(818,370,l),
(689,498,ls),
(668,518,o),
(659,542,o),
(659,561,cs),
(659,587,o),
(677,607,o),
(707,607,cs),
(735,607,l),
(735,650,l),
(-14,650,l),
(-14,607,l),
(87,607,l),
(427,270,l),
(427,151,ls),
(427,72,o),
(379,43,o),
(319,43,cs),
(197,43,l),
(197,0,l),
(1048,0,l),
(1048,43,l),
(927,43,ls),
(867,43,o),
(818,72,o),
(818,151,cs),
(818,291,l),
(1257,607,l),
(1323,607,l),
(1323,650,l),
(800,650,l,{
name = hr00;
})
);
},
{
closed = 1;
nodes = (
(560,43,l),
(495,43,l),
(495,292,l),
(176,607,l),
(255,607,l),
(560,306,l)
);
}
);
width = 1309;
}
);
unicode = 89;
},
{
glyphname = Z;
layers = (
{
layerId = master01;
shapes = (
{
closed = 1;
nodes = (
(548,43,l),
(666,43,ls),
(913,43,o),
(1015,154,o),
(1075,226,c),
(1104,226,l),
(1104,0,l),
(54,0,l),
(54,43,l),
(77,43,l),
(626,607,l),
(569,607,ls),
(327,607,o),
(206,489,o),
(141,424,c),
(112,424,l),
(112,650,l),
(1119,650,l),
(1119,607,l),
(1098,607,l,{
name = hr00;
})
);
},
{
closed = 1;
nodes = (
(165,43,l),
(250,43,l),
(795,607,l),
(714,607,l)
);
}
);
width = 1173;
}
);
unicode = 90;
},
{
glyphname = L.alt;
layers = (
{
layerId = master01;
shapes = (
{
closed = 1;
nodes = (
(692,556,o),
(741,607,o),
(801,607,c),
(801,650,l),
(73,650,l),
(73,607,l),
(193,607,ls),
(253,607,o),
(301,556,o),
(301,497,cs),
(301,151,ls),
(301,71,o),
(253,43,o),
(193,43,cs),
(73,43,l),
(73,0,l),
(1236,0,l),
(1236,288,l),
(1202,288,l),
(1059,85,o),
(900,43,o),
(801,43,cs),
(715,43,o),
(692,92,o),
(692,151,cs),
(692,497,ls,{
name = hr00;
})
);
},
{
closed = 1;
nodes = (
(369,43,l),
(369,607,l),
(434,607,l),
(434,43,l)
);
}
);
width = 1249;
}
);
},
{
glyphname = a;
layers = (
{
layerId = master01;
shapes = (
{
closed = 1;
nodes = (
(197,558,l),
(197,515,l),
(267,515,ls),
(334,515,o),
(348,498,o),
(370,471,cs),
(398,436,l),
(144,111,ls),
(144,111,o),
(94,43,o),
(-14,43,c),
(-14,0,l),
(362,0,l),
(362,43,l),
(280,43,l),
(245,43,o),
(219,63,o),
(219,98,cs),
(219,117,o),
(226,139,o),
(242,166,c),
(616,166,l),
(647,127,ls),
(663,107,o),
(670,90,o),
(670,76,cs),
(670,54,o),
(649,43,o),
(623,43,c),
(557,43,l),
(557,0,l),
(1201,0,l),
(1201,43,l),
(1102,43,l),
(688,558,l,{
name = hr00;
})
);
},
{
closed = 1;
nodes = (
(484,515,l),
(864,43,l),
(804,43,l),
(423,515,l)
);
},
{
closed = 1;
nodes = (
(583,207,l),
(274,207,l),
(426,403,l)
);
}
);
width = 1188;
}
);
unicode = 97;
},
{
glyphname = ae;
layers = (
{
layerId = master01;
shapes = (
{
closed = 1;
nodes = (
(197,558,l),
(197,515,l),
(267,515,ls),
(334,515,o),
(348,498,o),
(370,471,cs),
(398,436,l),
(144,111,ls),
(144,111,o),
(94,43,o),
(-14,43,c),
(-14,0,l),
(362,0,l),
(362,43,l),
(280,43,l),
(245,43,o),
(219,63,o),
(219,98,cs),
(219,117,o),
(224,143,o),
(242,166,cs),
(546,558,l,{
name = hr00;
})
);
},
{
closed = 1;
nodes = (
(1281,515,o),
(1396,432,o),
(1450,358,c),
(1479,358,l),
(1479,558,l),
(448,558,l),
(448,515,l),
(553,515,ls),
(603,515,o),
(642,474,o),
(642,426,cs),
(642,131,ls),
(642,65,o),
(603,43,o),
(553,43,cs),
(448,43,l),
(448,0,l),
(1479,0,l),
(1479,186,l),
(1450,186,l),
(1365,70,o),
(1235,43,o),
(1125,43,cs),
(1048,43,ls),
(997,43,o),
(980,77,o),
(980,126,cs),
(980,193,ls),
(980,229,o),
(994,266,o),
(1051,266,cs),
(1124,266,o),
(1227,230,o),
(1255,166,c),
(1292,166,l),
(1292,430,l),
(1255,430,l),
(1227,371,o),
(1124,322,o),
(1051,322,cs),
(994,322,o),
(980,360,o),
(980,395,cs),
(980,435,ls),
(980,482,o),
(1014,515,o),
(1072,515,c)
);
},
{
closed = 1;
nodes = (
(704,515,l),
(755,515,l),
(755,43,l),
(704,43,l)
);
},
{
closed = 1;
nodes = (
(671,271,l),
(671,317,l),
(314,317,l),
(314,271,l)
);
}
);
width = 1559;
}
);
unicode = 230;
},
{
glyphname = b;
layers = (
{
layerId = master01;
shapes = (
{
closed = 1;
nodes = (
(1065,300,l),
(1099,311,o),
(1174,347,o),
(1174,428,cs),
(1174,549,o),
(1042,558,o),
(876,558,cs),
(73,558,l),
(73,515,l),
(178,515,ls),
(227,515,o),
(267,473,o),
(267,425,cs),
(267,131,ls),
(267,66,o),
(227,43,o),
(178,43,cs),
(73,43,l),
(73,0,l),
(961,0,ls),
(1060,0,o),
(1225,29,o),
(1225,152,cs,{
name = hr01;
}),
(1225,252,o),
(1110,287,o),
(1065,296,c)
);
},
{
closed = 1;
nodes = (
(605,483,o),
(642,515,o),
(702,515,cs),
(793,515,o),
(844,479,o),
(844,414,cs),
(844,343,o),
(785,313,o),
(735,313,cs),
(605,313,l),
(605,434,ls)
);
},
{
closed = 1;
nodes = (
(330,43,l),
(330,515,l),
(380,515,l),
(380,43,l)
);
},
{
closed = 1;
nodes = (
(622,43,o),
(605,78,o),
(605,127,cs),
(605,275,l),
(742,275,ls),
(817,275,o),
(877,241,o),
(877,159,cs,{
name = hr02;
}),
(877,69,o),
(807,43,o),
(751,43,cs),
(673,43,l)
);
},
{
closed = 1;
nodes = (
(974,370,o),
(937,328,o),
(890,310,c),
(886,314,l),
(905,341,o),
(919,375,o),
(919,409,cs,{
name = hr03;
}),
(919,443,o),
(905,477,o),
(886,504,c),
(890,507,l),
(937,489,o),
(974,448,o),
(974,409,cs)
);
},
{
closed = 1;
nodes = (
(1007,110,o),
(969,62,o),
(912,40,c),
(909,44,l),
(935,73,o),
(953,115,o),
(953,159,cs,{
name = hr04;
}),
(953,203,o),
(935,245,o),
(909,274,c),
(912,278,l),
(969,256,o),
(1007,208,o),
(1007,159,cs)
);
}
);
width = 1256;
}
);
unicode = 98;
},
{
glyphname = c;
layers = (
{
layerId = master01;
shapes = (
{
closed = 1;
nodes = (
(897,61,o),
(930,85,o),
(930,103,cs),
(930,119,o),
(915,123,o),
(907,123,cs),
(878,123,o),
(781,19,o),
(574,19,cs,{
name = hr01;
}),
(452,19,o),
(411,67,o),
(411,180,cs),
(411,415,ls),
(411,484,o),
(440,537,o),
(537,537,cs),
(670,537,o),
(805,408,o),
(846,351,c),
(891,351,l),
(891,559,l,{
name = hr02;
}),
(844,559,l),
(844,519,l),
(759,549,o),
(654,580,o),
(541,580,cs,{
name = hr03;
}),
(303,580,o),
(22,497,o),
(22,281,cs),
(22,67,o),
(278,-22,o),
(571,-22,cs),
(701,-22,o),
(783,4,o),
(840,32,c)
);
},
{
closed = 1;
nodes = (
(132,175,o),
(202,95,o),
(289,46,c),
(287,42,l),
(174,88,o),
(77,174,o),
(77,279,cs),
(77,385,o),
(174,471,o),
(287,517,c),
(289,513,l),
(202,464,o),
(132,384,o),
(132,279,c)
);
}
);
width = 943;
}
);
unicode = 99;
},
{
glyphname = d;
layers = (
{
layerId = master01;
shapes = (
{
closed = 1;
nodes = (
(70,515,l),
(175,515,ls),
(224,515,o),
(265,474,o),
(265,426,cs),
(265,132,ls),
(265,66,o),
(224,43,o),
(175,43,cs),
(70,43,l),
(70,0,l),
(799,0,ls),
(958,0,o),
(1246,50,o),
(1246,290,cs),
(1246,487,o),
(983,558,o),
(722,558,cs),
(70,558,l,{
name = hr00;
})
);
},
{
closed = 1;
nodes = (
(328,42,l),
(328,515,l),
(377,515,l),
(377,42,l)
);
},
{
closed = 1;
nodes = (
(618,43,o),
(601,77,o),
(601,126,cs),
(601,435,ls),
(601,483,o),
(638,515,o),
(699,515,cs),
(843,515,o),
(886,412,o),
(886,278,cs),
(886,160,o),
(850,43,o),
(747,43,cs),
(670,43,l)
);
},
{
closed = 1;
nodes = (
(1030,185,o),
(984,96,o),
(900,49,c),
(896,52,l),
(942,112,o),
(967,195,o),
(967,278,cs),
(967,361,o),
(942,444,o),
(896,504,c),
(900,507,l),
(984,460,o),
(1030,371,o),
(1030,278,c)
);
}
);
width = 1268;
}
);
unicode = 100;
},
{
glyphname = eth;
layers = (
{
layerId = master01;
shapes = (
{
closed = 1;
nodes = (
(688,509,o),
(632,515,o),
(572,515,cs),
(236,515,o),
(22,391,o),
(22,245,cs),
(22,98,o),
(269,-22,o),
(572,-22,cs),
(939,-22,o),
(1104,169,o),
(1104,360,cs),
(1104,635,o),
(860,749,o),
(613,749,cs),
(465,749,o),
(348,721,o),
(237,687,c),
(237,724,l,{
name = hr01;
}),
(202,724,l),
(202,566,l),
(237,566,l),
(237,566,o),
(393,706,o),
(546,706,cs,{
name = hr02;
}),
(698,706,o),
(740,607,o),
(740,500,c)
);
},
{
closed = 1;
nodes = (
(713,471,o),
(751,391,o),
(751,244,cs),
(751,97,o),
(685,21,o),
(572,21,cs),
(459,21,o),
(393,97,o),
(393,244,cs),
(393,391,o),
(432,471,o),
(572,471,cs)
);
},
{
closed = 1;
nodes = (
(130,142,o),
(237,63,o),
(386,29,c),
(384,22,l),
(196,57,o),
(62,138,o),
(62,245,cs),
(62,352,o),
(196,433,o),
(385,467,c),
(387,462,l),
(237,428,o),
(130,349,o),
(130,245,cs)
);
},
{
closed = 1;
nodes = (
(840,588,o),
(883,481,o),
(883,360,cs),
(883,238,o),
(839,132,o),
(770,58,c),
(766,62,l),
(796,154,o),
(814,253,o),
(814,360,cs),
(814,467,o),
(796,568,o),
(767,657,c),
(771,661,l)
);
},
{
closed = 1;
nodes = (
(843,691,l),
(843,631,l),
(1134,689,l),
(1134,749,l)
);
},
{
closed = 1;
nodes = (
(594,644,l),
(594,584,l),
(730,607,l),
(730,667,l)
);
}
);
width = 1144;
}
);
unicode = 240;
},
{
glyphname = dcroat;
layers = (
{
layerId = master01;
shapes = (
{
closed = 1;
nodes = (
(487,319,l),
(487,239,l),
(763,239,l),
(763,319,l,{
name = hr00;
})
);
},
{
closed = 1;
nodes = (
(135,319,l),
(135,239,l),
(301,239,l),
(301,319,l)
);
},
{
ref = d;
}
);
width = 1268;
}
);
unicode = 273;
},
{
glyphname = e;
layers = (
{
layerId = master01;
shapes = (
{
closed = 1;
nodes = (
(906,515,o),
(1021,432,o),
(1075,358,c),
(1104,358,l),
(1104,558,l),
(73,558,l),
(73,515,l),
(178,515,ls),
(228,515,o),
(267,474,o),
(267,426,cs),
(267,131,ls),
(267,65,o),
(228,43,o),
(178,43,cs),
(73,43,l),
(73,0,l),
(1104,0,l),
(1104,186,l),
(1075,186,l),
(990,70,o),
(860,43,o),
(750,43,cs),
(673,43,ls),
(622,43,o),
(605,77,o),
(605,126,cs),
(605,193,ls),
(605,229,o),
(619,266,o),
(676,266,cs),
(749,266,o),
(852,230,o),
(880,166,c),
(917,166,l),
(917,430,l),
(880,430,l),
(852,371,o),
(749,322,o),
(676,322,cs),
(619,322,o),
(605,360,o),
(605,395,cs),
(605,435,ls),
(605,482,o),
(639,515,o),
(697,515,c,{
name = hr00;
})
);
},
{
closed = 1;
nodes = (
(329,515,l),
(380,515,l),
(380,43,l),
(329,43,l)
);
}
);
width = 1184;
}
);
unicode = 101;
},
{
glyphname = f;
layers = (
{
layerId = master01;
shapes = (
{
closed = 1;
nodes = (
(622,43,o),
(605,65,o),
(605,127,cs),
(605,193,ls),
(605,229,o),
(620,266,o),
(676,266,cs),
(748,266,o),
(801,247,o),
(829,181,c),
(866,181,l),
(866,399,l),
(830,399,l),
(802,357,o),
(748,321,o),
(676,321,cs),
(620,321,o),
(605,359,o),
(605,394,cs),
(605,435,ls),
(605,481,o),
(639,515,o),
(697,515,cs),
(905,515,o),
(970,449,o),
(1016,393,c),
(1043,393,l),
(1043,558,l),
(73,558,l),
(73,515,l),
(178,515,ls),
(227,515,o),
(267,474,o),
(267,425,cs),
(267,132,ls),
(267,66,o),
(227,43,o),
(178,43,cs),
(73,43,l),
(73,0,l),
(790,0,l),
(790,43,l),
(673,43,l,{
name = hr00;
})
);
},
{
closed = 1;
nodes = (
(330,515,l),
(380,515,l),
(380,43,l),
(330,43,l)
);
}
);
width = 1070;
}
);
unicode = 102;
},
{
glyphname = g;
layers = (
{
layerId = master01;
shapes = (
{
closed = 1;
nodes = (
(516,292,l),
(616,292,ls),
(662,292,o),
(710,256,o),
(710,209,cs),
(710,148,ls),
(710,40,o),
(626,20,o),
(574,20,cs),
(439,20,o),
(411,96,o),
(411,175,cs),
(411,416,ls),
(411,505,o),
(490,540,o),
(587,540,cs),
(734,540,o),
(882,437,o),
(922,379,c),
(967,379,l),
(967,563,l,{
name = hr01;
}),
(920,563,l),
(920,527,l),
(798,563,o),
(661,580,o),
(541,580,cs,{
name = hr02;
}),
(265,580,o),
(22,524,o),
(22,289,cs),
(22,68,o),
(263,-22,o),
(571,-22,cs),
(774,-22,o),
(872,50,o),
(936,50,cs),
(974,50,o),
(994,27,o),
(994,-4,c,{
name = hr03;
}),
(1039,-4,l),
(1039,292,l),
(1201,292,l),
(1201,334,l),
(516,334,l)
);
},
{
closed = 1;
nodes = (
(823,116,o),
(801,62,o),
(783,62,cs),
(777,62,o),
(772,73,o),
(772,126,cs),
(772,291,l),
(823,291,l),
(823,182,l)
);
},
{
closed = 1;
nodes = (
(139,201,o),
(175,117,o),
(245,68,c),
(242,63,l),
(153,103,o),
(81,175,o),
(81,287,cs),
(81,400,o),
(153,472,o),
(242,512,c),
(245,507,l),
(175,458,o),
(139,374,o),
(139,287,c)
);
}
);
width = 1169;
}
);
unicode = 103;
},
{
glyphname = h;
layers = (
{
layerId = master01;
shapes = (
{
closed = 1;
nodes = (
(1208,474,o),
(1249,515,o),
(1298,515,cs),
(1403,515,l),
(1403,558,l),
(757,558,l),
(757,515,l),
(850,515,o),
(871,482,o),
(871,435,cs),
(871,317,l),
(605,317,l),
(605,435,ls),
(605,482,o),
(626,515,o),
(719,515,c),
(719,558,l),
(73,558,l),
(73,515,l),
(178,515,ls),
(227,515,o),
(267,474,o),
(267,426,cs),
(267,132,ls),
(267,66,o),
(227,43,o),
(178,43,cs),
(73,43,l),
(73,0,l),
(719,0,l),
(719,43,l),
(605,43,o),
(605,78,o),
(605,127,cs),
(605,240,ls),
(605,256,o),
(612,274,o),
(638,274,cs),
(838,274,ls),
(864,274,o),
(871,256,o),
(871,240,cs),
(871,127,ls),
(871,78,o),
(870,43,o),
(757,43,c),
(757,0,l),
(1403,0,l),
(1403,43,l),
(1298,43,ls),
(1249,43,o),
(1208,65,o),
(1208,131,cs),
(1208,426,ls,{
name = hr00;
})
);
},
{
closed = 1;
nodes = (
(380,43,l),
(330,43,l),
(330,515,l),
(380,515,l)
);
},
{
closed = 1;
nodes = (
(985,43,l),
(935,43,l),
(935,515,l),
(985,515,l)
);
}
);
width = 1482;
}
);
unicode = 104;
},
{
glyphname = hbar;
layers = (
{
layerId = master01;
shapes = (
{
closed = 1;
nodes = (
(137,437,l),
(137,365,l),
(282,365,l),
(282,437,l,{
name = hr00;
})
);
},
{
closed = 1;
nodes = (
(496,437,l),
(496,365,l),
(909,365,l),
(909,437,l)
);
},
{
closed = 1;
nodes = (
(1193,437,l),
(1193,365,l),
(1338,365,l),
(1338,437,l)
);
},
{
ref = h;
}
);
width = 1482;
}
);
unicode = 295;
},
{
glyphname = i;
layers = (
{
layerId = master01;
shapes = (
{
closed = 1;
nodes = (
(606,473,o),
(647,515,o),
(696,515,cs),
(802,515,l),
(802,558,l),
(73,558,l),
(73,515,l),
(179,515,ls),
(228,515,o),
(269,473,o),
(269,425,cs),
(269,131,ls),
(269,65,o),
(228,43,o),
(179,43,cs),
(73,43,l),
(73,0,l),
(802,0,l),
(802,43,l),
(696,43,ls),
(647,43,o),
(606,65,o),
(606,131,c),
(606,425,l,{
name = hr00;
})
);
},
{
closed = 1;
nodes = (
(331,43,l),
(331,515,l),
(382,515,l),
(382,43,l)
);
}
);
width = 881;
}
);
unicode = 105;
},
{
glyphname = dotlessi;
layers = (
{
layerId = master01;
shapes = (
{
closed = 1;
nodes = (
(606,65,o),
(647,43,o),
(696,43,cs),
(802,43,l),
(802,0,l),
(73,0,l),
(73,43,l),
(179,43,ls),
(228,43,o),
(269,65,o),
(269,131,cs),
(269,425,ls),
(269,473,o),
(228,515,o),
(179,515,cs),
(73,515,l),
(73,558,l),
(802,558,l),
(802,515,l),
(696,515,ls),
(647,515,o),
(606,473,o),
(606,425,cs),
(606,131,l,{
name = hr00;
})
);
},
{
closed = 1;
nodes = (
(331,515,l),
(331,43,l),
(382,43,l),
(382,515,l)
);
}
);
width = 881;
}
);
unicode = 305;
},
{
glyphname = j;
layers = (
{
layerId = master01;
shapes = (
{
closed = 1;
nodes = (
(515,106,o),
(483,63,o),
(465,57,c),
(465,515,l),
(515,515,l),
(515,176,l)
);
},
{
closed = 1;
nodes = (
(208,515,l),
(313,515,ls),
(362,515,o),
(403,473,o),
(403,425,cs),
(403,110,ls),
(403,44,o),
(362,21,o),
(313,21,cs),
(122,21,o),
(32,225,o),
(32,225,c),
(-14,225,l),
(-14,0,l),
(33,0,l),
(33,45,l),
(88,18,o),
(222,-21,o),
(369,-21,cs,{
name = hr01;
}),
(660,-21,o),
(740,49,o),
(740,166,cs),
(740,425,ls),
(740,473,o),
(781,515,o),
(830,515,cs),
(916,515,l),
(916,558,l),
(208,558,l)
);
}
);
width = 930;
}
);
unicode = 106;
},
{
glyphname = dotlessj;
layers = (
{
layerId = master01;
shapes = (
{
closed = 1;
nodes = (
(294,-85,o),
(268,-122,o),
(244,-135,c),
(244,515,l),
(294,515,l),
(294,-16,l)
);
},
{
closed = 1;
nodes = (
(92,515,ls),
(141,515,o),
(182,474,o),
(182,426,cs,{
name = hr01;
}),
(182,-75,ls),
(182,-135,o),
(161,-156,o),
(121,-156,cs),
(42,-156,o),
(-1,-65,o),
(-11,43,c),
(-50,43,l,{
name = hr02;
}),
(-50,-200,l),
(-3,-200,l),
(-3,-153,l),
(48,-199,o),
(141,-223,o),
(236,-223,cs),
(387,-223,o),
(519,-162,o),
(519,-26,cs),
(519,558,l),
(26,558,l),
(26,515,l)
);
}
);
width = 645;
}
);
unicode = 567;
},
{
glyphname = k;
layers = (
{
layerId = master01;
shapes = (
{
closed = 1;
nodes = (
(330,43,l),
(330,515,l),
(380,515,l),
(380,43,l,{
name = hr00;
})
);
},
{
closed = 1;
nodes = (
(958,43,l),
(762,275,l),
(831,275,l),
(1026,43,l)
);
},
{
closed = 1;
nodes = (
(759,43,l),
(695,43,ls),
(645,43,o),
(605,66,o),
(605,131,cs),
(605,217,ls),
(605,234,o),
(611,252,o),
(638,252,cs),
(704,252,l),
(929,0,l),
(1404,0,l),
(1404,43,l),
(1289,43,l),
(1036,342,ls),
(1028,352,o),
(1024,363,o),
(1024,371,cs),
(1024,385,o),
(1037,399,o),
(1048,406,cs),
(1074,421,o),
(1243,515,o),
(1311,515,cs),
(1404,515,l),
(1404,558,l),
(896,558,l),
(896,515,l),
(983,515,o),
(1014,510,o),
(1014,481,cs),
(1014,454,o),
(981,428,o),
(914,396,cs),
(848,365,o),
(721,299,o),
(669,299,cs),
(651,299,ls),
(611,299,o),
(605,323,o),
(605,346,cs),
(605,435,ls),
(605,482,o),
(640,515,o),
(697,515,cs),
(795,515,l),
(795,558,l),
(73,558,l),
(73,515,l),
(178,515,ls),
(227,515,o),
(267,474,o),
(267,426,cs),
(267,131,ls),
(267,66,o),
(227,43,o),
(178,43,cs),
(73,43,l),
(73,0,l),
(759,0,l)
);
}
);
width = 1426;
}
);
unicode = 107;
},
{
glyphname = l;
layers = (
{
layerId = master01;
shapes = (
{
closed = 1;
nodes = (
(605,473,o),
(645,515,o),
(695,515,cs),
(840,515,l),
(840,558,l),
(73,558,l),
(73,515,l),
(178,515,ls),
(227,515,o),
(267,473,o),
(267,425,cs),
(267,131,ls),
(267,65,o),
(227,43,o),
(178,43,cs),
(73,43,l),
(73,0,l),
(1066,0,l),
(1066,250,l),
(1035,250,l),
(913,77,o),
(779,42,o),
(695,42,cs),
(624,42,o),
(605,83,o),
(605,131,c),
(605,425,l,{
name = hr00;
})
);
},
{
closed = 1;
nodes = (
(330,515,l),
(380,515,l),
(380,43,l),
(330,43,l)
);
}
);
width = 1080;
}
);
unicode = 108;
},
{
glyphname = lslash;
layers = (
{
layerId = master01;
shapes = (
{
closed = 1;
nodes = (
(389,300,l),
(389,220,l),
(755,338,l),
(755,418,l,{
name = hr00;
})
);
},
{
closed = 1;
nodes = (
(117,212,l),
(117,132,l),
(316,196,l),
(316,276,l)
);
},
{
ref = l;
}
);
width = 1080;
}
);
unicode = 322;
},
{
glyphname = m;
layers = (
{
layerId = master01;
shapes = (
{
closed = 1;
nodes = (
(1100,515,l),
(1100,43,l),
(1050,43,l),
(1050,515,l,{
name = hr00;
})
);
},
{
closed = 1;
nodes = (
(1560,558,l),
(976,558,l),
(929,485,o),
(882,410,o),
(834,337,c),
(575,558,l),
(22,558,l),
(22,515,l),
(162,515,o),
(301,442,o),
(301,328,cs),
(301,238,ls),
(301,94,o),
(146,43,o),
(33,43,c),
(33,0,l),
(629,0,l),
(629,43,l),
(516,43,o),
(361,94,o),
(361,238,cs),
(361,346,l),
(686,72,l),
(733,72,l),
(817,203,o),
(904,337,o),
(988,469,c),
(988,131,ls),
(988,65,o),
(948,43,o),
(898,43,cs),
(794,43,l),
(794,0,l),
(1560,0,l),
(1560,43,l),
(1415,43,ls),
(1366,43,o),
(1325,65,o),
(1325,131,cs),
(1325,450,ls),
(1325,499,o),
(1366,515,o),
(1415,515,cs),
(1560,515,l)
);
},
{
closed = 1;
nodes = (
(696,149,l),
(551,272,o),
(409,392,o),
(265,515,c),
(341,515,l),
(463,410,o),
(591,303,o),
(714,199,c),
(714,149,l)
);
}
);
width = 1592;
}
);
unicode = 109;
},
{
glyphname = n;
layers = (
{
layerId = master01;
shapes = (
{
closed = 1;
nodes = (
(945,515,o),
(1055,496,o),
(1055,352,cs),
(1055,335,o),
(1044,331,o),
(1039,331,cs),
(1025,331,o),
(963,370,o),
(959,372,cs),
(664,558,l),
(23,558,l),
(23,515,l),
(163,515,o),
(301,442,o),
(301,327,cs),
(301,239,ls),
(301,94,o),
(147,43,o),
(33,43,c),
(33,0,l),
(629,0,l),
(629,43,l),
(517,43,o),
(362,94,o),
(362,239,cs),
(362,277,ls),
(362,323,o),
(382,334,o),
(401,334,cs),
(422,334,o),
(443,322,o),
(442,322,cs),
(1034,-36,l),
(1115,-36,l),
(1115,352,ls),
(1115,496,o),
(1225,515,o),
(1309,515,c),
(1309,558,l),
(861,558,l),
(861,515,l,{
name = hr00;
})
);
},
{
closed = 1;
nodes = (
(332,515,l),
(350,515,l),
(1033,92,l),
(1033,38,l),
(332,473,l)
);
}
);
width = 1324;
}
);
unicode = 110;
},
{
glyphname = eng;
layers = (
{
layerId = master01;
shapes = (
{
closed = 1;
nodes = (
(332,473,l),
(332,515,l),
(350,515,l),
(890,177,l),
(890,-76,ls),
(890,-145,o),
(864,-182,o),
(840,-195,c),
(840,154,l)
);
},
{
closed = 1;
nodes = (
(778,-135,ls),
(778,-195,o),
(757,-216,o),
(717,-216,cs),
(638,-216,o),
(595,-152,o),
(585,-76,c),
(546,-76,l),
(546,-260,l),
(593,-260,l),
(593,-213,l),
(644,-259,o),
(737,-283,o),
(832,-283,cs),
(983,-283,o),
(1115,-222,o),
(1115,-86,cs),
(1115,352,ls),
(1115,496,o),
(1225,515,o),
(1309,515,c),
(1309,558,l),
(861,558,l),
(861,515,l),
(945,515,o),
(1055,496,o),
(1055,352,cs),
(1055,335,o),
(1044,331,o),
(1039,331,cs),
(1025,331,o),
(963,370,o),
(959,372,cs),
(664,558,l),
(23,558,l),
(23,515,l),
(163,515,o),
(301,442,o),
(301,327,cs),
(301,239,ls),
(301,94,o),
(147,43,o),
(33,43,c),
(33,0,l),
(545,0,l),
(545,43,l),
(468,43,o),
(362,94,o),
(362,239,cs),
(362,277,ls),
(362,323,o),
(382,334,o),
(401,334,cs),
(422,334,o),
(443,322,o),
(442,322,cs),
(778,117,l)
);
}
);
width = 1324;
}
);
unicode = 331;
},
{
glyphname = o;
layers = (
{
layerId = master01;
shapes = (
{
closed = 1;
nodes = (
(1121,445,o),
(908,580,o),
(572,580,cs),
(236,580,o),
(22,445,o),
(22,280,cs),
(22,113,o),
(269,-22,o),
(572,-22,cs),
(876,-22,o),
(1121,113,o),
(1121,280,cs)
);
},
{
closed = 1;
nodes = (
(713,536,o),
(751,448,o),
(751,278,cs),
(751,108,o),
(685,21,o),
(572,21,cs),
(459,21,o),
(393,108,o),
(393,278,cs),
(393,448,o),
(432,536,o),
(572,536,cs)
);
},
{
closed = 1;
nodes = (
(130,160,o),
(237,68,o),
(386,29,c),
(384,22,l),
(196,62,o),
(62,156,o),
(62,280,cs),
(62,403,o),
(196,497,o),
(385,536,c),
(387,530,l),
(237,490,o),
(130,400,o),
(130,279,cs,{
name = hr01;
})
);
},
{
closed = 1;
nodes = (
(840,464,o),
(883,377,o),
(883,280,cs),
(883,181,o),
(839,94,o),
(770,35,c),
(766,38,l),
(796,113,o),
(814,193,o),
(814,279,cs),
(814,366,o),
(796,447,o),
(767,520,c),
(771,523,l)
);
}
);
width = 1144;
}
);
unicode = 111;
},
{
glyphname = oslashacute;
layers = (
{
layerId = master01;
shapes = (
{
closed = 1;
nodes = (
(722,608,l),
(670,608,l),
(376,-49,l),
(428,-49,l,{
name = hr00;
})
);
},
{
ref = o;
},
{
pos = (274,0);
ref = acute;
}
);
width = 1144;
}
);
unicode = 511;
},
{
glyphname = oe;
layers = (
{
layerId = master01;
shapes = (
{
closed = 1;
nodes = (
(287,558,o),
(73,435,o),
(73,281,cs),
(73,126,o),
(320,0,o),
(623,0,cs),
(1654,0,l),
(1654,186,l),
(1625,186,l),
(1540,70,o),
(1410,43,o),
(1300,43,cs),
(1223,43,ls),
(1172,43,o),
(1155,77,o),
(1155,126,cs),
(1155,193,ls),
(1155,229,o),
(1169,266,o),
(1226,266,cs),
(1299,266,o),
(1402,230,o),
(1430,166,c),
(1467,166,l),
(1467,430,l),
(1430,430,l),
(1402,371,o),
(1299,322,o),
(1226,322,cs),
(1169,322,o),
(1155,360,o),
(1155,395,cs),
(1155,435,ls),
(1155,482,o),
(1189,515,o),
(1247,515,cs),
(1456,515,o),
(1571,432,o),
(1625,358,c),
(1654,358,l),
(1654,558,l),
(623,558,ls)
);
},
{
closed = 1;
nodes = (
(181,171,o),
(288,87,o),
(437,51,c),
(435,44,l),
(247,82,o),
(113,167,o),
(113,281,cs),
(113,395,o),
(247,481,o),
(436,517,c),
(438,511,l),
(288,475,o),
(181,392,o),
(181,281,cs,{
name = hr01;
})
);
},
{
closed = 1;
nodes = (
(778,515,o),
(817,474,o),
(817,426,cs),
(817,131,ls),
(817,65,o),
(778,43,o),
(728,43,cs),
(623,43,ls),
(510,43,o),
(444,123,o),
(444,280,cs),
(444,436,o),
(483,515,o),
(623,515,cs),
(728,515,ls)
);
},
{
closed = 1;
nodes = (
(879,515,l),
(930,515,l),
(930,43,l),
(879,43,l)
);
}
);
width = 1734;
}
);
unicode = 339;
},
{
glyphname = p;
layers = (
{
layerId = master01;
shapes = (
{
closed = 1;
nodes = (
(73,515,l),
(179,515,ls),
(229,515,o),
(269,473,o),
(269,425,cs),
(269,131,ls),
(269,66,o),
(229,43,o),
(179,43,cs),
(73,43,l),
(73,0,l),
(802,0,l),
(802,43,l),
(696,43,ls),
(647,43,o),
(607,66,o),
(607,131,cs),
(607,186,ls),
(607,226,o),
(621,242,o),
(651,242,cs),
(967,242,ls),
(1121,242,o),
(1236,283,o),
(1236,401,cs),
(1236,541,o),
(1060,558,o),
(933,558,cs),
(73,558,l,{
name = hr00;
})
);
},
{
closed = 1;
nodes = (
(331,515,l),
(382,515,l),
(382,43,l),
(331,43,l)
);
},
{
closed = 1;
nodes = (
(625,285,o),
(607,303,o),
(607,325,cs),
(607,474,ls),
(607,497,o),
(625,515,o),
(647,515,cs),
(733,515,ls),
(778,515,o),
(869,487,o),
(869,400,cs),
(869,315,o),
(778,285,o),
(733,285,cs),
(647,285,l)
);
},
{
closed = 1;
nodes = (
(995,354,o),
(962,308,o),
(923,291,c),
(919,294,l),
(936,324,o),
(941,362,o),
(941,400,cs),
(941,438,o),
(936,476,o),
(919,506,c),
(923,509,l),
(962,492,o),
(995,446,o),
(995,400,c)
);
}
);
width = 1249;
}
);
unicode = 112;
},
{
glyphname = thorn;
layers = (
{
layerId = master01;
shapes = (
{
closed = 1;
nodes = (
(777,163,o),
(868,193,o),
(868,278,cs),
(868,365,o),
(777,393,o),
(732,393,cs),
(646,393,ls),
(624,393,o),
(606,375,o),
(606,352,cs),
(606,203,ls),
(606,181,o),
(624,163,o),
(646,163,cs),
(732,163,ls,{
name = hr00;
})
);
},
{
closed = 1;
nodes = (
(994,324,o),
(961,370,o),
(922,387,c),
(918,384,l),
(935,354,o),
(940,316,o),
(940,278,cs),
(940,240,o),
(935,202,o),
(918,172,c),
(922,169,l),
(961,186,o),
(994,232,o),
(994,278,cs)
);
},
{
closed = 1;
nodes = (
(802,43,l),
(802,0,l),
(73,0,l),
(73,43,l),
(179,43,ls),
(228,43,o),
(269,65,o),
(269,131,cs),
(269,425,ls),
(269,473,o),
(228,515,o),
(179,515,cs),
(73,515,l),
(73,558,l),
(802,558,l),
(802,515,l),
(606,515,l),
(606,492,ls),
(606,452,o),
(620,436,o),
(650,436,cs),
(932,436,ls),
(1059,436,o),
(1235,419,o),
(1235,279,cs),
(1235,161,o),
(1120,120,o),
(966,120,cs),
(650,120,ls),
(620,120,o),
(606,104,o),
(606,64,cs),
(606,43,l)
);
},
{
closed = 1;
nodes = (
(331,515,l),
(331,43,l),
(382,43,l),
(382,515,l)
);
}
);
width = 1249;
}
);
unicode = 254;
},
{
glyphname = q;
layers = (
{
layerId = master01;
shapes = (
{
closed = 1;
nodes = (
(461,-51,o),
(390,-88,o),
(366,-139,c),
(366,-179,l),
(787,-179,l),
(787,-137,l),
(651,-137,ls),
(632,-137,o),
(621,-116,o),
(621,-90,cs),
(621,-68,o),
(630,-41,o),
(645,-19,c),
(914,2,o),
(1132,126,o),
(1132,278,cs),
(1132,445,o),
(917,578,o),
(578,578,cs),
(238,578,o),
(22,445,o),
(22,278,cs),
(22,122,o),
(245,-5,o),
(528,-20,c),
(529,-23,l,{
name = hr00;
})
);
},
{
closed = 1;
nodes = (
(404,449,o),
(441,537,o),
(578,537,cs),
(715,537,o),
(751,449,o),
(751,278,cs),
(751,108,o),
(687,20,o),
(578,20,cs),
(468,20,o),
(404,108,o),
(404,278,c)
);
},
{
closed = 1;
nodes = (
(540,-57,o),
(484,-110,o),
(478,-137,c),
(431,-137,l),
(434,-109,o),
(511,-59,o),
(555,-38,c),
(557,-41,l)
);
},
{
closed = 1;
nodes = (
(141,162,o),
(248,73,o),
(397,35,c),
(395,28,l),
(207,67,o),
(73,158,o),
(73,279,cs),
(73,399,o),
(207,490,o),
(396,528,c),
(398,522,l),
(248,484,o),
(141,396,o),
(141,278,cs)
);
},
{
closed = 1;
nodes = (
(851,457,o),
(894,374,o),
(894,279,cs),
(894,182,o),
(850,99,o),
(781,41,c),
(777,44,l),
(807,117,o),
(825,195,o),
(825,278,cs),
(825,362,o),
(807,441,o),
(778,512,c),
(782,515,l)
);
}
);
width = 1155;
}
);
unicode = 113;
},
{
glyphname = r;
layers = (
{
layerId = master01;
shapes = (
{
closed = 1;
nodes = (
(1113,256,o),
(1291,274,o),
(1291,401,cs),
(1291,542,o),
(1115,559,o),
(989,559,cs),
(843,559,o),
(73,558,o),
(73,558,c),
(73,515,l),
(179,515,ls),
(229,515,o),
(269,474,o),
(269,425,cs),
(269,132,ls),
(269,66,o),
(229,43,o),
(179,43,cs),
(73,43,l),
(73,0,l),
(761,0,l),
(761,43,l),
(696,43,ls),
(646,43,o),
(607,66,o),
(607,132,cs),
(607,195,ls),
(607,235,o),
(607,253,o),
(628,253,cs),
(647,253,o),
(673,219,o),
(673,219,cs),
(844,0,l),
(1352,0,l),
(1352,43,l),
(1249,43,l),
(1136,184,l),
(1053,197,o),
(991,228,o),
(967,248,c),
(967,254,l,{
name = hr00;
})
);
},
{
closed = 1;
nodes = (
(331,515,l),
(382,515,l),
(382,43,l),
(331,43,l)
);
},
{
closed = 1;
nodes = (
(607,497,o),
(625,515,o),
(647,515,cs),
(747,515,ls),
(792,515,o),
(883,487,o),
(883,400,cs),
(883,328,o),
(812,302,o),
(741,302,cs),
(673,302,o),
(607,326,o),
(607,354,cs),
(607,474,l)
);
},
{
closed = 1;
nodes = (
(786,253,l),
(841,183,o),
(895,113,o),
(949,43,c),
(886,43,l),
(722,253,l)
);
},
{
closed = 1;
nodes = (
(1021,354,o),
(988,308,o),
(949,291,c),
(945,294,l),
(962,324,o),
(967,362,o),
(967,400,cs),
(967,438,o),
(962,476,o),
(945,506,c),
(949,509,l),
(988,492,o),
(1021,446,o),
(1021,400,c)
);
}
);
width = 1365;
}
);
unicode = 114;
},
{
glyphname = s;
layers = (
{
layerId = master01;
shapes = (
{
closed = 1;
nodes = (
(95,158,o),
(742,151,o),
(742,58,cs),
(742,25,o),
(668,19,o),
(604,19,cs),
(385,19,o),
(174,159,o),
(139,240,c),
(94,240,l),
(94,-4,l,{
name = hr01;
}),
(139,-4,l),
(162,45,l),
(299,4,o),
(423,-22,o),
(605,-22,cs,{
name = hr02;
}),
(852,-22,o),
(1011,35,o),
(1011,175,cs),
(1011,445,o),
(386,376,o),
(386,488,cs),
(386,528,o),
(432,538,o),
(490,538,cs),
(610,538,o),
(836,467,o),
(936,370,c),
(980,370,l),
(980,561,l,{
name = hr03;
}),
(935,561,l),
(931,550,o),
(924,536,o),
(920,518,c),
(809,547,o),
(670,578,o),
(485,578,cs,{
name = hr04;
}),
(337,578,o),
(95,575,o),
(95,379,c)
);
},
{
closed = 1;
nodes = (
(175,344,o),
(340,282,o),
(506,244,cs),
(680,204,o),
(844,191,o),
(844,77,cs),
(844,74,o),
(839,75,o),
(839,72,c),
(790,127,o),
(730,142,o),
(604,171,cs),
(296,242,o),
(152,298,o),
(152,391,cs,{
name = hr05;
}),
(152,407,o),
(155,424,o),
(165,442,c),
(172,442,l)
);
}
);
width = 1105;
}
);
unicode = 115;
},
{
glyphname = t;
layers = (
{
layerId = master01;
shapes = (
{
closed = 1;
nodes = (
(728,515,o),
(873,310,o),
(873,310,c),
(909,310,l),
(895,558,l),
(63,558,l),
(49,310,l),
(85,310,l),
(85,310,o),
(230,515,o),
(282,515,cs),
(302,515,o),
(310,499,o),
(310,476,cs),
(310,132,ls),
(310,66,o),
(270,43,o),
(221,43,cs),
(115,43,l),
(115,0,l),
(843,0,l),
(843,43,l),
(737,43,ls),
(688,43,o),
(647,66,o),
(647,132,cs),
(647,476,ls),
(647,499,o),
(656,515,o),
(677,515,c,{
name = hr00;
})
);
},
{
closed = 1;
nodes = (
(373,43,l),
(373,515,l),
(422,515,l),
(422,43,l)
);
}
);
width = 958;
}
);
unicode = 116;
},
{
glyphname = tbar;
layers = (
{
layerId = master01;
shapes = (
{
closed = 1;
nodes = (
(180,310,l),
(180,238,l),
(358,238,l),
(358,310,l,{
name = hr00;
})
);
},
{
closed = 1;
nodes = (
(599,310,l),
(599,238,l),
(777,238,l),
(777,310,l)
);
},
{
ref = t;
}
);
width = 958;
}
);
unicode = 359;
},
{
glyphname = u;
layers = (
{
layerId = master01;
shapes = (
{
closed = 1;
nodes = (
(650,515,l),
(702,515,o),
(811,498,o),
(811,353,cs),
(811,147,ls),
(811,79,o),
(776,18,o),
(598,18,cs),
(528,18,o),
(502,59,o),
(502,141,cs),
(502,427,ls),
(502,494,o),
(543,515,o),
(591,515,cs),
(607,515,l),
(607,558,l),
(40,558,l),
(40,515,l),
(76,515,ls),
(124,515,o),
(165,494,o),
(165,427,cs),
(165,151,ls),
(165,82,o),
(184,-22,o),
(575,-22,cs),
(862,-22,o),
(872,95,o),
(872,171,cs),
(872,353,l),
(872,498,o),
(958,515,o),
(1042,515,c),
(1042,558,l),
(650,558,l,{
name = hr00;
})
);
},
{
closed = 1;
nodes = (
(277,76,l),
(277,76,o),
(228,90,o),
(228,177,cs),
(228,515,l),
(277,515,l)
);
}
);
width = 1047;
}
);
unicode = 117;
},
{
glyphname = v;
layers = (
{
layerId = master01;
shapes = (
{
closed = 1;
nodes = (
(640,558,l),
(640,515,l),
(685,515,ls),
(773,515,o),
(832,462,o),
(832,406,cs),
(832,386,o),
(824,364,o),
(808,346,cs),
(698,229,l),
(542,387,ls),
(525,404,o),
(517,427,o),
(517,448,cs),
(517,483,o),
(538,515,o),
(564,515,cs),
(590,515,l),
(590,558,l),
(-14,558,l),
(-14,515,l),
(45,515,l),
(526,-19,l),
(558,-19,l),
(1040,515,l),
(1085,515,l),
(1085,558,l,{
name = hr00;
})
);
},
{
closed = 1;
nodes = (
(541,24,l),
(100,515,l),
(167,515,l),
(575,61,l)
);
}
);
width = 1072;
}
);
unicode = 118;
},
{
glyphname = w;
layers = (
{
layerId = master01;
shapes = (
{
closed = 1;
nodes = (
(1293,515,l),
(1338,515,ls),
(1426,515,o),
(1485,461,o),
(1485,406,cs),
(1485,386,o),
(1478,364,o),
(1461,346,cs),
(1352,229,l),
(1196,387,ls),
(1178,405,o),
(1170,428,o),
(1170,449,cs),
(1170,484,o),
(1191,515,o),
(1217,515,cs),
(1244,515,l),
(1244,558,l),
(640,558,l),
(640,515,l),
(698,515,l),
(828,370,l),
(698,226,l),
(542,387,ls),
(525,404,o),
(517,427,o),
(517,448,cs),
(517,483,o),
(537,515,o),
(563,515,c),
(590,515,l),
(590,558,l),
(-14,558,l),
(-14,515,l),
(45,515,l),
(526,-19,l),
(558,-19,l),
(868,325,l),
(1179,-19,l),
(1211,-19,l),
(1695,515,l),
(1739,515,l),
(1739,558,l),
(1293,558,l,{
name = hr00;
})
);
},
{
closed = 1;
nodes = (
(99,515,l),
(167,515,l),
(574,61,l),
(542,24,l)
);
},
{
closed = 1;
nodes = (
(752,515,l),
(821,515,l),
(1228,61,l),
(1195,24,l)
);
}
);
width = 1725;
}
);
unicode = 119;
},
{
glyphname = x;
layers = (
{
layerId = master01;
shapes = (
{
closed = 1;
nodes = (
(1043,43,o),
(979,66,o),
(913,133,cs),
(852,194,o),
(792,257,o),
(730,321,c),
(923,446,ls),
(957,468,o),
(1039,514,o),
(1104,515,cs),
(1136,515,l),
(1136,557,l,{
name = hr01;
}),
(716,557,l),
(716,515,l,{
name = hr02;
}),
(735,515,ls),
(754,515,o),
(784,497,o),
(784,467,cs),
(784,445,o),
(764,417,o),
(711,379,cs),
(689,363,l),
(610,445,ls),
(599,456,o),
(589,473,o),
(589,488,cs),
(589,503,o),
(599,515,o),
(627,515,cs),
(645,515,l),
(645,558,l),
(56,558,l),
(56,515,l),
(111,515,ls),
(160,515,o),
(244,472,o),
(292,423,cs),
(455,256,l),
(226,108,ls),
(195,88,o),
(114,43,o),
(44,43,cs),
(13,43,l),
(13,0,l),
(497,0,l),
(497,43,l),
(414,43,ls),
(395,43,o),
(364,59,o),
(364,89,cs),
(364,111,o),
(386,143,o),
(437,177,cs),
(495,215,l),
(598,110,ls),
(610,98,o),
(617,83,o),
(617,71,cs),
(617,55,o),
(605,43,o),
(577,43,cs),
(540,43,l),
(540,0,l),
(1163,0,l),
(1163,43,l),
(1093,43,l)
);
},
{
closed = 1;
nodes = (
(335,515,l),
(795,43,l),
(727,43,l),
(267,515,l)
);
}
);
width = 1176;
}
);
unicode = 120;
},
{
glyphname = y;
layers = (
{
layerId = master01;
shapes = (
{
closed = 1;
nodes = (
(724,515,ls),
(777,515,o),
(805,490,o),
(805,457,cs),
(805,429,o),
(785,394,o),
(744,360,cs),
(697,321,l),
(589,427,ls),
(572,443,o),
(563,464,o),
(563,479,cs),
(563,499,o),
(578,515,o),
(602,515,cs),
(629,515,l),
(629,558,l),
(-14,558,l),
(-14,515,l),
(75,515,l),
(362,231,l),
(362,131,ls),
(362,66,o),
(321,43,o),
(273,43,cs),
(166,43,l),
(166,0,l),
(895,0,l),
(895,43,l),
(789,43,ls),
(740,43,o),
(699,66,o),
(699,131,cs),
(699,249,l),
(1071,515,l),
(1129,515,l),
(1129,558,l),
(679,558,l),
(679,515,l,{
name = hr00;
})
);
},
{
closed = 1;
nodes = (
(425,43,l),
(425,251,l),
(158,515,l),
(224,515,l),
(474,269,l),
(474,43,l)
);
}
);
width = 1115;
}
);
unicode = 121;
},
{
glyphname = z;
layers = (
{
layerId = master01;
shapes = (
{
closed = 1;
nodes = (
(965,558,l),
(104,558,l),
(104,361,l),
(132,361,l),
(187,416,o),
(290,515,o),
(495,515,cs),
(537,515,l),
(76,43,l),
(54,43,l),
(54,0,l),
(952,0,l),
(952,197,l),
(924,197,l),
(859,130,o),
(770,43,o),
(577,43,cs),
(483,43,l),
(945,515,l),
(965,515,l,{
name = hr00;
})
);
},
{
closed = 1;
nodes = (
(617,515,l),
(688,515,l),
(229,43,l),
(158,43,l)
);
}
);
width = 1019;
}
);
unicode = 122;
},
{
glyphname = d.alt;
layers = (
{
layerId = master01;
shapes = (
{
closed = 1;
nodes = (
(729,43,l),
(729,677,l),
(780,677,l),
(780,43,l,{
name = hr00;
})
);
},
{
closed = 1;
nodes = (
(598,459,o),
(503,480,o),
(411,480,cs),
(176,480,o),
(50,345,o),
(50,215,cs),
(50,94,o),
(161,-22,o),
(394,-22,cs),
(492,-22,o),
(602,12,o),
(667,68,c),
(667,0,l),
(1160,0,l),
(1160,36,l),
(1094,36,ls),
(1045,36,o),
(1005,55,o),
(1005,109,cs),
(1005,720,l),
(533,720,l),
(533,677,l),
(587,677,ls),
(631,677,o),
(667,636,o),
(667,588,cs),
(667,411,l)
);
},
{
closed = 1;
nodes = (
(601,396,o),
(650,366,o),
(667,350,c),
(667,131,l),
(641,91,o),
(597,54,o),
(543,54,cs),
(464,54,o),
(419,109,o),
(419,215,cs),
(419,320,o),
(446,396,o),
(543,396,cs)
);
},
{
closed = 1;
nodes = (
(208,24,o),
(113,118,o),
(113,215,cs),
(113,316,o),
(215,421,o),
(405,445,c),
(407,435,l),
(249,412,o),
(165,312,o),
(165,216,cs),
(165,122,o),
(243,33,o),
(409,18,c),
(407,10,l)
);
}
);
width = 1190;
}
);
},
{
glyphname = g.alt;
layers = (
{
layerId = master01;
shapes = (
{
closed = 1;
nodes = (
(902,-256,o),
(967,-187,o),
(967,-114,cs),
(967,195,o),
(336,1,o),
(336,126,cs),
(336,144,o),
(353,157,o),
(379,166,c),
(299,194,l),
(179,164,o),
(65,111,o),
(65,-4,cs),
(65,-283,o),
(733,-116,o),
(809,-287,c)
);
},
{
closed = 1;
nodes = (
(161,-63,o),
(314,-94,o),
(475,-101,cs),
(650,-109,o),
(809,-113,o),
(826,-218,c),
(818,-220,l),
(764,-174,o),
(700,-161,o),
(473,-150,cs),
(271,-140,o),
(121,-103,o),
(121,-2,cs,{
name = hr01;
}),
(121,11,o),
(123,24,o),
(128,38,c),
(135,39,l)
);
},
{
closed = 1;
nodes = (
(966,483,o),
(793,580,o),
(520,580,cs),
(246,580,o),
(73,483,o),
(73,362,cs),
(73,241,o),
(274,143,o),
(520,143,cs),
(767,143,o),
(966,241,o),
(966,362,cs)
);
},
{
closed = 1;
nodes = (
(600,536,o),
(659,477,o),
(659,361,cs),
(659,245,o),
(584,186,o),
(520,186,cs),
(456,186,o),
(381,245,o),
(381,361,cs),
(381,477,o),
(441,536,o),
(520,536,cs)
);
},
{
closed = 1;
nodes = (
(221,229,o),
(136,288,o),
(136,362,cs,{
name = hr02;
}),
(136,435,o),
(220,493,o),
(348,528,c),
(351,519,l),
(261,484,o),
(204,430,o),
(204,362,cs),
(204,294,o),
(262,238,o),
(353,203,c),
(349,194,l)
);
},
{
closed = 1;
nodes = (
(748,481,o),
(790,412,o),
(790,361,cs),
(790,308,o),
(747,239,o),
(678,201,c),
(671,203,l),
(701,252,o),
(722,314,o),
(722,361,cs),
(722,407,o),
(701,470,o),
(672,517,c),
(679,519,l)
);
},
{
closed = 1;
nodes = (
(967,536,l),
(967,579,l,{
name = hr03;
}),
(520,579,l),
(520,536,l)
);
}
);
width = 1060;
}
);
},
{
glyphname = h.alt;
layers = (
{
layerId = master01;
shapes = (
{
closed = 1;
nodes = (
(278,43,l),
(278,677,l),
(329,677,l),
(329,43,l,{
name = hr00;
})
);
},
{
closed = 1;
nodes = (
(60,720,l),
(60,677,l),
(126,677,ls),
(175,677,o),
(216,636,o),
(216,588,cs),
(216,132,ls),
(216,75,o),
(184,43,o),
(126,43,cs),
(60,43,l),
(60,0,l),
(709,0,l),
(709,43,l),
(643,43,ls),
(585,43,o),
(553,75,o),
(553,132,cs),
(553,267,l),
(605,318,o),
(682,356,o),
(735,356,cs),
(783,356,o),
(801,331,o),
(801,264,cs),
(801,0,l),
(1294,0,l),
(1294,43,l),
(1228,43,ls),
(1170,43,o),
(1138,75,o),
(1138,132,cs),
(1138,323,ls),
(1138,433,o),
(1067,480,o),
(900,480,cs),
(781,480,o),
(661,428,o),
(553,330,c),
(553,720,l)
);
},
{
closed = 1;
nodes = (
(869,368,o),
(914,320,o),
(914,257,cs),
(914,43,l),
(863,43,l),
(863,257,ls),
(863,314,o),
(835,359,o),
(788,379,c),
(790,386,l)
);
}
);
width = 1324;
}
);
},
{
glyphname = ordfeminine;
layers = (
{
layerId = master01;
shapes = (
{
closed = 1;
nodes = (
(755,348,l),
(755,308,l),
(362,308,l),
(362,348,l),
(409,348,ls,{
name = hr01;
}),
(420,348,o),
(429,352,o),
(429,361,cs),
(429,367,o),
(425,374,o),
(417,385,cs),
(401,405,l),
(191,405,l),
(184,391,o),
(180,381,o),
(180,373,cs),
(180,358,o),
(193,348,o),
(208,348,cs),
(264,348,l),
(264,308,l),
(29,308,l),
(29,348,l),
(94,348,o),
(121,386,o),
(121,386,cs),
(268,571,l),
(254,588,ls),
(254,588,o),
(238,610,o),
(200,610,cs),
(152,610,l),
(152,650,l),
(451,650,l),
(693,348,l)
);
},
{
closed = 1;
nodes = (
(545,348,l),
(337,610,l),
(294,610,l),
(503,348,l)
);
},
{
closed = 1;
nodes = (
(370,444,l),
(294,539,l),
(219,444,l)
);
}
);
width = 793;
}
);
unicode = 170;
},
{
glyphname = ordmasculine;
layers = (
{
layerId = master01;
shapes = (
{
closed = 1;
nodes = (
(688,585,o),
(560,670,o),
(359,670,cs),
(159,670,o),
(30,585,o),
(30,483,cs),
(30,379,o),
(178,295,o),
(359,295,cs),
(541,295,o),
(688,379,o),
(688,483,cs)
);
},
{
closed = 1;
nodes = (
(436,626,o),
(456,577,o),
(456,482,cs),
(456,386,o),
(420,338,o),
(359,338,cs),
(298,338,o),
(263,386,o),
(263,482,cs),
(263,577,o),
(284,626,o),
(359,626,cs)
);
},
{
closed = 1;
nodes = (
(168,601,o),
(115,544,o),
(115,483,cs,{
name = hr01;
}),
(115,422,o),
(173,366,o),
(256,340,c),
(256,335,l),
(151,358,o),
(75,416,o),
(75,483,cs),
(75,550,o),
(143,608,o),
(256,630,c),
(256,626,l)
);
},
{
closed = 1;
nodes = (
(548,421,o),
(519,382,o),
(486,347,c),
(499,388,o),
(508,435,o),
(508,483,cs),
(508,532,o),
(499,578,o),
(482,623,c),
(519,586,o),
(548,545,o),
(548,483,cs)
);
}
);
width = 718;
}
);
unicode = 186;
},
{
glyphname = pi;
layers = (
{
layerId = master01;
shapes = (
{
closed = 1;
nodes = (
(606,473,o),
(647,515,o),
(696,515,cs),
(816,515,l),
(816,168,ls),
(816,50,o),
(897,-20,o),
(1190,-20,cs),
(1221,-20,o),
(1252,-18,o),
(1280,-16,c),
(1276,27,l),
(1269,27,o),
(1258,26,o),
(1248,26,cs),
(1196,26,o),
(1153,50,o),
(1153,120,cs),
(1153,515,l),
(1277,515,l),
(1277,558,l),
(73,558,l),
(73,515,l),
(179,515,ls),
(228,515,o),
(269,473,o),
(269,425,cs),
(269,131,ls),
(269,65,o),
(228,43,o),
(179,43,cs,{
name = hr01;
}),
(73,43,l),
(73,0,l),
(606,0,l),
(606,425,ls)
);
},
{
closed = 1;
nodes = (
(331,43,l),
(331,515,l),
(382,515,l),
(382,43,l)
);
},
{
closed = 1;
nodes = (
(905,64,o),
(878,94,o),
(878,178,cs),
(878,515,l),
(929,515,l),
(929,54,l)
);
}
);
width = 1353;
}
);
unicode = 960;
},
{
glyphname = zero;
layers = (
{
layerId = master01;
shapes = (
{
closed = 1;
nodes = (
(1011,133,o),
(791,-22,o),
(519,-22,cs),
(247,-22,o),
(27,133,o),
(27,326,cs),
(27,516,o),
(218,670,o),
(519,670,cs),
(821,670,o),
(1011,516,o),
(1011,326,cs)
);
},
{
closed = 1;
nodes = (
(395,629,o),
(362,525,o),
(362,324,cs),
(362,124,o),
(420,19,o),
(519,19,cs),
(617,19,o),
(676,124,o),
(676,324,cs),
(676,525,o),
(643,629,o),
(519,629,cs)
);
},
{
closed = 1;
nodes = (
(122,447,o),
(195,549,o),
(301,607,c),
(299,612,l),
(160,556,o),
(67,449,o),
(67,325,cs),
(67,202,o),
(160,95,o),
(299,39,c),
(301,44,l),
(195,102,o),
(122,204,o),
(122,325,cs)
);
},
{
closed = 1;
nodes = (
(794,434,o),
(748,542,o),
(693,601,c),
(688,598,l),
(720,518,o),
(737,427,o),
(737,325,cs),
(737,224,o),
(720,133,o),
(688,53,c,{
name = hr01;
}),
(693,50,l),
(748,109,o),
(794,217,o),
(794,325,cs)
);
}
);
width = 1038;
}
);
unicode = 48;
},
{
glyphname = one;
layers = (
{
layerId = master01;
shapes = (
{
closed = 1;
nodes = (
(868,650,l),
(377,650,l),
(57,450,l),
(99,399,l),
(358,578,l),
(358,578,o),
(337,526,o),
(337,433,cs),
(337,152,ls),
(337,72,o),
(288,43,o),
(229,43,cs),
(151,43,l),
(151,0,l),
(868,0,l),
(868,43,l),
(790,43,ls),
(731,43,o),
(682,72,o),
(682,152,cs),
(682,497,ls),
(682,557,o),
(731,607,o),
(790,607,cs),
(868,607,l,{
name = hr00;
})
);
},
{
closed = 1;
nodes = (
(404,43,l),
(404,607,l),
(469,607,l),
(469,43,l)
);
}
);
width = 925;
}
);
unicode = 49;
},
{
glyphname = two;
layers = (
{
layerId = master01;
shapes = (
{
closed = 1;
nodes = (
(702,85,o),
(465,43,o),
(94,42,c),
(94,47,l),
(394,116,o),
(952,279,o),
(952,474,cs),
(952,632,o),
(649,670,o),
(491,670,cs),
(302,670,o),
(193,622,o),
(120,580,c),
(120,634,l),
(85,634,l),
(85,362,l),
(120,362,l),
(144,490,o),
(295,630,o),
(450,630,cs),
(481,630,o),
(593,617,o),
(593,467,cs),
(593,264,o),
(220,117,o),
(50,66,c),
(50,0,l),
(948,0,l),
(948,230,l),
(913,230,l),
(913,148,l,{
name = hr00;
})
);
},
{
closed = 1;
nodes = (
(598,610,o),
(695,553,o),
(695,464,cs),
(695,296,o),
(524,249,o),
(524,249,c),
(522,254,l),
(569,291,o),
(648,371,o),
(648,467,cs),
(648,564,o),
(595,607,o),
(595,607,c),
(598,610,l)
);
}
);
width = 1009;
}
);
unicode = 50;
},
{
glyphname = three;
layers = (
{
layerId = master01;
shapes = (
{
closed = 1;
nodes = (
(771,367,o),
(904,428,o),
(904,499,cs),
(904,586,o),
(740,670,o),
(481,670,cs),
(316,670,o),
(222,629,o),
(120,583,c),
(120,625,l),
(85,625,l),
(85,434,l),
(120,434,l),
(184,565,o),
(321,630,o),
(442,630,cs),
(553,630,o),
(598,565,o),
(598,497,cs,{
name = hr01;
}),
(598,423,o),
(540,371,o),
(442,371,cs),
(369,371,o),
(303,386,o),
(303,459,c),
(269,459,l),
(269,236,l),
(303,236,l),
(303,304,o),
(378,334,o),
(467,334,cs),
(572,334,o),
(638,270,o),
(638,175,cs,{
name = hr02;
}),
(638,88,o),
(572,18,o),
(464,18,cs),
(297,18,o),
(128,105,o),
(87,213,c),
(52,213,l),
(52,6,l),
(87,6,l),
(87,49,l),
(177,10,o),
(323,-22,o),
(481,-22,cs),
(753,-22,o),
(974,66,o),
(974,173,cs,{
name = hr03;
}),
(974,266,o),
(829,334,o),
(592,350,c)
);
},
{
closed = 1;
nodes = (
(680,79,o),
(687,130,o),
(687,170,cs),
(687,210,o),
(680,260,o),
(655,302,c),
(659,307,l),
(704,271,o),
(735,221,o),
(735,170,cs),
(735,119,o),
(703,68,o),
(659,33,c),
(655,37,l)
);
},
{
closed = 1;
nodes = (
(701,458,o),
(670,413,o),
(624,384,c),
(619,387,l),
(639,422,o),
(652,462,o),
(652,501,cs),
(652,540,o),
(639,580,o),
(619,615,c),
(624,618,l),
(670,589,o),
(701,544,o),
(701,501,cs,{
name = hr04;
})
);
}
);
width = 1025;
}
);
unicode = 51;
},
{
glyphname = four;
layers = (
{
layerId = master01;
shapes = (
{
closed = 1;
nodes = (
(956,220,l),
(769,220,l),
(769,497,ls),
(769,557,o),
(818,607,o),
(877,607,cs),
(955,607,l),
(955,650,l),
(464,650,l),
(57,220,l),
(57,178,l),
(424,178,l),
(424,162,o),
(424,151,o),
(424,151,c),
(424,71,o),
(375,43,o),
(315,43,cs),
(238,43,l),
(238,0,l),
(955,0,l),
(955,43,l),
(877,43,ls),
(818,43,o),
(769,71,o),
(769,151,cs),
(769,178,l),
(956,178,l,{
name = hr00;
})
);
},
{
closed = 1;
nodes = (
(445,570,l),
(445,570,o),
(424,518,o),
(424,425,cs),
(424,220,l),
(143,220,l)
);
},
{
closed = 1;
nodes = (
(491,42,l),
(491,607,l),
(556,607,l),
(556,42,l)
);
}
);
width = 1012;
}
);
unicode = 52;
},
{
glyphname = five;
layers = (
{
layerId = master01;
shapes = (
{
closed = 1;
nodes = (
(958,38,o),
(664,-22,o),
(442,-22,cs),
(233,-22,o),
(85,43,o),
(85,43,c),
(85,0,l),
(50,0,l),
(50,199,l),
(85,199,l),
(153,117,o),
(248,18,o),
(440,18,cs),
(598,18,o),
(622,131,o),
(622,197,cs),
(622,263,o),
(602,383,o),
(370,383,cs),
(184,383,o),
(66,263,o),
(66,263,c),
(49,279,l),
(351,663,l,{
name = hr01;
}),
(371,663,l,{
name = hr02;
}),
(371,663,o),
(374,650,o),
(449,650,c),
(886,650,l,{
name = hr03;
}),
(938,650,o),
(948,663,o),
(948,663,c),
(971,650,l),
(718,525,l),
(287,525,l),
(166,370,l),
(265,409,o),
(341,436,o),
(511,436,cs),
(680,436,o),
(958,385,o),
(958,211,c)
);
},
{
closed = 1;
nodes = (
(584,383,o),
(667,337,o),
(667,200,cs,{
name = hr04;
}),
(667,63,o),
(605,22,o),
(605,22,cs),
(606,18,ls),
(606,18,o),
(717,41,o),
(717,202,cs,{
name = hr05;
}),
(717,360,o),
(586,388,o),
(586,387,cs),
(584,383,l)
);
}
);
width = 1020;
}
);
unicode = 53;
},
{
glyphname = six;
layers = (
{
layerId = master01;
shapes = (
{
closed = 1;
nodes = (
(943,643,l),
(943,476,l),
(909,476,ls),
(909,476,o),
(752,630,o),
(600,630,cs),
(447,630,o),
(394,522,o),
(394,358,cs),
(394,358,o),
(529,421,o),
(688,421,cs),
(846,421,o),
(1040,352,o),
(1040,217,cs),
(1040,50,o),
(781,-22,o),
(541,-22,cs),
(301,-22,o),
(57,114,o),
(57,321,cs),
(57,529,o),
(295,670,o),
(570,670,cs),
(783,670,o),
(909,607,o),
(909,607,cs),
(909,643,l)
);
},
{
closed = 1;
nodes = (
(393,151,o),
(400,17,o),
(548,17,cs),
(709,17,o),
(710,151,o),
(710,206,cs),
(710,286,o),
(674,373,o),
(584,373,cs),
(494,373,o),
(393,318,o),
(393,318,cs),
(393,277,ls)
);
},
{
closed = 1;
nodes = (
(319,591,o),
(112,519,o),
(112,322,cs),
(112,125,o),
(299,53,o),
(299,53,cs),
(302,58,ls),
(302,58,o),
(168,153,o),
(168,322,cs),
(168,491,o),
(322,585,o),
(322,585,cs),
(319,591,l)
);
},
{
closed = 1;
nodes = (
(709,384,o),
(763,337,o),
(763,211,cs),
(763,85,o),
(710,32,o),
(710,32,cs),
(713,28,ls,{
name = hr01;
}),
(713,28,o),
(811,67,o),
(811,211,cs),
(811,355,o),
(711,388,o),
(711,388,cs),
(709,384,l)
);
}
);
width = 1097;
}
);
unicode = 54;
},
{
glyphname = seven;
layers = (
{
layerId = master01;
shapes = (
{
closed = 1;
nodes = (
(48,400,l),
(76,400,l),
(252,597,o),
(475,622,o),
(575,622,cs),
(608,622,o),
(627,619,o),
(627,619,c),
(627,619,o),
(514,513,o),
(426,355,c),
(242,355,l),
(242,311,l),
(403,311,l),
(357,219,o),
(322,112,o),
(322,0,c),
(805,0,l),
(805,43,l),
(657,43,l),
(654,69,o),
(652,92,o),
(652,116,cs),
(652,190,o),
(667,255,o),
(690,311,c),
(859,311,l),
(859,355,l),
(710,355,l),
(799,524,o),
(957,605,o),
(957,605,c),
(1049,605,l),
(1049,650,l),
(48,650,l,{
name = hr00;
})
);
},
{
closed = 1;
nodes = (
(98,490,l),
(98,605,l),
(139,605,l),
(139,521,l)
);
},
{
closed = 1;
nodes = (
(386,43,l),
(386,355,o),
(691,620,o),
(691,620,c),
(745,620,l),
(745,620,o),
(440,354,o),
(440,43,c)
);
}
);
width = 1106;
}
);
unicode = 55;
},
{
glyphname = eight;
layers = (
{
layerId = master01;
shapes = (
{
closed = 1;
nodes = (
(742,422,o),
(755,463,o),
(755,507,cs),
(755,549,o),
(742,592,o),
(723,629,c),
(727,633,l),
(774,601,o),
(804,557,o),
(804,507,cs),
(804,458,o),
(774,414,o),
(726,382,c),
(722,385,l)
);
},
{
closed = 1;
nodes = (
(251,409,o),
(184,455,o),
(184,507,cs),
(184,561,o),
(253,610,o),
(358,637,c),
(359,633,l),
(282,604,o),
(232,558,o),
(232,507,cs),
(232,456,o),
(280,413,o),
(355,384,c),
(353,380,l)
);
},
{
closed = 1;
nodes = (
(393,597,o),
(426,645,o),
(549,645,cs),
(672,645,o),
(706,597,o),
(706,505,cs),
(706,411,o),
(647,369,o),
(549,369,cs),
(451,369,o),
(393,411,o),
(393,505,cs)
);
},
{
closed = 1;
nodes = (
(195,52,o),
(112,109,o),
(112,174,cs),
(112,239,o),
(194,295,o),
(319,328,c),
(321,324,l),
(228,291,o),
(168,236,o),
(168,174,cs,{
name = hr01;
}),
(168,112,o),
(230,57,o),
(323,24,c),
(321,20,l)
);
},
{
closed = 1;
nodes = (
(450,12,o),
(392,67,o),
(392,174,cs),
(392,290,o),
(440,345,o),
(549,345,cs),
(668,345,o),
(706,278,o),
(706,174,cs),
(706,67,o),
(648,12,o),
(549,12,cs)
);
},
{
closed = 1;
nodes = (
(753,72,o),
(768,122,o),
(768,174,cs),
(768,226,o),
(753,276,o),
(729,320,c),
(731,324,l),
(789,287,o),
(823,234,o),
(823,174,cs),
(823,115,o),
(789,61,o),
(732,25,c),
(728,28,l)
);
},
{
closed = 1;
nodes = (
(972,597,o),
(808,670,o),
(549,670,cs),
(291,670,o),
(127,597,o),
(127,507,cs),
(127,442,o),
(223,386,o),
(364,360,c),
(364,356,l),
(171,328,o),
(57,257,o),
(57,174,cs),
(57,66,o),
(277,-22,o),
(549,-22,cs),
(821,-22,o),
(1041,66,o),
(1041,174,cs,{
name = hr03;
}),
(1041,257,o),
(927,328,o),
(735,356,c),
(735,360,l),
(875,386,o),
(972,442,o),
(972,507,cs,{
name = hr02;
})
);
}
);
width = 1098;
}
);
unicode = 56;
},
{
glyphname = nine;
layers = (
{
layerId = master01;
shapes = (
{
closed = 1;
nodes = (
(144,-7,l),
(144,158,l),
(179,158,ls),
(179,158,o),
(335,18,o),
(488,18,cs),
(640,18,o),
(693,112,o),
(693,276,cs),
(693,276,o),
(558,214,o),
(400,214,cs),
(241,214,o),
(57,268,o),
(57,418,cs),
(57,569,o),
(306,664,o),
(546,664,cs),
(787,664,o),
(1030,537,o),
(1030,313,cs),
(1030,105,o),
(792,-22,o),
(518,-22,cs),
(304,-22,o),
(179,27,o),
(179,27,cs),
(179,-7,l)
);
},
{
closed = 1;
nodes = (
(694,499,o),
(684,624,o),
(540,624,cs),
(384,624,o),
(377,496,o),
(377,436,cs),
(377,341,o),
(414,262,o),
(504,262,cs),
(594,262,o),
(694,318,o),
(694,318,cs),
(694,382,ls)
);
},
{
closed = 1;
nodes = (
(681,25,o),
(814,115,o),
(814,312,cs),
(814,509,o),
(715,602,o),
(713,600,cs),
(710,598,ls),
(710,598,o),
(758,529,o),
(758,312,cs),
(758,143,o),
(679,28,o),
(679,28,cs),
(681,25,l)
);
},
{
closed = 1;
nodes = (
(237,267,o),
(167,307,o),
(167,412,cs),
(167,517,o),
(239,565,o),
(235,563,cs),
(234,566,ls),
(234,566,o),
(120,533,o),
(120,412,cs,{
name = hr01;
}),
(120,292,o),
(232,265,o),
(236,264,cs),
(237,267,l)
);
}
);
width = 1087;
}
);
unicode = 57;
},
{
glyphname = fraction;
layers = (
{
layerId = master01;
shapes = (
{
closed = 1;
nodes = (
(506,670,l),
(454,670,l),
(60,-22,l),
(112,-22,l,{
name = hr00;
})
);
}
);
width = 566;
}
);
unicode = 8260;
},
{
glyphname = zeroinferior;
layers = (
{
layerId = master01;
shapes = (
{
closed = 1;
nodes = (
(556,286,o),
(451,371,o),
(283,371,cs),
(118,371,o),
(12,286,o),
(12,180,cs),
(12,73,o),
(134,-12,o),
(283,-12,cs),
(434,-12,o),
(556,73,o),
(556,180,cs)
);
},
{
closed = 1;
nodes = (
(349,342,o),
(366,287,o),
(366,179,cs),
(366,72,o),
(335,16,o),
(283,16,cs),
(233,16,o),
(202,72,o),
(202,179,cs),
(202,287,o),
(219,342,o),
(283,342,cs)
);
},
{
closed = 1;
nodes = (
(92,130,o),
(126,60,o),
(189,20,c),
(188,17,l),
(102,50,o),
(52,114,o),
(52,180,cs),
(52,246,o),
(102,310,o),
(188,343,c),
(189,340,l),
(126,300,o),
(92,230,o),
(92,180,cs,{
name = hr01;
})
);
},
{
closed = 1;
nodes = (
(446,121,o),
(419,71,o),
(386,46,c),
(383,48,l),
(398,80,o),
(406,133,o),
(406,179,cs),
(406,225,o),
(398,278,o),
(383,310,c),
(386,312,l),
(419,287,o),
(446,237,o),
(446,179,cs)
);
}
);
width = 571;
}
);
unicode = 8320;
},
{
glyphname = oneinferior;
layers = (
{
layerId = master01;
shapes = (
{
closed = 1;
nodes = (
(477,360,l),
(204,360,l),
(27,249,l),
(54,216,l),
(188,309,l),
(188,309,o),
(180,273,o),
(180,238,cs),
(180,86,ls),
(180,45,o),
(156,30,o),
(126,30,cs),
(80,30,l),
(80,0,l),
(477,0,l),
(477,30,l),
(432,30,ls),
(401,30,o),
(376,45,o),
(376,86,cs),
(376,273,ls),
(376,304,o),
(401,329,o),
(432,329,cs),
(477,329,l)
);
},
{
closed = 1;
nodes = (
(260,329,l,{
name = hr01;
}),
(260,30,l),
(220,30,l),
(220,329,l)
);
}
);
width = 509;
}
);
unicode = 8321;
},
{
glyphname = twoinferior;
layers = (
{
layerId = master01;
shapes = (
{
closed = 1;
nodes = (
(390,53,o),
(275,34,o),
(103,29,c),
(103,35,l),
(271,79,o),
(524,161,o),
(524,261,cs),
(524,350,o),
(357,367,o),
(284,367,cs),
(178,367,o),
(108,342,o),
(71,325,c),
(71,351,l),
(44,351,l),
(44,197,l),
(71,197,l),
(84,266,o),
(164,339,o),
(247,339,cs),
(263,339,o),
(320,335,o),
(320,257,cs),
(320,148,o),
(117,68,o),
(25,41,c),
(25,0,l),
(521,0,l),
(521,132,l),
(494,132,l),
(494,85,l)
);
},
{
closed = 1;
nodes = (
(364,334,o),
(400,303,o),
(400,257,cs,{
name = hr01;
}),
(400,165,o),
(309,143,o),
(309,143,c),
(307,147,l),
(349,180,o),
(360,229,o),
(360,257,cs),
(360,315,o),
(330,343,o),
(330,343,c),
(333,346,l)
);
}
);
width = 555;
}
);
unicode = 8322;
},
{
glyphname = threeinferior;
layers = (
{
layerId = master01;
shapes = (
{
closed = 1;
nodes = (
(497,324,o),
(406,367,o),
(264,367,cs),
(175,367,o),
(124,348,o),
(71,326,c),
(71,346,l),
(44,346,l),
(44,236,l),
(70,236,l),
(104,308,o),
(179,339,o),
(242,339,cs),
(299,339,o),
(323,309,o),
(323,273,cs),
(323,235,o),
(292,208,o),
(242,208,cs),
(204,208,o),
(171,216,o),
(171,255,c),
(144,255,l),
(144,129,l),
(171,129,l),
(171,165,o),
(209,182,o),
(256,182,cs),
(311,182,o),
(345,147,o),
(345,98,cs),
(345,52,o),
(310,16,o),
(254,16,cs),
(165,16,o),
(74,63,o),
(52,122,c),
(26,122,l),
(26,0,l),
(53,0,l),
(53,24,l),
(101,3,o),
(180,-12,o),
(264,-12,cs,{
name = hr01;
}),
(413,-12,o),
(536,37,o),
(536,97,cs),
(536,145,o),
(466,182,o),
(353,194,c),
(437,207,o),
(497,237,o),
(497,274,cs)
);
},
{
closed = 1;
nodes = (
(379,46,o),
(385,74,o),
(385,98,cs),
(385,121,o),
(379,149,o),
(357,174,c),
(360,177,l),
(400,157,o),
(427,127,o),
(427,98,cs),
(427,68,o),
(399,38,o),
(360,18,c),
(357,21,l)
);
},
{
closed = 1;
nodes = (
(336,213,l),
(354,233,o),
(363,252,o),
(363,273,cs),
(363,293,o),
(356,314,o),
(336,339,c),
(339,342,l),
(381,323,o),
(403,296,o),
(403,271,cs),
(403,247,o),
(382,224,o),
(339,210,c)
);
}
);
width = 564;
}
);
unicode = 8323;
},
{
glyphname = fourinferior;
layers = (
{
layerId = master01;
shapes = (
{
closed = 1;
nodes = (
(526,126,l),
(424,126,l),
(424,273,ls),
(424,304,o),
(449,329,o),
(478,329,cs),
(525,329,l),
(525,360,l),
(252,360,l),
(28,124,l),
(28,97,l),
(228,97,l),
(228,85,ls),
(228,44,o),
(203,29,o),
(173,29,cs),
(127,29,l),
(127,0,l),
(525,0,l),
(525,29,l),
(478,29,ls),
(449,29,o),
(424,44,o),
(424,85,cs),
(424,97,l),
(526,97,l)
);
},
{
closed = 1;
nodes = (
(137,185,o),
(184,236,o),
(234,295,c),
(234,295,o),
(228,263,o),
(228,234,cs),
(228,126,l),
(87,126,l)
);
},
{
closed = 1;
nodes = (
(308,329,l,{
name = hr01;
}),
(308,29,l),
(268,29,l),
(268,329,l)
);
}
);
width = 557;
}
);
unicode = 8324;
},
{
glyphname = fiveinferior;
layers = (
{
layerId = master01;
shapes = (
{
closed = 1;
nodes = (
(527,22,o),
(365,-12,o),
(242,-12,cs),
(143,-12,o),
(52,21,o),
(52,21,c),
(52,0,l),
(25,0,l),
(25,114,l),
(50,114,l),
(87,69,o),
(138,16,o),
(241,16,cs),
(324,16,o),
(336,75,o),
(336,110,cs),
(336,145,o),
(325,209,o),
(203,209,cs),
(103,209,o),
(38,142,o),
(38,142,c),
(23,154,l),
(190,367,l,{
name = hr01;
}),
(206,367,l,{
name = hr02;
}),
(206,367,o),
(208,360,o),
(246,360,cs),
(483,360,ls),
(510,360,o),
(516,369,o),
(516,369,c),
(538,357,l),
(394,286,l),
(160,286,l),
(101,213,l),
(152,232,o),
(191,243,o),
(280,243,cs),
(373,243,o),
(527,215,o),
(527,118,cs)
);
},
{
closed = 1;
nodes = (
(307,203,o),
(381,180,o),
(381,111,cs),
(381,43,o),
(326,22,o),
(326,22,c),
(327,18,l),
(327,18,o),
(421,32,o),
(421,112,cs,{
name = hr03;
}),
(421,191,o),
(308,207,o),
(308,207,c),
(307,203,l)
);
}
);
width = 561;
}
);
unicode = 8325;
},
{
glyphname = sixinferior;
layers = (
{
layerId = master01;
shapes = (
{
closed = 1;
nodes = (
(492,339,o),
(419,367,o),
(311,367,cs),
(160,367,o),
(28,293,o),
(28,178,cs),
(28,63,o),
(164,-12,o),
(296,-12,cs),
(429,-12,o),
(571,29,o),
(571,121,cs),
(571,197,o),
(464,235,o),
(376,235,cs),
(302,235,o),
(239,212,o),
(220,204,c),
(222,287,o),
(250,339,o),
(328,339,cs),
(409,339,o),
(494,259,o),
(494,259,c),
(519,259,l),
(519,356,l),
(492,356,l),
(492,339,l)
);
},
{
closed = 1;
nodes = (
(219,174,o),
(278,203,o),
(319,203,cs),
(366,203,o),
(384,157,o),
(384,115,cs),
(384,86,o),
(383,15,o),
(299,15,cs),
(223,15,o),
(219,86,o),
(219,153,c),
(219,174,l)
);
},
{
closed = 1;
nodes = (
(424,149,o),
(412,180,o),
(393,201,c),
(396,203,l),
(436,186,o),
(464,151,o),
(464,115,cs,{
name = hr01;
}),
(464,79,o),
(436,44,o),
(396,27,c),
(393,30,l),
(412,50,o),
(424,82,o),
(424,115,cs)
);
},
{
closed = 1;
nodes = (
(108,128,o),
(142,58,o),
(205,18,c),
(204,15,l),
(118,48,o),
(68,112,o),
(68,178,cs),
(68,244,o),
(118,308,o),
(204,341,c),
(205,338,l),
(142,298,o),
(108,228,o),
(108,178,cs)
);
}
);
width = 603;
}
);
unicode = 8326;
},
{
glyphname = seveninferior;
layers = (
{
layerId = master01;
shapes = (
{
closed = 1;
nodes = (
(23,218,l),
(45,218,l),
(141,325,o),
(261,338,o),
(314,338,cs),
(323,338,o),
(331,338,o),
(336,337,c),
(336,337,o),
(277,279,o),
(231,199,c),
(129,199,l),
(129,169,l),
(215,169,l),
(191,120,o),
(173,62,o),
(173,0,c),
(444,0,l),
(444,29,l),
(363,29,l),
(362,43,o),
(361,53,o),
(361,66,cs),
(361,103,o),
(369,139,o),
(381,169,c),
(473,169,l),
(473,199,l),
(394,199,l),
(442,291,o),
(523,329,o),
(523,329,c),
(576,329,l),
(576,360,l),
(23,360,l,{
name = hr00;
})
);
},
{
closed = 1;
nodes = (
(371,296,o),
(252,170,o),
(252,29,c),
(214,29,l),
(214,161,o),
(338,299,o),
(369,329,c),
(405,329,l)
);
},
{
closed = 1;
nodes = (
(63,274,l),
(63,329,l),
(93,329,l),
(93,296,l)
);
}
);
width = 608;
}
);
unicode = 8327;
},
{
glyphname = eightinferior;
layers = (
{
layerId = master01;
shapes = (
{
closed = 1;
nodes = (
(219,320,o),
(236,343,o),
(300,343,cs),
(365,343,o),
(382,320,o),
(382,274,cs),
(382,228,o),
(351,207,o),
(300,207,cs),
(250,207,o),
(219,228,o),
(219,274,cs)
);
},
{
closed = 1;
nodes = (
(250,13,o),
(219,42,o),
(219,98,cs),
(219,158,o),
(244,188,o),
(300,188,cs),
(362,188,o),
(382,152,o),
(382,98,cs),
(382,42,o),
(351,13,o),
(300,13,cs)
);
},
{
closed = 1;
nodes = (
(88,25,o),
(64,65,o),
(64,98,cs),
(64,130,o),
(87,170,o),
(200,187,c),
(202,183,l),
(118,166,o),
(104,129,o),
(104,98,cs),
(104,67,o),
(120,29,o),
(203,13,c),
(202,9,l)
);
},
{
closed = 1;
nodes = (
(413,47,o),
(422,72,o),
(422,98,cs),
(422,124,o),
(413,149,o),
(392,171,c),
(395,174,l),
(447,155,o),
(462,128,o),
(462,98,cs,{
name = hr01;
}),
(462,68,o),
(446,40,o),
(395,22,c),
(391,25,l)
);
},
{
closed = 1;
nodes = (
(410,235,o),
(422,254,o),
(422,275,cs),
(422,295,o),
(410,315,o),
(393,332,c),
(397,334,l),
(439,319,o),
(462,298,o),
(462,275,cs),
(462,252,o),
(439,231,o),
(396,216,c),
(392,217,l)
);
},
{
closed = 1;
nodes = (
(127,218,o),
(107,250,o),
(107,275,cs),
(107,300,o),
(127,333,o),
(222,346,c),
(224,341,l),
(155,328,o),
(147,291,o),
(147,275,cs),
(147,259,o),
(153,223,o),
(221,210,c),
(219,205,l)
);
},
{
closed = 1;
nodes = (
(535,324,o),
(443,363,o),
(300,363,cs),
(158,363,o),
(67,324,o),
(67,275,cs),
(67,243,o),
(109,215,o),
(177,200,c),
(177,196,l),
(82,179,o),
(28,139,o),
(28,98,cs,{
name = hr02;
}),
(28,37,o),
(150,-12,o),
(300,-12,cs),
(451,-12,o),
(572,37,o),
(572,98,cs),
(572,139,o),
(517,179,o),
(423,196,c),
(423,200,l),
(489,215,o),
(535,243,o),
(535,275,cs)
);
}
);
width = 604;
}
);
unicode = 8328;
},
{
glyphname = nineinferior;
layers = (
{
layerId = master01;
shapes = (
{
closed = 1;
nodes = (
(102,13,o),
(181,-12,o),
(284,-12,cs),
(435,-12,o),
(566,58,o),
(566,173,cs),
(566,297,o),
(432,367,o),
(298,367,cs),
(166,367,o),
(28,315,o),
(28,231,cs),
(28,146,o),
(131,117,o),
(219,117,cs),
(292,117,o),
(356,139,o),
(375,147,c),
(373,65,o),
(345,16,o),
(267,16,cs),
(186,16,o),
(101,92,o),
(101,92,c),
(76,92,l),
(76,-4,l,{
name = hr01;
}),
(102,-4,l),
(102,13,l)
);
},
{
closed = 1;
nodes = (
(376,178,o),
(321,148,o),
(276,148,cs,{
name = hr02;
}),
(230,148,o),
(210,191,o),
(210,240,cs),
(210,272,o),
(214,339,o),
(295,339,cs),
(370,339,o),
(376,273,o),
(376,178,c)
);
},
{
closed = 1;
nodes = (
(456,121,o),
(429,61,o),
(396,36,c),
(393,38,l),
(408,70,o),
(416,133,o),
(416,179,cs),
(416,225,o),
(408,288,o),
(393,320,c),
(396,322,l),
(429,297,o),
(456,237,o),
(456,179,cs,{
name = hr03;
})
);
},
{
closed = 1;
nodes = (
(108,197,o),
(120,166,o),
(139,145,c),
(136,143,l),
(96,160,o),
(68,195,o),
(68,231,cs),
(68,267,o),
(96,302,o),
(136,319,c),
(139,316,l),
(120,296,o),
(108,264,o),
(108,231,cs)
);
}
);
width = 598;
}
);
unicode = 8329;
},
{
glyphname = period;
layers = (
{
layerId = master01;
shapes = (
{
closed = 1;
nodes = (
(501,172,o),
(409,229,o),
(296,229,cs),
(183,229,o),
(91,172,o),
(91,103,cs),
(91,34,o),
(183,-22,o),
(296,-22,cs),
(409,-22,o),
(501,34,o),
(501,103,cs,{
name = hr00;
})
);
},
{
closed = 1;
nodes = (
(180,70,o),
(195,40,o),
(217,19,c),
(214,15,l),
(165,33,o),
(131,67,o),
(131,103,cs),
(131,139,o),
(165,173,o),
(214,191,c),
(217,187,l),
(195,166,o),
(180,136,o),
(180,103,c)
);
}
);
width = 594;
}
);
unicode = 46;
},
{
glyphname = comma;
layers = (
{
layerId = master01;
shapes = (
{
closed = 1;
nodes = (
(181,70,o),
(196,40,o),
(218,19,c),
(215,15,l),
(166,33,o),
(132,67,o),
(132,103,cs),
(132,139,o),
(166,173,o),
(215,191,c),
(218,187,l),
(196,166,o),
(181,136,o),
(181,103,cs,{
name = hr00;
})
);
},
{
closed = 1;
nodes = (
(183,229,o),
(91,172,o),
(91,103,cs),
(91,34,o),
(183,-22,o),
(297,-22,cs),
(333,-22,o),
(366,-15,o),
(396,-5,c),
(377,-100,o),
(208,-114,o),
(129,-114,c),
(129,-151,l),
(384,-151,o),
(495,-34,o),
(495,70,cs),
(495,154,o),
(424,229,o),
(297,229,cs)
);
}
);
width = 595;
}
);
unicode = 44;
},
{
glyphname = ellipsis;
layers = (
{
layerId = master01;
shapes = (
{
closed = 1;
nodes = (
(501,172,o),
(409,229,o),
(296,229,cs),
(183,229,o),
(91,172,o),
(91,103,cs),
(91,34,o),
(183,-22,o),
(296,-22,cs),
(409,-22,o),
(501,34,o),
(501,103,cs,{
name = hr00;
})
);
},
{
closed = 1;
nodes = (
(180,70,o),
(195,40,o),
(217,19,c),
(214,15,l),
(165,33,o),
(131,67,o),
(131,103,cs),
(131,139,o),
(165,173,o),
(214,191,c),
(217,187,l),
(195,166,o),
(180,136,o),
(180,103,c)
);
},
{
closed = 1;
nodes = (
(1095,172,o),
(1003,229,o),
(890,229,cs),
(777,229,o),
(685,172,o),
(685,103,cs),
(685,34,o),
(777,-22,o),
(890,-22,cs),
(1003,-22,o),
(1095,34,o),
(1095,103,cs)
);
},
{
closed = 1;
nodes = (
(774,70,o),
(789,40,o),
(811,19,c),
(808,15,l),
(759,33,o),
(725,67,o),
(725,103,cs),
(725,139,o),
(759,173,o),
(808,191,c),
(811,187,l),
(789,166,o),
(774,136,o),
(774,103,c)
);
},
{
closed = 1;
nodes = (
(1689,172,o),
(1597,229,o),
(1484,229,cs),
(1371,229,o),
(1279,172,o),
(1279,103,cs),
(1279,34,o),
(1371,-22,o),
(1484,-22,cs),
(1597,-22,o),
(1689,34,o),
(1689,103,cs)
);
},
{
closed = 1;
nodes = (
(1368,70,o),
(1383,40,o),
(1405,19,c),
(1402,15,l),
(1353,33,o),
(1319,67,o),
(1319,103,cs),
(1319,139,o),
(1353,173,o),
(1402,191,c),
(1405,187,l),
(1383,166,o),
(1368,136,o),
(1368,103,c)
);
}
);
width = 1782;
}
);
unicode = 8230;
},
{
glyphname = exclam;
layers = (
{
layerId = master01;
shapes = (
{
closed = 1;
nodes = (
(568,190,o),
(465,252,o),
(339,252,cs),
(211,252,o),
(109,190,o),
(109,113,cs),
(109,36,o),
(211,-26,o),
(339,-26,cs),
(465,-26,o),
(568,36,o),
(568,113,c)
);
},
{
closed = 1;
nodes = (
(538,760,o),
(465,801,o),
(339,801,cs),
(211,801,o),
(140,760,o),
(140,682,cs,{
name = hr01;
}),
(140,606,o),
(292,297,o),
(339,297,cs),
(387,297,o),
(538,606,o),
(538,682,c)
);
},
{
closed = 1;
nodes = (
(278,741,o),
(255,723,o),
(255,706,cs),
(256,660,o),
(320,499,o),
(369,400,c),
(339,352,l),
(288,441,o),
(207,641,o),
(207,695,cs),
(207,728,o),
(250,750,o),
(299,759,c),
(303,750,l)
);
},
{
closed = 1;
nodes = (
(237,77,o),
(253,44,o),
(277,21,c),
(274,16,l),
(220,36,o),
(183,73,o),
(183,113,cs,{
name = hr02;
}),
(183,153,o),
(220,190,o),
(274,210,c),
(277,205,l),
(253,182,o),
(237,149,o),
(237,113,cs)
);
}
);
width = 679;
}
);
unicode = 33;
},
{
glyphname = exclamdown;
layers = (
{
layerId = master01;
shapes = (
{
closed = 1;
nodes = (
(567,739,o),
(464,801,o),
(338,801,cs),
(210,801,o),
(108,739,o),
(108,662,cs),
(108,585,o),
(210,523,o),
(338,523,cs),
(464,523,o),
(567,585,o),
(567,662,c)
);
},
{
closed = 1;
nodes = (
(537,169,o),
(386,478,o),
(338,478,cs),
(291,478,o),
(139,169,o),
(139,93,cs,{
name = hr01;
}),
(139,15,o),
(210,-26,o),
(338,-26,cs),
(464,-26,o),
(537,15,o),
(537,93,c)
);
},
{
closed = 1;
nodes = (
(249,25,o),
(206,47,o),
(206,80,cs),
(206,134,o),
(287,334,o),
(338,423,c),
(368,375,l),
(319,276,o),
(255,115,o),
(254,69,cs),
(254,52,o),
(277,34,o),
(302,25,c),
(298,16,l)
);
},
{
closed = 1;
nodes = (
(236,626,o),
(252,593,o),
(276,570,c),
(273,565,l),
(219,585,o),
(182,622,o),
(182,662,cs,{
name = hr02;
}),
(182,702,o),
(219,739,o),
(273,759,c),
(276,754,l),
(252,731,o),
(236,698,o),
(236,662,c)
);
}
);
width = 679;
}
);
unicode = 161;
},
{
glyphname = question;
layers = (
{
layerId = master01;
shapes = (
{
closed = 1;
nodes = (
(724,190,o),
(622,252,o),
(496,252,cs),
(369,252,o),
(266,190,o),
(266,113,cs),
(266,36,o),
(369,-26,o),
(496,-26,cs),
(622,-26,o),
(724,36,o),
(724,113,cs)
);
},
{
closed = 1;
nodes = (
(982,750,o),
(743,783,o),
(502,783,cs),
(328,783,o),
(227,760,o),
(139,735,c),
(139,800,l),
(97,800,l),
(97,536,l),
(139,536,l),
(168,628,o),
(371,745,o),
(506,745,cs),
(544,745,o),
(590,733,o),
(590,553,cs),
(590,398,o),
(522,362,o),
(436,362,cs),
(411,362,o),
(369,363,o),
(338,364,c),
(338,319,l),
(371,318,o),
(392,317,o),
(417,317,cs),
(713,317,o),
(982,450,o),
(982,609,cs,{
name = hr01;
})
);
},
{
closed = 1;
nodes = (
(389,76,o),
(404,44,o),
(426,21,c),
(423,16,l),
(374,35,o),
(340,73,o),
(340,113,cs),
(340,153,o),
(374,190,o),
(423,210,c),
(426,205,l),
(404,182,o),
(389,150,o),
(389,113,cs)
);
},
{
closed = 1;
nodes = (
(652,648,o),
(632,705,o),
(608,743,c),
(614,751,l),
(645,738,o),
(716,695,o),
(716,573,cs),
(716,437,o),
(645,389,o),
(614,375,c),
(608,384,l),
(632,426,o),
(652,490,o),
(652,573,cs)
);
}
);
width = 1092;
}
);
unicode = 63;
},
{
glyphname = questiondown;
layers = (
{
layerId = master01;
shapes = (
{
closed = 1;
nodes = (
(811,721,o),
(709,783,o),
(583,783,cs),
(456,783,o),
(353,721,o),
(353,644,cs),
(353,567,o),
(456,505,o),
(583,505,cs),
(709,505,o),
(811,567,o),
(811,644,cs)
);
},
{
closed = 1;
nodes = (
(95,7,o),
(334,-26,o),
(575,-26,cs),
(749,-26,o),
(850,-3,o),
(938,22,c),
(938,-43,l),
(980,-43,l),
(980,221,l),
(938,221,l),
(909,129,o),
(706,12,o),
(571,12,cs),
(533,12,o),
(487,24,o),
(487,204,cs),
(487,359,o),
(555,395,o),
(641,395,cs),
(666,395,o),
(708,394,o),
(739,393,c),
(739,438,l),
(706,439,o),
(685,440,o),
(660,440,cs),
(364,440,o),
(95,307,o),
(95,148,cs)
);
},
{
closed = 1;
nodes = (
(476,607,o),
(491,575,o),
(513,552,c),
(510,547,l),
(461,567,o),
(427,604,o),
(427,644,cs,{
name = hr01;
}),
(427,684,o),
(461,722,o),
(510,741,c),
(513,736,l),
(491,713,o),
(476,681,o),
(476,644,cs)
);
},
{
closed = 1;
nodes = (
(229,37,o),
(155,76,o),
(155,148,cs),
(155,250,o),
(273,340,o),
(436,385,c),
(440,377,l),
(311,330,o),
(220,244,o),
(220,148,cs,{
name = hr02;
}),
(220,86,o),
(266,48,o),
(336,26,c),
(334,17,l)
);
}
);
width = 1092;
}
);
unicode = 191;
},
{
glyphname = bullet;
layers = (
{
layerId = master01;
shapes = (
{
closed = 1;
nodes = (
(465,181,l),
(465,472,l),
(90,472,l),
(90,181,l,{
name = hr00;
})
);
},
{
closed = 1;
nodes = (
(157,221,l),
(157,432,l),
(222,432,l),
(222,221,l)
);
}
);
width = 555;
}
);
unicode = 8226;
},
{
glyphname = asterisk;
layers = (
{
layerId = master01;
shapes = (
{
closed = 1;
nodes = (
(442,699,o),
(364,539,o),
(338,539,cs),
(314,539,o),
(235,699,o),
(235,740,cs),
(235,780,o),
(272,801,o),
(338,801,cs),
(404,801,o),
(442,780,o),
(442,740,cs)
);
},
{
closed = 1;
nodes = (
(310,499,o),
(185,480,o),
(121,480,cs),
(76,480,o),
(50,500,o),
(50,542,cs),
(50,626,o),
(101,683,o),
(135,683,cs),
(177,683,o),
(310,554,o),
(310,522,cs)
);
},
{
closed = 1;
nodes = (
(366,554,o),
(499,683,o),
(541,683,cs),
(575,683,o),
(626,626,o),
(626,542,cs),
(626,500,o),
(600,480,o),
(555,480,cs),
(491,480,o),
(366,499,o),
(366,522,cs)
);
},
{
closed = 1;
nodes = (
(328,390,o),
(303,274,o),
(275,251,cs),
(268,245,o),
(257,243,o),
(245,243,cs),
(210,243,o),
(160,265,o),
(124,315,cs),
(114,328,o),
(110,340,o),
(110,352,cs),
(110,414,o),
(282,487,o),
(315,487,cs),
(327,487,o),
(328,461,o),
(328,451,cs)
);
},
{
closed = 1;
nodes = (
(405,488,o),
(553,408,o),
(565,370,cs),
(566,366,o),
(567,362,o),
(567,358,cs),
(567,324,o),
(528,269,o),
(457,246,cs),
(449,243,o),
(441,242,o),
(434,242,cs),
(407,242,o),
(387,261,o),
(377,294,cs),
(363,337,o),
(349,410,o),
(349,453,cs),
(349,468,o),
(349,488,o),
(364,488,cs)
);
},
{
closed = 1;
nodes = (
(282,779,o),
(269,764,o),
(269,745,cs),
(269,716,o),
(311,615,o),
(338,567,c),
(358,598,l),
(332,651,o),
(300,728,o),
(299,751,cs),
(299,758,o),
(303,768,o),
(313,775,c),
(310,784,l)
);
},
{
closed = 1;
nodes = (
(70,566,o),
(69,562,o),
(69,557,cs),
(69,521,o),
(96,512,o),
(135,512,cs),
(181,512,o),
(244,519,o),
(284,528,c),
(261,556,l),
(221,550,o),
(173,544,o),
(134,544,cs),
(112,544,o),
(86,545,o),
(81,569,c),
(70,568,l)
);
},
{
closed = 1;
nodes = (
(161,316,o),
(161,319,o),
(161,323,cs),
(161,354,o),
(279,416,o),
(303,427,c),
(305,464,l),
(204,412,o),
(138,372,o),
(138,339,cs),
(138,324,o),
(146,315,o),
(154,307,c),
(164,310,l,{
name = hr01;
})
);
},
{
closed = 1;
nodes = (
(439,282,o),
(416,368,o),
(406,451,c),
(372,464,l),
(379,392,o),
(402,266,o),
(451,266,cs),
(462,266,o),
(469,268,o),
(476,272,c),
(476,282,l)
);
},
{
closed = 1;
nodes = (
(591,545,o),
(564,544,o),
(542,544,cs),
(503,544,o),
(455,550,o),
(415,556,c),
(392,528,l),
(432,519,o),
(495,512,o),
(541,512,cs),
(584,512,o),
(607,521,o),
(607,555,cs),
(607,559,o),
(607,562,o),
(606,568,c),
(596,570,l)
);
}
);
width = 676;
}
);
unicode = 42;
},
{
glyphname = numbersign;
layers = (
{
layerId = master01;
shapes = (
{
closed = 1;
nodes = (
(330,700,l),
(129,-50,l),
(209,-50,l),
(410,700,l,{
name = hr00;
})
);
},
{
closed = 1;
nodes = (
(630,700,l),
(429,-50,l),
(509,-50,l),
(710,700,l)
);
},
{
closed = 1;
nodes = (
(50,155,l),
(699,155,l),
(720,235,l),
(71,235,l)
);
},
{
closed = 1;
nodes = (
(119,415,l),
(769,415,l),
(790,495,l),
(140,495,l)
);
}
);
width = 840;
}
);
unicode = 35;
},
{
glyphname = slash;
layers = (
{
layerId = master01;
shapes = (
{
closed = 1;
nodes = (
(532,670,l),
(450,670,l),
(50,-52,l),
(132,-52,l,{
name = hr00;
})
);
}
);
width = 582;
}
);
unicode = 47;
},
{
glyphname = backslash;
layers = (
{
layerId = master01;
shapes = (
{
closed = 1;
nodes = (
(132,670,l),
(50,670,l),
(450,-52,l),
(532,-52,l,{
name = hr00;
})
);
}
);
width = 582;
}
);
unicode = 92;
},
{
glyphname = hyphen;
layers = (
{
layerId = master01;
shapes = (
{
closed = 1;
nodes = (
(100,343,l),
(100,263,l),
(640,263,l),
(640,343,l,{
name = hr00;
})
);
}
);
width = 740;
}
);
unicode = 45;
},
{
glyphname = endash;
layers = (
{
layerId = master01;
shapes = (
{
closed = 1;
nodes = (
(100,343,l),
(100,263,l),
(910,263,l),
(910,343,l,{
name = hr00;
})
);
}
);
width = 1010;
}
);
unicode = 8211;
},
{
glyphname = emdash;
layers = (
{
layerId = master01;
shapes = (
{
closed = 1;
nodes = (
(100,343,l),
(100,263,l),
(1112,263,l),
(1112,343,l,{
name = hr00;
})
);
}
);
width = 1212;
}
);
unicode = 8212;
},
{
glyphname = parenleft;
layers = (
{
layerId = master01;
shapes = (
{
closed = 1;
nodes = (
(498,667,o),
(684,683,o),
(684,683,c),
(684,737,l),
(334,684,o),
(120,526,o),
(120,310,cs),
(120,94,o),
(334,-64,o),
(684,-117,c),
(684,-63,l),
(684,-63,o),
(498,-47,o),
(498,312,cs,{
name = hr00;
})
);
},
{
closed = 1;
nodes = (
(183,472,o),
(327,597,o),
(539,669,c),
(542,662,l),
(383,590,o),
(256,469,o),
(256,310,cs),
(256,151,o),
(383,30,o),
(542,-42,c),
(539,-49,l),
(327,23,o),
(183,148,o),
(183,310,cs)
);
}
);
width = 805;
}
);
unicode = 40;
},
{
glyphname = parenright;
layers = (
{
layerId = master01;
shapes = (
{
closed = 1;
nodes = (
(301,-47,o),
(115,-63,o),
(115,-63,c),
(115,-117,l),
(465,-64,o),
(679,94,o),
(679,310,cs),
(679,526,o),
(465,684,o),
(115,737,c),
(115,683,l),
(115,683,o),
(301,667,o),
(301,308,cs,{
name = hr00;
})
);
},
{
closed = 1;
nodes = (
(436,122,o),
(326,8,o),
(268,-31,c),
(261,-25,l),
(304,16,o),
(363,109,o),
(363,308,cs),
(363,507,o),
(304,600,o),
(261,641,c),
(268,647,l),
(326,608,o),
(436,494,o),
(436,308,cs)
);
}
);
width = 800;
}
);
unicode = 41;
},
{
glyphname = braceleft;
layers = (
{
layerId = master01;
shapes = (
{
closed = 1;
nodes = (
(113,281,o),
(144,267,o),
(144,192,cs),
(144,103,o),
(226,-117,o),
(684,-117,c),
(684,-63,l),
(684,-63,o),
(498,-54,o),
(498,139,cs),
(498,291,o),
(441,302,o),
(357,302,c),
(357,318,l),
(441,318,o),
(498,329,o),
(498,481,cs),
(498,674,o),
(684,683,o),
(684,683,c),
(684,737,l),
(226,737,o),
(144,517,o),
(144,428,cs),
(144,353,o),
(113,339,o),
(43,339,c),
(43,281,l,{
name = hr00;
})
);
},
{
closed = 1;
nodes = (
(189,324,o),
(209,349,o),
(209,404,cs),
(209,544,o),
(280,634,o),
(481,682,c),
(483,675,l),
(314,611,o),
(282,563,o),
(282,404,cs),
(282,344,o),
(244,317,o),
(189,310,c),
(244,303,o),
(282,275,o),
(282,216,cs),
(282,57,o),
(314,9,o),
(483,-55,c),
(481,-62,l),
(280,-14,o),
(209,76,o),
(209,216,cs),
(209,271,o),
(189,296,o),
(163,306,c),
(163,314,l)
);
}
);
width = 805;
}
);
unicode = 123;
},
{
glyphname = braceright;
layers = (
{
layerId = master01;
shapes = (
{
closed = 1;
nodes = (
(692,281,o),
(661,267,o),
(661,192,cs),
(661,103,o),
(579,-117,o),
(121,-117,c),
(121,-63,l),
(121,-63,o),
(307,-54,o),
(307,139,cs),
(307,291,o),
(364,302,o),
(448,302,c),
(448,318,l),
(364,318,o),
(307,329,o),
(307,481,cs),
(307,674,o),
(121,683,o),
(121,683,c),
(121,737,l),
(579,737,o),
(661,517,o),
(661,428,cs),
(661,353,o),
(692,339,o),
(762,339,c),
(762,281,l,{
name = hr00;
})
);
},
{
closed = 1;
nodes = (
(472,356,o),
(452,381,o),
(452,436,cs),
(452,576,o),
(401,646,o),
(220,694,c),
(218,687,l),
(347,643,o),
(379,595,o),
(379,436,cs),
(379,356,o),
(428,338,o),
(498,338,c),
(498,346,l)
);
},
{
closed = 1;
nodes = (
(428,282,o),
(379,264,o),
(379,184,cs),
(379,25,o),
(347,-23,o),
(218,-67,c),
(220,-74,l),
(401,-26,o),
(452,44,o),
(452,184,cs),
(452,239,o),
(472,264,o),
(498,274,c),
(498,282,l)
);
}
);
width = 805;
}
);
unicode = 125;
},
{
glyphname = bracketleft;
layers = (
{
layerId = master01;
shapes = (
{
closed = 1;
nodes = (
(495,621,o),
(544,670,o),
(604,670,cs),
(725,670,l),
(725,715,l),
(150,715,l),
(150,-95,l),
(725,-95,l),
(725,-52,l),
(604,-52,ls),
(544,-52,o),
(495,-24,o),
(495,56,cs),
(495,562,ls,{
name = hr00;
})
);
},
{
closed = 1;
nodes = (
(217,-52,l),
(217,670,l),
(282,670,l),
(282,-52,l)
);
}
);
width = 705;
}
);
unicode = 91;
},
{
glyphname = bracketright;
layers = (
{
layerId = master01;
shapes = (
{
closed = 1;
nodes = (
(220,621,o),
(171,670,o),
(111,670,cs),
(-10,670,l),
(-10,715,l),
(565,715,l),
(565,-95,l),
(-10,-95,l),
(-10,-52,l),
(111,-52,ls),
(171,-52,o),
(220,-24,o),
(220,56,cs),
(220,562,ls,{
name = hr00;
})
);
},
{
closed = 1;
nodes = (
(352,-52,l),
(352,670,l),
(287,670,l),
(287,-52,l)
);
}
);
width = 715;
}
);
unicode = 93;
},
{
glyphname = quotedblleft;
layers = (
{
layerId = master01;
shapes = (
{
closed = 1;
nodes = (
(174,383,o),
(189,353,o),
(211,332,c),
(208,328,l),
(150,345,o),
(125,380,o),
(125,416,cs),
(125,452,o),
(146,492,o),
(208,504,c),
(211,500,l),
(189,479,o),
(174,449,o),
(174,416,c)
);
},
{
closed = 1;
nodes = (
(372,290,o),
(464,347,o),
(464,416,cs,{
name = hr01;
}),
(464,485,o),
(372,541,o),
(258,541,cs),
(222,541,o),
(189,534,o),
(159,524,c),
(178,619,o),
(347,633,o),
(426,633,c),
(426,670,l),
(171,670,o),
(60,553,o),
(60,449,cs),
(60,365,o),
(131,290,o),
(258,290,cs)
);
},
{
closed = 1;
nodes = (
(638,383,o),
(653,353,o),
(675,332,c),
(672,328,l),
(614,345,o),
(589,380,o),
(589,416,cs),
(589,452,o),
(610,492,o),
(672,504,c),
(675,500,l),
(653,479,o),
(638,449,o),
(638,416,cs)
);
},
{
closed = 1;
nodes = (
(836,290,o),
(928,347,o),
(928,416,cs,{
name = hr02;
}),
(928,485,o),
(836,541,o),
(722,541,cs),
(686,541,o),
(653,534,o),
(623,524,c),
(642,619,o),
(811,633,o),
(890,633,c),
(890,670,l),
(635,670,o),
(524,553,o),
(524,449,cs),
(524,365,o),
(595,290,o),
(722,290,cs)
);
}
);
width = 988;
}
);
unicode = 8220;
},
{
glyphname = quotedblright;
layers = (
{
layerId = master01;
shapes = (
{
closed = 1;
nodes = (
(150,511,o),
(165,481,o),
(187,460,c),
(184,456,l),
(135,474,o),
(101,508,o),
(101,544,cs),
(101,580,o),
(135,614,o),
(184,632,c),
(187,628,l),
(165,607,o),
(150,577,o),
(150,544,cs,{
name = hr00;
})
);
},
{
closed = 1;
nodes = (
(614,511,o),
(629,481,o),
(651,460,c),
(648,456,l),
(599,474,o),
(565,508,o),
(565,544,cs),
(565,580,o),
(599,614,o),
(648,632,c),
(651,628,l),
(629,607,o),
(614,577,o),
(614,544,cs)
);
},
{
closed = 1;
nodes = (
(152,670,o),
(60,613,o),
(60,544,cs),
(60,475,o),
(152,419,o),
(266,419,cs),
(302,419,o),
(335,426,o),
(365,436,c),
(346,341,o),
(177,327,o),
(98,327,c),
(98,290,l),
(353,290,o),
(464,407,o),
(464,511,cs),
(464,595,o),
(393,670,o),
(266,670,cs)
);
},
{
closed = 1;
nodes = (
(616,670,o),
(524,613,o),
(524,544,cs),
(524,475,o),
(616,419,o),
(730,419,cs),
(766,419,o),
(799,426,o),
(829,436,c),
(810,341,o),
(641,327,o),
(562,327,c),
(562,290,l),
(817,290,o),
(928,407,o),
(928,511,cs),
(928,595,o),
(857,670,o),
(730,670,cs)
);
}
);
width = 988;
}
);
unicode = 8221;
},
{
glyphname = quoteleft;
layers = (
{
layerId = master01;
shapes = (
{
closed = 1;
nodes = (
(174,383,o),
(189,353,o),
(211,332,c),
(208,328,l),
(150,345,o),
(125,380,o),
(125,416,cs),
(125,452,o),
(146,492,o),
(208,504,c),
(211,500,l),
(189,479,o),
(174,449,o),
(174,416,c)
);
},
{
closed = 1;
nodes = (
(372,290,o),
(464,347,o),
(464,416,cs,{
name = hr01;
}),
(464,485,o),
(372,541,o),
(258,541,cs),
(222,541,o),
(189,534,o),
(159,524,c),
(178,619,o),
(347,633,o),
(426,633,c),
(426,670,l),
(171,670,o),
(60,553,o),
(60,449,cs),
(60,365,o),
(131,290,o),
(258,290,cs)
);
}
);
width = 524;
}
);
unicode = 8216;
},
{
glyphname = quoteright;
layers = (
{
layerId = master01;
shapes = (
{
closed = 1;
nodes = (
(150,511,o),
(165,481,o),
(187,460,c),
(184,456,l),
(135,474,o),
(101,508,o),
(101,544,cs),
(101,580,o),
(135,614,o),
(184,632,c),
(187,628,l),
(165,607,o),
(150,577,o),
(150,544,cs,{
name = hr00;
})
);
},
{
closed = 1;
nodes = (
(152,670,o),
(60,613,o),
(60,544,cs),
(60,475,o),
(152,419,o),
(266,419,cs),
(302,419,o),
(335,426,o),
(365,436,c),
(346,341,o),
(177,327,o),
(98,327,c),
(98,290,l),
(353,290,o),
(464,407,o),
(464,511,cs),
(464,595,o),
(393,670,o),
(266,670,cs)
);
}
);
width = 524;
}
);
unicode = 8217;
},
{
glyphname = guillemotleft;
layers = (
{
layerId = master01;
shapes = (
{
closed = 1;
nodes = (
(273,8,l),
(273,255,l),
(161,359,l),
(273,462,l),
(273,549,l),
(0,300,l),
(0,258,l,{
name = hr00;
})
);
},
{
closed = 1;
nodes = (
(235,119,l),
(66,272,l),
(100,303,l),
(235,181,l)
);
},
{
closed = 1;
nodes = (
(598,8,l),
(598,255,l),
(486,359,l),
(598,462,l),
(598,549,l),
(325,300,l),
(325,258,l)
);
},
{
closed = 1;
nodes = (
(560,119,l),
(391,272,l),
(425,303,l),
(560,181,l)
);
}
);
width = 678;
}
);
unicode = 171;
},
{
glyphname = guillemotright;
layers = (
{
layerId = master01;
shapes = (
{
closed = 1;
nodes = (
(80,549,l),
(80,302,l),
(192,198,l),
(80,95,l),
(80,8,l),
(353,257,l),
(353,299,l,{
name = hr00;
})
);
},
{
closed = 1;
nodes = (
(118,383,l),
(256,256,l),
(222,225,l),
(118,321,l)
);
},
{
closed = 1;
nodes = (
(405,549,l),
(405,302,l),
(517,198,l),
(405,95,l),
(405,8,l),
(678,257,l),
(678,299,l)
);
},
{
closed = 1;
nodes = (
(443,383,l),
(581,256,l),
(547,225,l),
(443,321,l)
);
}
);
width = 678;
}
);
unicode = 187;
},
{
glyphname = guilsinglleft;
layers = (
{
layerId = master01;
shapes = (
{
closed = 1;
nodes = (
(273,8,l),
(273,255,l),
(161,359,l),
(273,462,l),
(273,549,l),
(0,300,l),
(0,258,l,{
name = hr00;
})
);
},
{
closed = 1;
nodes = (
(235,119,l),
(66,272,l),
(100,303,l),
(235,181,l)
);
}
);
width = 353;
}
);
unicode = 8249;
},
{
glyphname = guilsinglright;
layers = (
{
layerId = master01;
shapes = (
{
closed = 1;
nodes = (
(80,549,l),
(80,302,l),
(192,198,l),
(80,95,l),
(80,8,l),
(353,257,l),
(353,299,l,{
name = hr00;
})
);
},
{
closed = 1;
nodes = (
(118,383,l),
(256,256,l),
(222,225,l),
(118,321,l)
);
}
);
width = 353;
}
);
unicode = 8250;
},
{
glyphname = quotedbl;
layers = (
{
layerId = master01;
shapes = (
{
closed = 1;
nodes = (
(361,533,o),
(243,293,o),
(205,293,cs),
(169,293,o),
(50,533,o),
(50,594,cs),
(50,654,o),
(105,687,o),
(205,687,cs),
(305,687,o),
(361,654,o),
(361,594,cs,{
name = hr00;
})
);
},
{
closed = 1;
nodes = (
(120,648,o),
(102,629,o),
(102,604,cs),
(102,562,o),
(165,405,o),
(205,335,c),
(229,374,l),
(191,450,o),
(140,576,o),
(139,614,cs),
(139,626,o),
(145,640,o),
(159,651,c),
(157,657,l)
);
},
{
closed = 1;
nodes = (
(744,533,o),
(626,293,o),
(588,293,cs),
(552,293,o),
(433,533,o),
(433,594,cs),
(433,654,o),
(488,687,o),
(588,687,cs),
(687,687,o),
(744,654,o),
(744,594,cs)
);
},
{
closed = 1;
nodes = (
(503,648,o),
(485,629,o),
(485,604,cs),
(485,562,o),
(548,405,o),
(588,335,c),
(612,374,l),
(573,450,o),
(523,576,o),
(522,614,cs),
(522,626,o),
(528,640,o),
(542,651,c),
(540,657,l)
);
}
);
width = 794;
}
);
unicode = 34;
},
{
glyphname = quotesingle;
layers = (
{
layerId = master01;
shapes = (
{
closed = 1;
nodes = (
(361,533,o),
(243,293,o),
(205,293,cs),
(169,293,o),
(50,533,o),
(50,594,cs),
(50,654,o),
(105,687,o),
(205,687,cs),
(304,687,o),
(361,654,o),
(361,594,cs,{
name = hr00;
})
);
},
{
closed = 1;
nodes = (
(120,648,o),
(102,629,o),
(102,604,cs),
(102,562,o),
(165,405,o),
(205,335,c),
(229,374,l),
(190,450,o),
(140,576,o),
(139,614,cs),
(139,626,o),
(145,640,o),
(159,651,c),
(157,657,l)
);
}
);
width = 411;
}
);
unicode = 39;
},
{
glyphname = florin;
layers = (
{
layerId = master01;
shapes = (
{
closed = 1;
nodes = (
(606,391,o),
(647,414,o),
(696,414,cs),
(822,414,l),
(822,464,l),
(600,464,ls),
(500,464,o),
(397,496,o),
(397,673,c),
(414,682,l),
(436,639,o),
(497,584,o),
(587,584,cs),
(689,584,o),
(770,645,o),
(770,721,cs),
(770,795,o),
(691,855,o),
(592,855,cs),
(424,855,o),
(333,715,o),
(246,464,c),
(246,464,o),
(23,464,o),
(23,464,c),
(23,414,l),
(179,414,ls),
(228,414,o),
(269,373,o),
(269,325,cs),
(269,-68,ls),
(269,-116,o),
(228,-154,o),
(179,-154,cs),
(73,-154,l),
(73,-199,l),
(418,-199,ls),
(548,-199,o),
(606,-129,o),
(606,0,cs),
(606,325,ls,{
name = hr00;
})
);
},
{
closed = 1;
nodes = (
(485,684,o),
(496,651,o),
(517,625,c),
(472,644,o),
(440,680,o),
(440,721,cs),
(440,760,o),
(472,796,o),
(517,815,c),
(496,791,o),
(485,758,o),
(485,721,cs)
);
},
{
closed = 1;
nodes = (
(382,-83,o),
(366,-139,o),
(258,-162,c),
(256,-155,l),
(321,-129,o),
(331,-79,o),
(331,-43,cs),
(331,301,ls),
(331,337,o),
(321,387,o),
(256,413,c),
(258,420,l),
(366,397,o),
(382,341,o),
(382,301,cs),
(382,-43,ls)
);
}
);
width = 852;
}
);
unicode = 402;
},
{
glyphname = apple;
layers = (
{
layerId = master01;
shapes = (
{
closed = 1;
nodes = (
(559,-88,o),
(563,-88,o),
(566,-88,cs),
(574,-88,o),
(581,-89,o),
(589,-89,cs),
(615,-89,o),
(617,-70,o),
(634,-60,cs),
(649,-52,o),
(670,-51,o),
(683,-42,cs),
(696,-33,o),
(701,-11,o),
(713,1,cs),
(723,11,o),
(739,12,o),
(748,23,cs),
(759,36,o),
(758,60,o),
(766,74,cs),
(776,91,o),
(800,92,o),
(800,120,cs),
(800,130,o),
(798,141,o),
(798,152,cs),
(798,177,o),
(820,180,o),
(823,200,c),
(823,214,o),
(812,229,o),
(812,244,cs,{
name = hr01;
}),
(812,257,o),
(823,269,o),
(823,283,cs),
(823,305,o),
(799,319,o),
(799,344,cs),
(799,352,o),
(800,360,o),
(800,369,cs,{
name = hr02;
}),
(800,397,o),
(775,400,o),
(764,418,cs),
(758,428,o),
(763,450,o),
(757,460,cs),
(746,479,o),
(720,483,o),
(706,496,cs),
(694,508,o),
(696,526,o),
(683,535,cs),
(669,545,o),
(653,542,o),
(638,550,cs),
(619,560,o),
(617,586,o),
(590,586,cs),
(580,586,o),
(570,583,o),
(562,583,cs),
(538,583,o),
(531,608,o),
(505,608,cs,{
name = hr03;
}),
(491,608,o),
(474,596,o),
(460,596,cs),
(447,596,o),
(429,608,o),
(416,608,cs),
(394,608,o),
(386,585,o),
(361,585,cs),
(352,585,o),
(343,587,o),
(335,587,cs),
(310,586,o),
(303,558,o),
(286,549,cs),
(270,541,o),
(248,543,o),
(235,532,cs),
(224,522,o),
(220,501,o),
(210,491,cs),
(199,480,o),
(178,480,o),
(170,467,cs),
(163,456,o),
(166,435,o),
(159,424,cs),
(149,407,o),
(124,401,o),
(124,376,cs),
(124,368,o),
(125,359,o),
(125,351,cs),
(125,332,o),
(100,311,o),
(100,290,cs,{
name = hr04;
}),
(100,275,o),
(112,265,o),
(112,248,cs),
(112,233,o),
(100,218,o),
(100,204,cs),
(100,183,o),
(125,168,o),
(125,149,cs),
(125,141,o),
(122,133,o),
(122,124,cs),
(122,98,o),
(148,87,o),
(156,75,cs),
(167,57,o),
(160,46,o),
(171,28,cs),
(181,12,o),
(197,15,o),
(210,4,cs),
(223,-7,o),
(222,-31,o),
(240,-42,cs),
(256,-52,o),
(263,-43,o),
(286,-55,cs),
(299,-62,o),
(311,-91,o),
(337,-91,cs),
(344,-91,o),
(353,-89,o),
(361,-89,cs),
(385,-89,o),
(396,-114,o),
(416,-114,cs,{
name = hr05;
}),
(431,-114,o),
(446,-102,o),
(462,-102,cs),
(477,-102,o),
(493,-112,o),
(508,-112,cs),
(525,-112,o),
(538,-94,o),
(556,-89,cs)
);
},
{
closed = 1;
nodes = (
(517,0,o),
(507,-13,o),
(495,-13,cs,{
name = hr07;
}),
(484,-13,o),
(473,-6,o),
(462,-6,cs),
(450,-6,o),
(438,-15,o),
(426,-15,c,{
name = hr08;
}),
(412,-13,o),
(405,3,o),
(386,3,cs,{
name = hr09;
}),
(381,3,o),
(376,2,o),
(371,2,cs),
(352,2,o),
(345,23,o),
(334,28,cs),
(317,37,o),
(312,29,o),
(301,37,cs),
(288,45,o),
(289,63,o),
(279,71,cs),
(270,79,o),
(258,77,o),
(251,88,cs),
(243,101,o),
(248,110,o),
(240,123,cs),
(235,132,o),
(215,139,o),
(215,158,cs),
(215,163,o),
(217,169,o),
(217,174,cs),
(217,189,o),
(200,200,o),
(200,215,cs),
(200,226,o),
(208,237,o),
(208,248,cs),
(208,260,o),
(200,267,o),
(200,278,cs),
(200,294,o),
(217,308,o),
(217,324,cs),
(217,329,o),
(216,335,o),
(216,340,cs),
(216,359,o),
(235,363,o),
(242,376,cs),
(247,384,o),
(245,399,o),
(250,407,cs),
(257,416,o),
(271,416,o),
(279,424,cs),
(287,432,o),
(289,447,o),
(298,454,cs),
(307,462,o),
(323,460,o),
(334,466,cs),
(347,472,o),
(351,493,o),
(370,493,cs),
(376,493,o),
(381,492,o),
(387,492,cs),
(406,492,o),
(413,509,o),
(429,509,cs,{
name = hr10;
}),
(439,509,o),
(451,500,o),
(461,500,cs),
(471,500,o),
(483,509,o),
(494,509,cs),
(513,509,o),
(516,491,o),
(535,491,cs),
(541,491,o),
(548,493,o),
(555,493,cs,{
name = hr11;
}),
(575,493,o),
(576,474,o),
(589,467,cs),
(601,460,o),
(612,464,o),
(622,456,cs),
(632,449,o),
(630,436,o),
(639,428,cs),
(649,418,o),
(668,415,o),
(676,402,cs),
(680,394,o),
(677,379,o),
(681,371,cs),
(689,357,o),
(707,356,o),
(707,335,cs),
(707,329,o),
(706,323,o),
(706,318,cs),
(706,300,o),
(724,289,o),
(724,273,cs),
(724,264,o),
(716,254,o),
(716,245,cs),
(716,234,o),
(724,223,o),
(724,213,c),
(721,199,o),
(706,196,o),
(706,177,cs),
(706,171,o),
(707,164,o),
(707,157,cs),
(707,133,o),
(691,136,o),
(683,122,cs),
(677,111,o),
(677,94,o),
(670,84,cs),
(663,76,o),
(651,76,o),
(644,68,cs),
(636,60,o),
(632,45,o),
(622,38,cs),
(613,31,o),
(597,30,o),
(587,24,c),
(575,19,o),
(574,3,o),
(554,3,cs),
(549,3,o),
(544,4,o),
(539,4,cs),
(536,4,o),
(533,4,o),
(530,3,cs)
);
},
{
closed = 1;
nodes = (
(368,417,o),
(292,341,o),
(292,247,cs),
(292,153,o),
(368,77,o),
(462,77,cs),
(556,77,o),
(632,153,o),
(632,247,cs),
(632,341,o),
(556,417,o),
(462,417,cs)
);
},
{
closed = 1;
nodes = (
(505,117,l),
(420,117,l),
(420,292,l),
(366,292,l),
(366,360,l),
(557,360,l),
(557,292,l),
(505,292,l)
);
}
);
width = 923;
}
);
},
{
glyphname = at;
layers = (
{
layerId = master01;
shapes = (
{
closed = 1;
nodes = (
(818,631,o),
(851,559,o),
(851,525,cs),
(851,74,l),
(787,74,l),
(787,525,ls),
(787,556,o),
(779,619,o),
(723,641,c),
(726,651,l,{
name = hr00;
})
);
},
{
closed = 1;
nodes = (
(230,694,o),
(50,471,o),
(50,244,cs),
(50,13,o),
(239,-222,o),
(618,-222,cs),
(965,-222,o),
(1248,20,o),
(1248,317,c),
(1188,317,l),
(1188,53,o),
(932,-162,o),
(618,-162,cs),
(382,-162,o),
(276,34,o),
(276,233,cs),
(276,437,o),
(388,644,o),
(587,644,cs),
(723,644,o),
(735,547,o),
(735,496,cs),
(735,101,l),
(745,83,l),
(775,18,l),
(1021,18,l),
(1021,497,ls),
(1021,666,o),
(820,694,o),
(587,694,cs)
);
},
{
closed = 1;
nodes = (
(755,124,o),
(722,116,o),
(694,116,cs),
(628,116,o),
(600,172,o),
(600,229,cs),
(600,290,o),
(631,356,o),
(695,356,cs),
(724,356,o),
(747,355,o),
(781,352,c),
(777,403,l),
(719,407,o),
(707,409,o),
(600,409,cs),
(437,409,o),
(362,307,o),
(362,205,cs),
(362,102,o),
(438,-1,o),
(575,-1,cs),
(649,-1,o),
(729,38,o),
(787,107,c),
(787,139,l)
);
},
{
closed = 1;
nodes = (
(190,-64,o),
(110,100,o),
(110,244,cs),
(110,389,o),
(190,549,o),
(314,604,c),
(317,596,l),
(234,533,o),
(174,394,o),
(174,244,cs),
(174,93,o),
(235,-46,o),
(318,-110,c),
(315,-118,l)
);
},
{
closed = 1;
nodes = (
(462,152,o),
(487,83,o),
(550,41,c),
(548,34,l),
(462,68,o),
(412,136,o),
(412,205,cs),
(412,274,o),
(462,341,o),
(548,376,c),
(550,369,l),
(487,327,o),
(462,257,o),
(462,205,cs)
);
}
);
width = 1278;
}
);
unicode = 64;
},
{
glyphname = ampersand;
layers = (
{
layerId = master01;
shapes = (
{
closed = 1;
nodes = (
(960,313,l),
(1012,313,ls),
(1044,313,o),
(1057,307,o),
(1057,290,cs),
(1057,255,o),
(1017,213,o),
(955,173,c),
(889,232,o),
(838,302,o),
(804,365,c),
(966,397,o),
(1009,456,o),
(1009,496,cs),
(1009,551,o),
(935,595,o),
(820,595,cs),
(673,595,o),
(450,559,o),
(450,501,cs),
(450,466,o),
(459,425,o),
(474,383,c),
(117,379,o),
(0,285,o),
(0,175,cs),
(0,63,o),
(130,-23,o),
(412,-23,cs),
(529,-23,o),
(639,-1,o),
(739,31,c),
(771,11,o),
(802,0,o),
(830,0,cs,{
name = hr01;
}),
(1389,0,l),
(1389,43,l),
(1264,43,ls),
(1159,43,o),
(1067,84,o),
(991,143,c),
(1115,214,o),
(1200,285,o),
(1232,313,c),
(1389,313,l),
(1389,356,l),
(960,356,l)
);
},
{
closed = 1;
nodes = (
(422,33,o),
(362,70,o),
(362,178,cs),
(362,293,o),
(404,334,o),
(491,342,c),
(537,238,o),
(617,127,o),
(697,61,c),
(633,43,o),
(569,33,o),
(510,33,cs)
);
},
{
closed = 1;
nodes = (
(757,526,o),
(764,561,o),
(843,561,cs),
(921,561,o),
(938,527,o),
(938,498,cs),
(938,477,o),
(926,431,o),
(785,404,c),
(766,445,o),
(757,481,o),
(757,505,cs)
);
},
{
closed = 1;
nodes = (
(593,370,o),
(701,134,o),
(921,36,c),
(736,36,o),
(573,249,o),
(513,496,c),
(518,504,o),
(538,515,o),
(557,517,c)
);
},
{
closed = 1;
nodes = (
(82,84,o),
(50,130,o),
(50,176,cs),
(50,222,o),
(81,267,o),
(126,299,c),
(130,295,l),
(105,257,o),
(98,212,o),
(98,176,cs),
(98,140,o),
(105,94,o),
(130,56,c),
(126,53,l)
);
}
);
width = 1389;
}
);
unicode = 38;
},
{
glyphname = paragraph;
layers = (
{
layerId = master01;
shapes = (
{
closed = 1;
nodes = (
(544,272,o),
(500,261,o),
(463,261,cs),
(375,261,o),
(338,336,o),
(338,411,cs),
(338,492,o),
(369,580,o),
(464,580,cs),
(573,580,l),
(573,650,l),
(338,650,ls),
(122,650,o),
(22,515,o),
(22,379,cs),
(22,243,o),
(123,106,o),
(305,106,cs),
(403,106,o),
(509,158,o),
(586,249,c),
(586,292,l,{
name = hr00;
})
);
},
{
closed = 1;
nodes = (
(155,309,o),
(188,217,o),
(272,162,c),
(269,152,l),
(155,198,o),
(88,288,o),
(88,379,cs),
(88,471,o),
(155,560,o),
(269,606,c),
(272,597,l),
(188,541,o),
(155,448,o),
(155,379,cs)
);
},
{
closed = 1;
nodes = (
(661,-68,o),
(624,-102,o),
(597,-113,c),
(597,571,ls),
(597,670,o),
(634,704,o),
(661,715,c),
(661,31,ls)
);
},
{
closed = 1;
nodes = (
(624,801,o),
(530,719,o),
(530,583,cs),
(530,-48,ls),
(530,-128,o),
(480,-156,o),
(421,-156,cs),
(409,-156,o),
(396,-155,o),
(388,-154,c),
(383,-194,l),
(416,-197,o),
(451,-199,o),
(487,-199,cs),
(826,-199,o),
(920,-117,o),
(920,19,cs),
(920,650,ls),
(920,730,o),
(970,758,o),
(1029,758,cs),
(1041,758,o),
(1054,757,o),
(1062,756,c),
(1067,796,l),
(1034,799,o),
(999,801,o),
(963,801,cs)
);
}
);
width = 1117;
}
);
unicode = 182;
},
{
glyphname = section;
layers = (
{
layerId = master01;
shapes = (
{
closed = 1;
nodes = (
(175,567,o),
(340,505,o),
(506,467,cs),
(680,427,o),
(844,414,o),
(844,300,cs),
(844,297,o),
(839,298,o),
(839,295,c),
(790,350,o),
(730,365,o),
(604,394,cs),
(296,465,o),
(152,521,o),
(152,614,cs),
(152,630,o),
(155,647,o),
(165,665,c),
(172,665,l)
);
},
{
closed = 1;
nodes = (
(175,167,o),
(340,105,o),
(506,67,cs),
(680,27,o),
(844,14,o),
(844,-100,cs),
(844,-103,o),
(839,-102,o),
(839,-105,c),
(790,-50,o),
(730,-35,o),
(604,-6,cs),
(296,65,o),
(152,121,o),
(152,214,cs),
(152,230,o),
(155,247,o),
(165,265,c),
(172,265,l)
);
},
{
closed = 1;
nodes = (
(1011,668,o),
(386,599,o),
(386,711,cs),
(386,751,o),
(432,761,o),
(490,761,cs),
(610,761,o),
(836,690,o),
(936,593,c),
(980,593,l),
(980,784,l),
(935,784,l),
(931,773,o),
(924,759,o),
(920,741,c),
(809,770,o),
(670,801,o),
(485,801,cs),
(337,801,o),
(95,798,o),
(95,602,cs),
(95,496,o),
(242,440,o),
(396,399,c),
(256,393,o),
(95,362,o),
(95,202,cs),
(95,-19,o),
(742,-26,o),
(742,-119,cs,{
name = hr01;
}),
(742,-152,o),
(668,-158,o),
(604,-158,cs),
(385,-158,o),
(174,-18,o),
(139,63,c),
(94,63,l),
(94,-181,l),
(139,-181,l),
(162,-132,l),
(299,-173,o),
(423,-199,o),
(605,-199,cs),
(852,-199,o),
(1011,-142,o),
(1011,-2,cs),
(1011,123,o),
(875,176,o),
(731,207,c),
(904,224,o),
(1011,283,o),
(1011,398,cs)
);
},
{
closed = 1;
nodes = (
(742,248,o),
(668,242,o),
(604,242,cs),
(561,242,o),
(386,249,o),
(386,311,cs),
(386,351,o),
(432,361,o),
(490,361,cs),
(512,361,o),
(742,343,o),
(742,281,cs)
);
},
{
closed = 1;
nodes = (
(396,381,l),
(396,427,l),
(366,427,l),
(366,381,l)
);
},
{
closed = 1;
nodes = (
(761,183,l),
(761,231,l),
(731,231,l),
(731,183,l)
);
}
);
width = 1105;
}
);
unicode = 167;
},
{
glyphname = copyright;
layers = (
{
layerId = master01;
shapes = (
{
closed = 1;
nodes = (
(80,581,o),
(219,688,o),
(388,688,cs),
(557,688,o),
(695,581,o),
(695,457,cs),
(695,333,o),
(557,226,o),
(388,226,cs),
(219,226,o),
(80,333,o),
(80,457,cs)
);
},
{
closed = 1;
nodes = (
(524,361,o),
(535,372,o),
(535,380,cs),
(535,387,o),
(531,388,o),
(528,388,cs),
(517,388,o),
(487,339,o),
(411,339,cs),
(367,339,o),
(352,362,o),
(352,415,cs),
(352,415,o),
(352,503,o),
(352,525,cs),
(352,558,o),
(362,583,o),
(397,583,cs),
(445,583,o),
(491,535,o),
(507,495,c),
(521,495,l),
(521,591,l),
(507,591,l),
(507,571,l),
(476,586,o),
(439,601,o),
(399,601,cs),
(315,601,o),
(217,563,o),
(217,462,cs,{
name = hr01;
}),
(217,363,o),
(307,322,o),
(410,322,cs),
(455,322,o),
(484,335,o),
(504,348,cs)
);
},
{
closed = 1;
nodes = (
(45,311,o),
(199,192,o),
(388,192,cs),
(577,192,o),
(730,311,o),
(730,457,cs),
(730,603,o),
(577,722,o),
(388,722,cs),
(199,722,o),
(45,603,o),
(45,457,cs,{
name = hr02;
})
);
}
);
width = 775;
}
);
unicode = 169;
},
{
glyphname = registered;
layers = (
{
layerId = master01;
shapes = (
{
closed = 1;
nodes = (
(80,581,o),
(219,688,o),
(388,688,cs),
(557,688,o),
(695,581,o),
(695,457,cs),
(695,333,o),
(557,226,o),
(388,226,cs),
(219,226,o),
(80,333,o),
(80,457,cs)
);
},
{
closed = 1;
nodes = (
(533,451,o),
(596,459,o),
(596,519,cs),
(596,583,o),
(534,591,o),
(490,591,cs),
(168,591,l),
(168,574,l,{
name = hr01;
}),
(204,574,ls),
(222,574,o),
(237,554,o),
(237,530,cs),
(237,392,ls),
(237,360,o),
(222,348,o),
(204,348,cs),
(168,348,l),
(168,331,l,{
name = hr02;
}),
(409,331,l),
(409,348,l,{
name = hr03;
}),
(387,348,ls),
(369,348,o),
(354,360,o),
(354,392,cs),
(354,422,ls),
(354,441,o),
(354,450,o),
(363,450,cs),
(370,450,o),
(379,433,o),
(379,433,cs),
(439,331,l,{
name = hr04;
}),
(617,331,l),
(617,348,l,{
name = hr05;
}),
(582,348,l),
(538,423,l),
(508,427,o),
(490,437,o),
(482,445,c),
(482,449,l)
);
},
{
closed = 1;
nodes = (
(354,565,o),
(361,574,o),
(369,574,cs,{
name = hr06;
}),
(369,574,o),
(388,574,o),
(405,574,cs),
(421,574,o),
(454,559,o),
(454,518,cs),
(454,483,o),
(428,471,o),
(403,471,cs),
(378,471,o),
(354,482,o),
(354,496,cs),
(354,553,ls)
);
},
{
closed = 1;
nodes = (
(45,311,o),
(199,192,o),
(388,192,cs,{
name = hr07;
}),
(577,192,o),
(730,311,o),
(730,457,cs),
(730,603,o),
(577,722,o),
(388,722,cs),
(199,722,o),
(45,603,o),
(45,457,cs)
);
}
);
width = 775;
}
);
unicode = 174;
},
{
glyphname = trademark;
layers = (
{
layerId = master01;
shapes = (
{
closed = 1;
nodes = (
(446,617,o),
(535,496,o),
(535,496,c),
(559,496,l),
(559,657,l),
(40,657,l),
(40,496,l),
(56,496,l),
(56,496,o),
(144,617,o),
(175,617,cs),
(185,617,o),
(190,610,o),
(190,599,cs,{
name = hr01;
}),
(190,398,ls),
(190,361,o),
(167,348,o),
(137,348,cs),
(71,348,l),
(71,308,l),
(519,308,l),
(519,348,l),
(453,348,ls),
(423,348,o),
(400,361,o),
(400,398,cs),
(400,599,ls),
(400,610,o),
(405,617,o),
(416,617,cs)
);
},
{
closed = 1;
nodes = (
(230,348,l),
(230,618,l),
(270,618,l),
(270,348,l,{
name = hr02;
})
);
},
{
closed = 1;
nodes = (
(1256,618,l),
(1256,348,l),
(1215,348,l),
(1215,618,l)
);
},
{
closed = 1;
nodes = (
(1528,657,l),
(1171,657,l),
(1084,524,l),
(928,657,l),
(588,657,l),
(588,617,l),
(673,617,o),
(758,575,o),
(758,508,cs),
(758,462,ls),
(758,378,o),
(663,348,o),
(595,348,c),
(595,308,l),
(962,308,l),
(962,348,l),
(894,348,o),
(799,378,o),
(799,462,cs),
(799,517,l),
(994,352,l),
(1022,352,l),
(1074,431,o),
(1124,510,o),
(1175,589,c,{
name = hr03;
}),
(1175,397,ls),
(1175,361,o),
(1152,348,o),
(1124,348,cs),
(1057,348,l),
(1057,308,l),
(1528,308,l),
(1528,348,l),
(1438,348,ls),
(1409,348,o),
(1385,361,o),
(1385,397,cs),
(1385,583,ls),
(1385,608,o),
(1409,618,o),
(1438,618,cs),
(1528,618,l)
);
},
{
closed = 1;
nodes = (
(1001,409,l),
(750,617,l),
(811,617,l),
(1009,453,l),
(1009,409,l)
);
}
);
width = 1568;
}
);
unicode = 8482;
},
{
glyphname = degree;
layers = (
{
layerId = master01;
shapes = (
{
closed = 1;
nodes = (
(30,537,o),
(116,451,o),
(223,451,cs),
(330,451,o),
(417,537,o),
(417,644,cs),
(417,751,o),
(330,838,o),
(223,838,cs),
(116,838,o),
(30,751,o),
(30,644,cs,{
name = hr00;
})
);
},
{
closed = 1;
nodes = (
(90,718,o),
(149,778,o),
(223,778,cs),
(297,778,o),
(357,718,o),
(357,644,cs),
(357,570,o),
(297,511,o),
(223,511,cs),
(149,511,o),
(90,570,o),
(90,644,cs)
);
}
);
width = 447;
}
);
unicode = 176;
},
{
glyphname = bar;
layers = (
{
layerId = master01;
shapes = (
{
closed = 1;
nodes = (
(150,715,l),
(150,-95,l),
(215,-95,l),
(215,715,l,{
name = hr00;
})
);
}
);
width = 365;
}
);
unicode = 124;
},
{
glyphname = brokenbar;
layers = (
{
layerId = master01;
shapes = (
{
closed = 1;
nodes = (
(150,233,l),
(150,-95,l),
(215,-95,l),
(215,233,l,{
name = hr00;
})
);
},
{
closed = 1;
nodes = (
(150,715,l),
(150,387,l),
(215,387,l),
(215,715,l)
);
}
);
width = 365;
}
);
unicode = 166;
},
{
glyphname = dagger;
layers = (
{
layerId = master01;
shapes = (
{
closed = 1;
nodes = (
(360,806,l),
(360,629,ls),
(360,576,o),
(316,530,o),
(262,530,cs),
(63,530,l),
(63,447,l),
(266,447,ls),
(318,447,o),
(360,399,o),
(360,348,cs),
(360,-145,l),
(711,-145,l),
(711,348,ls),
(711,401,o),
(756,447,o),
(810,447,cs),
(1008,447,l),
(1008,530,l),
(810,530,ls),
(756,530,o),
(711,576,o),
(711,629,cs),
(711,806,l,{
name = hr00;
})
);
},
{
closed = 1;
nodes = (
(479,597,o),
(445,567,o),
(421,557,c),
(421,767,l),
(479,767,l),
(479,686,ls)
);
},
{
closed = 1;
nodes = (
(421,-106,l),
(421,420,l),
(445,410,o),
(479,380,o),
(479,290,cs),
(479,-106,l)
);
}
);
width = 1071;
}
);
unicode = 8224;
},
{
glyphname = uni2113;
layers = (
{
layerId = master01;
shapes = (
{
closed = 1;
nodes = (
(293,136,ls),
(293,70,o),
(314,37,o),
(346,21,c),
(345,13,l),
(284,24,o),
(242,56,o),
(242,136,cs),
(242,612,l),
(293,617,l,{
name = hr00;
})
);
},
{
closed = 1;
nodes = (
(179,606,l),
(179,136,ls),
(179,31,o),
(270,-22,o),
(382,-22,cs),
(494,-22,o),
(626,31,o),
(709,138,c),
(673,174,l),
(639,135,o),
(606,114,o),
(577,114,cs),
(542,114,o),
(516,142,o),
(516,205,cs),
(516,680,l),
(52,639,l),
(55,595,l)
);
}
);
width = 709;
}
);
unicode = 8467;
},
{
glyphname = daggerdbl;
layers = (
{
layerId = master01;
shapes = (
{
closed = 1;
nodes = (
(479,642,o),
(445,612,o),
(421,602,c),
(421,767,l),
(479,767,l),
(479,731,ls,{
name = hr00;
})
);
},
{
closed = 1;
nodes = (
(445,455,o),
(479,424,o),
(479,353,cs),
(479,307,ls),
(479,235,o),
(445,205,o),
(421,195,c),
(421,465,l)
);
},
{
closed = 1;
nodes = (
(360,216,o),
(318,168,o),
(266,168,cs),
(63,168,l),
(63,85,l),
(262,85,ls),
(316,85,o),
(360,39,o),
(360,-14,cs),
(360,-146,l),
(711,-146,l),
(711,-14,l),
(711,39,o),
(756,85,o),
(810,85,cs),
(1008,85,l),
(1008,168,l),
(810,168,ls),
(756,168,o),
(711,214,o),
(711,267,cs),
(711,393,ls),
(711,446,o),
(756,492,o),
(810,492,cs),
(1008,492,l),
(1008,575,l),
(810,575,ls),
(756,575,o),
(711,621,o),
(711,674,cs),
(711,806,l),
(360,806,l),
(360,674,ls),
(360,621,o),
(316,575,o),
(262,575,cs),
(63,575,l),
(63,492,l),
(266,492,ls),
(318,492,o),
(360,444,o),
(360,393,cs),
(360,267,ls)
);
},
{
closed = 1;
nodes = (
(421,-107,l),
(421,58,l),
(445,48,o),
(479,18,o),
(479,-71,cs),
(479,-107,l)
);
}
);
width = 1071;
}
);
unicode = 8225;
},
{
glyphname = estimated;
layers = (
{
layerId = master01;
shapes = (
{
closed = 1;
nodes = (
(157,78,l),
(198,39,o),
(247,19,o),
(302,19,cs),
(385,19,o),
(449,59,o),
(495,139,c),
(530,118,l),
(461,26,o),
(409,-17,o),
(302,-17,cs),
(138,-17,o),
(44,107,o),
(44,259,cs),
(44,422,o),
(142,535,o),
(302,535,cs),
(473,535,o),
(554,413,o),
(561,259,c),
(157,259,l,{
name = hr00;
})
);
},
{
closed = 1;
nodes = (
(448,440,l),
(406,480,o),
(357,500,o),
(301,500,cs),
(244,500,o),
(196,480,o),
(157,440,c),
(157,295,l),
(448,295,l)
);
}
);
width = 600;
}
);
unicode = 8494;
},
{
glyphname = Euro;
layers = (
{
layerId = master01;
shapes = (
{
closed = 1;
nodes = (
(1123,76,o),
(1160,103,o),
(1160,123,cs),
(1160,139,o),
(1145,143,o),
(1136,143,cs),
(1101,143,o),
(998,20,o),
(745,20,cs,{
name = hr01;
}),
(599,20,o),
(550,78,o),
(550,211,cs),
(550,481,ls),
(550,564,o),
(584,626,o),
(701,626,cs),
(858,626,o),
(1013,505,o),
(1065,407,c),
(1113,407,l),
(1113,646,l),
(1065,646,l),
(1065,596,l),
(963,633,o),
(840,670,o),
(706,670,cs),
(427,670,o),
(98,580,o),
(98,328,cs),
(98,80,o),
(398,-22,o),
(742,-22,cs),
(893,-22,o),
(989,9,o),
(1056,42,cs)
);
},
{
closed = 1;
nodes = (
(228,195,o),
(323,111,o),
(433,64,c),
(432,59,l),
(271,101,o),
(157,202,o),
(157,320,cs),
(157,449,o),
(271,560,o),
(432,605,c),
(433,600,l),
(323,549,o),
(228,457,o),
(228,320,c)
);
},
{
closed = 1;
nodes = (
(874,418,l),
(432,418,l),
(432,368,l),
(874,368,l)
);
},
{
closed = 1;
nodes = (
(874,290,l),
(432,290,l),
(432,240,l),
(874,240,l)
);
},
{
closed = 1;
nodes = (
(142,418,l),
(0,418,l),
(0,368,l),
(142,368,l)
);
},
{
closed = 1;
nodes = (
(142,290,l),
(0,290,l),
(0,240,l),
(142,240,l)
);
}
);
width = 1173;
}
);
unicode = 8364;
},
{
glyphname = cent;
layers = (
{
layerId = master01;
shapes = (
{
closed = 1;
nodes = (
(530,-110,l),
(530,47,l),
(480,47,l),
(480,-110,l,{
name = hr00;
})
);
},
{
closed = 1;
nodes = (
(530,597,l),
(530,760,l),
(480,760,l),
(480,597,l)
);
},
{
pos = (0,49);
ref = c;
}
);
width = 943;
}
);
unicode = 162;
},
{
glyphname = currency;
layers = (
{
layerId = master01;
shapes = (
{
closed = 1;
nodes = (
(757,447,o),
(616,540,o),
(395,540,cs),
(175,540,o),
(33,447,o),
(33,335,cs),
(33,220,o),
(196,128,o),
(395,128,cs),
(595,128,o),
(757,220,o),
(757,335,cs)
);
},
{
closed = 1;
nodes = (
(480,492,o),
(502,438,o),
(502,334,cs),
(502,228,o),
(462,175,o),
(395,175,cs),
(328,175,o),
(289,228,o),
(289,334,cs),
(289,438,o),
(312,492,o),
(395,492,cs)
);
},
{
closed = 1;
nodes = (
(185,465,o),
(127,402,o),
(127,335,cs,{
name = hr01;
}),
(127,268,o),
(190,206,o),
(282,178,c),
(282,172,l),
(166,197,o),
(82,261,o),
(82,335,cs),
(82,409,o),
(157,472,o),
(282,496,c),
(282,492,l)
);
},
{
closed = 1;
nodes = (
(603,267,o),
(571,224,o),
(535,185,c),
(549,230,o),
(559,282,o),
(559,335,cs),
(559,389,o),
(549,439,o),
(530,489,c),
(571,448,o),
(603,403,o),
(603,335,cs)
);
},
{
closed = 1;
nodes = (
(132,0,l),
(173,-29,l),
(308,166,l),
(247,166,l)
);
},
{
closed = 1;
nodes = (
(658,668,l),
(617,697,l),
(487,510,l),
(542,500,l)
);
},
{
closed = 1;
nodes = (
(617,-29,l),
(658,0,l),
(543,166,l),
(482,166,l)
);
},
{
closed = 1;
nodes = (
(173,697,l),
(132,668,l),
(248,500,l),
(303,510,l)
);
}
);
width = 790;
}
);
unicode = 164;
},
{
glyphname = dollar;
layers = (
{
layerId = master01;
shapes = (
{
closed = 1;
nodes = (
(634,-110,l),
(634,201,l),
(584,201,l),
(584,-110,l,{
name = hr00;
})
);
},
{
closed = 1;
nodes = (
(634,449,l),
(634,760,l),
(584,760,l),
(584,449,l)
);
},
{
ref = S;
}
);
width = 1261;
}
);
unicode = 36;
},
{
glyphname = franc;
layers = (
{
layerId = master01;
shapes = (
{
closed = 1;
nodes = (
(810,43,ls),
(725,43,o),
(692,54,o),
(692,147,cs),
(692,223,ls),
(692,266,o),
(711,313,o),
(779,313,cs),
(865,313,o),
(928,290,o),
(961,213,c),
(998,213,l),
(998,463,l),
(961,463,l),
(928,414,o),
(865,372,o),
(779,372,cs),
(701,372,o),
(692,434,o),
(692,474,cs),
(692,508,ls),
(692,565,o),
(733,606,o),
(804,606,cs),
(1050,606,o),
(1118,528,o),
(1180,463,c),
(1208,463,l),
(1208,650,l),
(73,650,l),
(73,607,l),
(193,607,ls),
(253,607,o),
(301,557,o),
(301,497,cs),
(301,152,ls),
(301,72,o),
(253,43,o),
(193,43,cs),
(73,43,l),
(73,0,l),
(910,0,l),
(910,43,l,{
name = hr00;
})
);
},
{
closed = 1;
nodes = (
(369,43,l),
(369,607,l),
(434,607,l),
(434,43,l)
);
},
{
closed = 1;
nodes = (
(365,148,l),
(365,198,l),
(171,198,l),
(171,148,l)
);
},
{
closed = 1;
nodes = (
(822,148,l),
(822,198,l),
(592,198,l),
(592,148,l)
);
}
);
width = 1235;
}
);
unicode = 8355;
},
{
glyphname = lira;
layers = (
{
layerId = master01;
shapes = (
{
closed = 1;
nodes = (
(715,85,o),
(812,61,o),
(915,61,cs),
(1031,61,o),
(1034,180,o),
(1063,180,cs),
(1083,180,o),
(1094,140,o),
(1094,105,cs),
(1094,50,o),
(1068,-22,o),
(970,-22,cs),
(875,-22,o),
(743,30,o),
(603,85,c),
(623,116,l)
);
},
{
closed = 1;
nodes = (
(396,142,o),
(339,150,o),
(289,150,cs),
(208,150,o),
(141,125,o),
(141,89,cs),
(141,51,o),
(192,32,o),
(250,32,cs),
(331,32,o),
(429,68,o),
(429,135,cs),
(429,250,o),
(151,369,o),
(151,508,cs),
(151,646,o),
(385,671,o),
(577,671,cs),
(768,671,o),
(922,610,o),
(922,610,c),
(922,671,l),
(970,671,l),
(970,486,l),
(921,486,l),
(780,598,o),
(684,619,o),
(591,619,cs),
(499,619,o),
(476,581,o),
(476,549,cs),
(476,457,o),
(772,364,o),
(772,175,cs),
(772,-18,o),
(486,-22,o),
(336,-22,cs),
(251,-22,o),
(45,-21,o),
(45,83,cs),
(45,137,o),
(130,192,o),
(289,192,cs),
(340,192,o),
(390,186,o),
(442,175,c),
(455,130,l)
);
},
{
closed = 1;
nodes = (
(477,39,o),
(536,88,o),
(536,164,cs),
(536,314,o),
(261,454,o),
(261,535,cs),
(261,565,o),
(275,589,o),
(287,602,c),
(284,607,l),
(261,598,o),
(218,573,o),
(218,523,cs),
(218,420,o),
(488,272,o),
(488,160,cs),
(488,84,o),
(428,49,o),
(396,36,c),
(398,30,l)
);
},
{
closed = 1;
nodes = (
(255,425,l),
(255,375,l),
(65,375,l),
(65,425,l)
);
},
{
closed = 1;
nodes = (
(858,425,l),
(858,375,l),
(572,375,l),
(572,425,l)
);
},
{
closed = 1;
nodes = (
(365,305,l),
(365,255,l),
(65,255,l),
(65,305,l)
);
},
{
closed = 1;
nodes = (
(858,305,l),
(858,255,l),
(592,255,l),
(592,305,l)
);
}
);
width = 1109;
}
);
unicode = 8356;
},
{
glyphname = sterling;
layers = (
{
layerId = master01;
shapes = (
{
closed = 1;
nodes = (
(754,84,o),
(832,61,o),
(915,61,cs),
(1031,61,o),
(1034,180,o),
(1063,180,cs),
(1083,180,o),
(1094,140,o),
(1094,105,cs),
(1094,50,o),
(1068,-22,o),
(970,-22,cs),
(890,-22,o),
(778,29,o),
(660,82,c),
(680,113,l)
);
},
{
closed = 1;
nodes = (
(403,177,o),
(361,185,o),
(324,185,cs),
(224,185,o),
(141,145,o),
(141,89,cs),
(141,51,o),
(192,32,o),
(250,32,cs),
(331,32,o),
(429,68,o),
(429,135,cs),
(429,250,o),
(151,369,o),
(151,508,cs),
(151,646,o),
(385,671,o),
(577,671,cs),
(768,671,o),
(922,610,o),
(922,610,c,{
name = hr01;
}),
(922,671,l),
(970,671,l),
(970,453,l),
(921,453,l),
(780,593,o),
(684,619,o),
(591,619,cs),
(499,619,o),
(476,581,o),
(476,549,cs),
(476,457,o),
(772,364,o),
(772,175,cs),
(772,-18,o),
(486,-22,o),
(336,-22,cs),
(251,-22,o),
(45,-21,o),
(45,83,cs),
(45,154,o),
(142,227,o),
(324,227,cs),
(360,227,o),
(396,221,o),
(433,210,c,{
name = hr02;
}),
(446,165,l)
);
},
{
closed = 1;
nodes = (
(477,39,o),
(536,88,o),
(536,164,cs),
(536,314,o),
(261,454,o),
(261,535,cs),
(261,565,o),
(275,589,o),
(287,602,c),
(284,607,l),
(261,598,o),
(218,573,o),
(218,523,cs),
(218,420,o),
(488,272,o),
(488,160,cs),
(488,84,o),
(428,49,o),
(396,36,c),
(398,30,l)
);
},
{
closed = 1;
nodes = (
(275,385,l),
(275,335,l),
(65,335,l),
(65,385,l)
);
},
{
closed = 1;
nodes = (
(858,385,l),
(858,335,l,{
name = hr03;
}),
(592,335,l),
(592,385,l)
);
}
);
width = 1109;
}
);
unicode = 163;
},
{
glyphname = yen;
layers = (
{
layerId = master01;
shapes = (
{
closed = 1;
nodes = (
(800,607,l),
(850,607,ls),
(914,607,o),
(949,575,o),
(949,534,cs),
(949,499,o),
(925,457,o),
(877,418,cs),
(818,370,l),
(689,498,ls),
(668,518,o),
(659,542,o),
(659,561,cs),
(659,587,o),
(677,607,o),
(707,607,cs),
(735,607,l),
(735,650,l),
(-14,650,l),
(-14,607,l),
(87,607,l),
(427,270,l),
(427,151,ls),
(427,72,o),
(379,43,o),
(319,43,cs),
(197,43,l),
(197,0,l),
(1048,0,l),
(1048,43,l),
(927,43,ls),
(867,43,o),
(818,72,o),
(818,151,cs),
(818,291,l),
(1257,607,l),
(1323,607,l),
(1323,650,l),
(800,650,l,{
name = hr00;
})
);
},
{
closed = 1;
nodes = (
(560,43,l),
(495,43,l),
(495,292,l),
(176,607,l),
(269,607,l),
(560,319,l)
);
},
{
closed = 1;
nodes = (
(378,375,l),
(87,375,l),
(87,325,l),
(378,325,l)
);
},
{
closed = 1;
nodes = (
(437,247,l),
(87,247,l),
(87,197,l),
(437,197,l)
);
},
{
closed = 1;
nodes = (
(1157,375,l),
(856,375,l),
(856,325,l),
(1157,325,l)
);
},
{
closed = 1;
nodes = (
(1157,247,l),
(807,247,l),
(807,197,l),
(1157,197,l)
);
}
);
width = 1309;
}
);
unicode = 165;
},
{
glyphname = plus;
layers = (
{
layerId = master01;
shapes = (
{
closed = 1;
nodes = (
(100,378,l),
(100,298,l),
(640,298,l),
(640,378,l,{
name = hr00;
})
);
},
{
closed = 1;
nodes = (
(330,68,l),
(410,68,l),
(410,608,l),
(330,608,l)
);
}
);
width = 740;
}
);
unicode = 43;
},
{
glyphname = minus;
layers = (
{
layerId = master01;
shapes = (
{
closed = 1;
nodes = (
(100,378,l),
(100,298,l),
(640,298,l),
(640,378,l,{
name = hr00;
})
);
}
);
width = 740;
}
);
unicode = 8722;
},
{
glyphname = multiply;
layers = (
{
layerId = master01;
shapes = (
{
closed = 1;
nodes = (
(133,156,l),
(188,101,l),
(607,520,l),
(552,575,l,{
name = hr00;
})
);
},
{
closed = 1;
nodes = (
(552,101,l),
(607,156,l),
(188,575,l),
(133,520,l)
);
}
);
width = 740;
}
);
unicode = 215;
},
{
glyphname = divide;
layers = (
{
layerId = master01;
shapes = (
{
closed = 1;
nodes = (
(475,197,o),
(428,234,o),
(370,234,cs),
(312,234,o),
(265,197,o),
(265,153,cs),
(265,109,o),
(312,73,o),
(370,73,cs),
(428,73,o),
(475,109,o),
(475,153,cs,{
name = hr00;
})
);
},
{
closed = 1;
nodes = (
(475,566,o),
(428,603,o),
(370,603,cs),
(312,603,o),
(265,566,o),
(265,522,cs),
(265,478,o),
(312,442,o),
(370,442,cs),
(428,442,o),
(475,478,o),
(475,522,cs)
);
},
{
ref = minus;
}
);
width = 740;
}
);
unicode = 247;
},
{
glyphname = equal;
layers = (
{
layerId = master01;
shapes = (
{
closed = 1;
nodes = (
(100,268,l),
(100,188,l),
(640,188,l),
(640,268,l,{
name = hr00;
})
);
},
{
closed = 1;
nodes = (
(100,488,l),
(100,408,l),
(640,408,l),
(640,488,l)
);
}
);
width = 740;
}
);
unicode = 61;
},
{
glyphname = greater;
layers = (
{
layerId = master01;
shapes = (
{
closed = 1;
nodes = (
(509,339,l),
(107,158,l),
(141,87,l),
(619,309,l),
(619,369,l),
(141,591,l),
(107,520,l,{
name = hr00;
})
);
}
);
width = 740;
}
);
unicode = 62;
},
{
glyphname = less;
layers = (
{
layerId = master01;
shapes = (
{
closed = 1;
nodes = (
(217,339,l),
(619,520,l),
(585,591,l),
(107,369,l),
(107,309,l),
(585,87,l),
(619,158,l,{
name = hr00;
})
);
}
);
width = 740;
}
);
unicode = 60;
},
{
glyphname = approxequal;
layers = (
{
layerId = master01;
shapes = (
{
closed = 1;
nodes = (
(602,287,o),
(564,294,o),
(526,294,cs),
(422,294,o),
(318,242,o),
(214,242,cs,{
name = hr01;
}),
(176,242,o),
(138,249,o),
(100,268,c),
(100,188,l),
(138,168,o),
(176,161,o),
(214,161,cs),
(318,161,o),
(422,214,o),
(526,214,cs,{
name = hr02;
}),
(564,214,o),
(602,207,o),
(640,188,c),
(640,268,l)
);
},
{
closed = 1;
nodes = (
(602,505,o),
(564,512,o),
(527,512,cs),
(423,512,o),
(319,463,o),
(215,463,cs,{
name = hr03;
}),
(177,463,o),
(138,469,o),
(100,488,c),
(100,408,l),
(138,389,o),
(176,382,o),
(215,382,cs),
(318,382,o),
(422,432,o),
(526,432,cs,{
name = hr04;
}),
(564,432,o),
(602,426,o),
(640,408,c),
(640,488,l)
);
}
);
width = 740;
}
);
unicode = 8776;
},
{
glyphname = asciitilde;
layers = (
{
layerId = master01;
shapes = (
{
closed = 1;
nodes = (
(603,412,o),
(566,424,o),
(528,424,cs),
(423,424,o),
(314,333,o),
(211,333,cs),
(173,333,o),
(136,344,o),
(100,378,c),
(100,298,l),
(130,263,o),
(170,253,o),
(212,253,cs),
(328,253,o),
(412,344,o),
(525,344,cs),
(568,344,o),
(608,332,o),
(640,299,c),
(640,379,l,{
name = hr00;
})
);
}
);
width = 740;
}
);
unicode = 126;
},
{
glyphname = logicalnot;
layers = (
{
layerId = master01;
shapes = (
{
closed = 1;
nodes = (
(100,298,l),
(562,298,l),
(562,108,l),
(640,108,l),
(640,378,l),
(100,378,l,{
name = hr00;
})
);
}
);
width = 740;
}
);
unicode = 172;
},
{
glyphname = asciicircum;
layers = (
{
layerId = master01;
shapes = (
{
closed = 1;
nodes = (
(370,491,l),
(531,189,l),
(597,223,l),
(395,595,l),
(345,595,l),
(143,223,l),
(209,189,l,{
name = hr00;
})
);
}
);
width = 740;
}
);
unicode = 94;
},
{
glyphname = infinity;
layers = (
{
layerId = master01;
shapes = (
{
closed = 1;
nodes = (
(733,131,o),
(812,211,o),
(812,332,cs),
(812,465,o),
(731,539,o),
(635,539,cs),
(544,539,o),
(482,498,o),
(430,401,c),
(378,483,o),
(320,539,o),
(231,539,cs),
(129,539,o),
(50,459,o),
(50,338,cs),
(50,205,o),
(131,131,o),
(227,131,cs),
(318,131,o),
(380,172,o),
(432,270,c),
(484,187,o),
(542,131,o),
(630,131,cs,{
name = hr00;
})
);
},
{
closed = 1;
nodes = (
(172,207,o),
(127,261,o),
(127,337,cs),
(127,415,o),
(172,463,o),
(239,463,cs),
(301,463,o),
(349,408,o),
(390,343,c),
(356,259,o),
(295,207,o),
(239,207,cs)
);
},
{
closed = 1;
nodes = (
(690,463,o),
(735,409,o),
(735,333,cs),
(735,255,o),
(690,207,o),
(623,207,cs),
(562,207,o),
(514,262,o),
(472,328,c),
(506,411,o),
(567,463,o),
(623,463,cs)
);
}
);
width = 862;
}
);
unicode = 8734;
},
{
glyphname = integral;
layers = (
{
layerId = master01;
shapes = (
{
closed = 1;
nodes = (
(328,-68,o),
(291,-102,o),
(264,-113,c),
(264,571,ls),
(264,670,o),
(301,704,o),
(328,715,c),
(328,31,ls,{
name = hr00;
})
);
},
{
closed = 1;
nodes = (
(291,801,o),
(197,719,o),
(197,583,cs),
(197,-48,ls),
(197,-128,o),
(147,-156,o),
(88,-156,cs),
(76,-156,o),
(63,-155,o),
(55,-154,c),
(50,-194,l),
(83,-197,o),
(118,-199,o),
(154,-199,cs),
(493,-199,o),
(587,-117,o),
(587,19,cs),
(587,650,ls),
(587,730,o),
(637,758,o),
(696,758,cs),
(708,758,o),
(721,757,o),
(729,756,c),
(734,796,l),
(701,799,o),
(666,801,o),
(630,801,cs)
);
}
);
width = 784;
}
);
unicode = 8747;
},
{
glyphname = Omega;
layers = (
{
layerId = master01;
shapes = (
{
closed = 1;
nodes = (
(200,227,o),
(76,333,o),
(76,456,cs),
(76,580,o),
(202,687,o),
(388,742,c),
(389,738,l),
(246,682,o),
(149,576,o),
(149,456,cs),
(149,336,o),
(244,231,o),
(385,175,c),
(384,171,l,{
name = hr00;
})
);
},
{
closed = 1;
nodes = (
(1035,350,o),
(984,247,o),
(909,178,c),
(903,180,l),
(937,264,o),
(960,362,o),
(960,456,cs),
(960,550,o),
(937,648,o),
(903,732,c),
(909,734,l),
(984,665,o),
(1035,562,o),
(1035,456,cs)
);
},
{
closed = 1;
nodes = (
(22,294,o),
(213,142,o),
(543,113,c),
(543,64,o),
(526,43,o),
(475,43,cs),
(428,43,ls),
(318,43,o),
(188,70,o),
(103,186,c),
(74,186,l),
(74,0,l),
(605,0,l),
(605,163,l),
(495,188,o),
(465,363,o),
(465,455,c),
(465,655,o),
(509,760,o),
(672,760,cs),
(836,760,o),
(879,655,o),
(879,455,cs),
(879,363,o),
(849,188,o),
(739,163,c),
(739,0,l),
(1270,0,l),
(1270,186,l),
(1241,186,l),
(1156,70,o),
(1026,43,o),
(916,43,cs),
(869,43,ls),
(818,43,o),
(801,64,o),
(801,113,c),
(1131,142,o),
(1322,294,o),
(1322,456,cs),
(1322,647,o),
(1070,801,o),
(672,801,cs),
(274,801,o),
(22,647,o),
(22,456,c)
);
}
);
width = 1345;
}
);
unicode = 8486;
},
{
glyphname = Delta;
layers = (
{
layerId = master01;
shapes = (
{
closed = 1;
nodes = (
(50,43,l),
(50,0,l),
(1130,0,l),
(1130,43,l),
(710,801,l),
(416,801,l,{
name = hr00;
})
);
},
{
closed = 1;
nodes = (
(404,625,l),
(726,43,l),
(121,43,l)
);
},
{
closed = 1;
nodes = (
(471,626,l),
(553,626,l),
(876,43,l),
(794,43,l)
);
}
);
width = 1180;
}
);
unicode = 8710;
},
{
glyphname = product;
layers = (
{
layerId = master01;
shapes = (
{
closed = 1;
nodes = (
(1153,758,l),
(1277,758,l),
(1277,801,l),
(73,801,l),
(73,758,l),
(179,758,ls),
(228,758,o),
(269,716,o),
(269,668,cs),
(269,-199,l),
(606,-199,l),
(606,668,ls),
(606,716,o),
(647,758,o),
(696,758,cs),
(816,758,l),
(816,-199,l),
(1153,-199,l,{
name = hr00;
})
);
},
{
closed = 1;
nodes = (
(331,-156,l),
(331,758,l),
(382,758,l),
(382,-156,l)
);
},
{
closed = 1;
nodes = (
(878,758,l),
(929,758,l),
(929,-156,l),
(878,-156,l)
);
}
);
width = 1353;
}
);
unicode = 8719;
},
{
glyphname = summation;
layers = (
{
layerId = master01;
shapes = (
{
closed = 1;
nodes = (
(602,366,l),
(333,-156,l),
(276,-156,l),
(564,405,l,{
name = hr00;
})
);
},
{
closed = 1;
nodes = (
(453,518,ls),
(472,498,o),
(490,474,o),
(490,451,cs),
(490,437,o),
(486,422,o),
(476,403,cs),
(291,43,ls),
(200,-134,o),
(187,-156,o),
(126,-156,cs),
(50,-156,l),
(50,-199,l),
(1126,-199,l),
(1126,13,l),
(1097,13,l),
(975,-151,o),
(793,-156,o),
(648,-156,cs),
(581,-156,l),
(825,267,l),
(344,758,l),
(650,758,ls),
(897,758,o),
(1032,658,o),
(1097,571,c),
(1126,571,l),
(1126,801,l),
(50,801,l),
(50,758,l),
(218,758,l)
);
}
);
width = 1176;
}
);
unicode = 8721;
},
{
glyphname = radical;
layers = (
{
layerId = master01;
shapes = (
{
closed = 1;
nodes = (
(688,207,l),
(569,387,ls),
(554,409,o),
(546,434,o),
(546,455,cs),
(546,489,o),
(565,515,o),
(611,515,cs),
(647,515,l),
(647,558,l),
(43,558,l),
(43,515,l),
(102,515,l),
(458,-19,l),
(649,-19,l),
(995,758,l),
(1240,758,l),
(1240,801,l),
(953,801,l,{
name = hr00;
})
);
},
{
closed = 1;
nodes = (
(483,24,l),
(374,189,o),
(265,350,o),
(157,515,c),
(224,515,l),
(550,24,l)
);
}
);
width = 1072;
}
);
unicode = 8730;
},
{
glyphname = partialdiff;
layers = (
{
layerId = master01;
shapes = (
{
closed = 1;
nodes = (
(727,509,o),
(675,515,o),
(617,515,cs),
(276,515,o),
(29,374,o),
(29,216,cs),
(29,82,o),
(231,-22,o),
(503,-22,cs),
(914,-22,o),
(1105,232,o),
(1105,448,cs),
(1105,660,o),
(892,801,o),
(681,801,cs),
(510,801,o),
(446,773,o),
(295,723,c),
(273,618,l),
(307,618,l),
(307,618,o),
(415,758,o),
(633,758,cs),
(746,758,o),
(783,646,o),
(783,569,cs),
(783,547,o),
(780,524,o),
(775,500,c)
);
},
{
closed = 1;
nodes = (
(707,471,o),
(744,428,o),
(744,346,cs,{
name = hr01;
}),
(744,317,o),
(739,283,o),
(731,244,cs),
(700,97,o),
(621,21,o),
(512,21,cs),
(426,21,o),
(378,69,o),
(378,164,cs),
(378,188,o),
(381,214,o),
(387,244,cs),
(419,391,o),
(474,471,o),
(608,471,cs)
);
},
{
closed = 1;
nodes = (
(132,126,o),
(214,59,o),
(336,29,c),
(332,22,l),
(174,54,o),
(68,124,o),
(68,217,cs),
(68,338,o),
(224,430,o),
(428,467,c),
(429,462,l),
(303,431,o),
(132,354,o),
(132,213,cs)
);
},
{
closed = 1;
nodes = (
(874,610,o),
(894,542,o),
(894,464,cs),
(894,303,o),
(813,151,o),
(710,58,c),
(707,62,l),
(786,213,o),
(838,400,o),
(838,567,cs),
(838,598,o),
(837,628,o),
(834,657,c),
(839,661,l)
);
}
);
width = 1144;
}
);
unicode = 8706;
},
{
glyphname = mu;
layers = (
{
layerId = master01;
shapes = (
{
closed = 1;
nodes = (
(577,32,o),
(612,27,o),
(645,27,cs,{
name = hr01;
}),
(733,27,o),
(808,64,o),
(881,129,c),
(881,0,l,{
name = hr02;
}),
(1414,0,l),
(1414,43,l),
(1308,43,ls),
(1259,43,o),
(1218,84,o),
(1218,132,cs),
(1218,559,l),
(685,559,l),
(685,515,l),
(791,515,ls),
(840,515,o),
(881,492,o),
(881,426,cs),
(881,192,l),
(835,147,o),
(758,103,o),
(676,103,cs,{
name = hr03;
}),
(566,103,o),
(553,177,o),
(553,225,cs),
(553,559,l),
(20,559,l),
(20,515,l),
(126,515,ls),
(175,515,o),
(216,492,o),
(216,426,cs),
(216,-41,ls),
(216,-174,o),
(321,-199,o),
(454,-199,cs),
(750,-199,l),
(750,-155,l),
(669,-155,ls),
(576,-155,o),
(540,-111,o),
(540,-44,cs,{
name = hr04;
}),
(540,43,l)
);
},
{
closed = 1;
nodes = (
(281,515,o),
(330,484,o),
(330,426,cs),
(330,-30,ls),
(330,-96,o),
(351,-129,o),
(383,-145,c),
(382,-153,l),
(321,-142,o),
(279,-110,o),
(279,-30,cs),
(279,426,ls),
(279,477,o),
(251,506,o),
(209,521,c),
(211,528,l)
);
},
{
closed = 1;
nodes = (
(946,515,o),
(995,484,o),
(995,426,cs),
(995,43,l),
(944,43,l),
(944,426,ls),
(944,477,o),
(916,506,o),
(874,521,c),
(876,528,l)
);
}
);
width = 1439;
}
);
unicode = 181;
},
{
glyphname = lozenge;
layers = (
{
layerId = master01;
shapes = (
{
closed = 1;
nodes = (
(890,323,l),
(728,801,l),
(216,801,l),
(50,323,l),
(50,279,l),
(212,-199,l),
(724,-199,l),
(890,279,l,{
name = hr00;
})
);
},
{
closed = 1;
nodes = (
(346,-155,l),
(264,-155,l),
(118,278,l),
(200,278,l)
);
},
{
closed = 1;
nodes = (
(672,-155,l),
(529,-155,l),
(383,278,l),
(823,278,l)
);
},
{
closed = 1;
nodes = (
(458,756,l),
(540,756,l),
(686,323,l),
(604,323,l)
);
},
{
closed = 1;
nodes = (
(265,756,l),
(391,756,l),
(537,323,l),
(118,323,l)
);
}
);
width = 940;
}
);
unicode = 9674;
},
{
glyphname = commaaccent;
layers = (
{
layerId = master01;
shapes = (
{
closed = 1;
nodes = (
(75,-203,o),
(86,-231,o),
(102,-250,c),
(100,-253,l),
(65,-237,o),
(40,-205,o),
(40,-172,cs),
(40,-139,o),
(65,-107,o),
(100,-91,c),
(102,-94,l),
(86,-113,o),
(75,-141,o),
(75,-172,c,{
name = hr00;
})
);
},
{
closed = 1;
nodes = (
(0,-235,o),
(61,-287,o),
(138,-287,cs),
(153,-287,o),
(168,-285,o),
(181,-281,c),
(152,-340,o),
(58,-359,o),
(10,-359,c),
(10,-396,l),
(206,-383,o),
(274,-278,o),
(274,-180,cs),
(274,-109,o),
(213,-59,o),
(138,-59,cs),
(61,-59,o),
(0,-109,o),
(0,-172,cs)
);
}
);
width = 274;
}
);
},
{
glyphname = commaaccent.salt;
layers = (
{
layerId = master01;
shapes = (
{
closed = 1;
nodes = (
(76,675,o),
(87,647,o),
(103,628,c),
(101,625,l),
(66,641,o),
(41,673,o),
(41,706,cs),
(41,739,o),
(66,771,o),
(101,787,c),
(103,784,l),
(87,765,o),
(76,737,o),
(76,706,cs,{
name = hr00;
})
);
},
{
closed = 1;
nodes = (
(274,769,o),
(213,821,o),
(136,821,cs),
(121,821,o),
(106,819,o),
(93,815,c),
(122,874,o),
(216,893,o),
(264,893,c),
(264,930,l),
(68,917,o),
(0,812,o),
(0,714,cs),
(0,643,o),
(61,593,o),
(136,593,cs),
(213,593,o),
(274,643,o),
(274,706,cs)
);
}
);
width = 274;
}
);
},
{
glyphname = dieresis;
layers = (
{
layerId = master01;
shapes = (
{
closed = 1;
nodes = (
(807,769,o),
(746,821,o),
(669,821,cs),
(594,821,o),
(533,769,o),
(533,706,cs),
(533,643,o),
(594,593,o),
(669,593,cs),
(746,593,o),
(807,643,o),
(807,706,c,{
name = hr00;
})
);
},
{
closed = 1;
nodes = (
(351,769,o),
(290,821,o),
(213,821,cs),
(138,821,o),
(77,769,o),
(77,706,cs),
(77,643,o),
(138,593,o),
(213,593,cs),
(290,593,o),
(351,643,o),
(351,706,c)
);
},
{
closed = 1;
nodes = (
(155,670,o),
(167,640,o),
(186,619,c),
(183,616,l),
(143,633,o),
(114,668,o),
(114,706,cs),
(114,744,o),
(143,779,o),
(183,796,c),
(186,793,l),
(167,772,o),
(155,742,o),
(155,706,c)
);
},
{
closed = 1;
nodes = (
(611,670,o),
(623,640,o),
(642,619,c),
(639,616,l),
(599,633,o),
(570,668,o),
(570,706,cs),
(570,744,o),
(599,779,o),
(639,796,c),
(642,793,l),
(623,772,o),
(611,742,o),
(611,706,cs)
);
}
);
width = 885;
}
);
unicode = 168;
},
{
glyphname = dotaccent;
layers = (
{
layerId = master01;
shapes = (
{
closed = 1;
nodes = (
(324,769,o),
(263,821,o),
(186,821,cs),
(111,821,o),
(50,769,o),
(50,706,cs),
(50,643,o),
(111,593,o),
(186,593,cs),
(263,593,o),
(324,643,o),
(324,706,c,{
name = hr00;
})
);
},
{
closed = 1;
nodes = (
(112,675,o),
(123,647,o),
(139,628,c),
(137,625,l),
(102,641,o),
(77,673,o),
(77,706,cs),
(77,739,o),
(102,771,o),
(137,787,c),
(139,784,l),
(123,765,o),
(112,737,o),
(112,706,c)
);
}
);
width = 374;
}
);
unicode = 729;
},
{
glyphname = grave;
layers = (
{
layerId = master01;
shapes = (
{
closed = 1;
nodes = (
(276,624,o),
(459,624,o),
(546,624,cs),
(600,624,l),
(600,660,l,{
name = hr01;
}),
(444,660,o),
(391,700,o),
(341,770,c),
(50,770,l),
(50,770,o),
(74,671,o),
(198,642,cs)
);
},
{
closed = 1;
nodes = (
(184,668,o),
(140,717,o),
(123,742,c),
(187,742,l),
(205,705,o),
(258,677,o),
(288,667,c),
(288,663,l)
);
}
);
width = 650;
}
);
unicode = 96;
},
{
glyphname = acute;
layers = (
{
layerId = master01;
shapes = (
{
closed = 1;
nodes = (
(576,671,o),
(600,770,o),
(600,770,c),
(309,770,l),
(259,700,o),
(206,660,o),
(50,660,c),
(50,624,l,{
name = hr01;
}),
(104,624,ls),
(191,624,o),
(374,624,o),
(452,642,c)
);
},
{
closed = 1;
nodes = (
(278,677,o),
(331,705,o),
(349,742,c),
(413,742,l),
(396,717,o),
(352,668,o),
(248,663,c),
(248,667,l)
);
}
);
width = 650;
}
);
unicode = 180;
},
{
glyphname = hungarumlaut;
layers = (
{
layerId = master01;
shapes = (
{
closed = 1;
nodes = (
(457,673,o),
(480,770,o),
(480,770,c),
(239,770,l),
(197,700,o),
(152,660,o),
(50,660,c,{
name = hr01;
}),
(50,624,l,{
name = hr02;
}),
(65,624,ls),
(138,624,o),
(266,625,o),
(336,642,cs)
);
},
{
closed = 1;
nodes = (
(208,677,o),
(261,705,o),
(279,742,c,{
name = hr03;
}),
(343,742,l),
(326,717,o),
(282,668,o),
(178,663,c),
(178,667,l)
);
},
{
closed = 1;
nodes = (
(856,673,o),
(879,770,o),
(879,770,c,{
name = hr04;
}),
(638,770,l),
(596,700,o),
(551,660,o),
(449,660,c,{
name = hr05;
}),
(449,624,l,{
name = hr06;
}),
(464,624,ls),
(537,624,o),
(665,625,o),
(735,642,cs)
);
},
{
closed = 1;
nodes = (
(607,677,o),
(660,705,o),
(678,742,c,{
name = hr07;
}),
(742,742,l),
(725,717,o),
(681,668,o),
(577,663,c),
(577,667,l)
);
}
);
width = 929;
}
);
unicode = 733;
},
{
glyphname = circumflex;
layers = (
{
layerId = master01;
shapes = (
{
closed = 1;
nodes = (
(50,624,l),
(347,624,l),
(451,736,l),
(554,624,l),
(641,624,l),
(508,770,l),
(184,770,l)
);
},
{
closed = 1;
nodes = (
(223,662,l),
(161,662,l),
(236,745,l),
(298,745,l,{
name = hr01;
})
);
}
);
width = 691;
}
);
unicode = 710;
},
{
glyphname = caron;
layers = (
{
layerId = master01;
shapes = (
{
closed = 1;
nodes = (
(641,770,l),
(554,770,l),
(451,658,l),
(347,770,l),
(50,770,l),
(184,624,l),
(508,624,l)
);
},
{
closed = 1;
nodes = (
(161,732,l,{
name = hr01;
}),
(223,732,l),
(298,649,l),
(236,649,l)
);
}
);
width = 691;
}
);
unicode = 711;
},
{
glyphname = breve;
layers = (
{
layerId = master01;
shapes = (
{
closed = 1;
nodes = (
(165,726,o),
(112,754,o),
(71,787,c),
(50,781,l),
(50,676,o),
(139,591,o),
(246,591,cs),
(355,591,o),
(440,676,o),
(440,781,c),
(420,787,l),
(380,754,o),
(328,726,o),
(246,726,cs)
);
},
{
closed = 1;
nodes = (
(300,663,o),
(348,681,o),
(380,705,c),
(385,702,l),
(358,654,o),
(304,623,o),
(246,623,cs),
(189,623,o),
(135,654,o),
(108,702,c),
(113,705,l),
(145,681,o),
(195,663,o),
(246,663,cs,{
name = hr01;
})
);
}
);
width = 490;
}
);
unicode = 728;
},
{
glyphname = ring;
layers = (
{
layerId = master01;
shapes = (
{
closed = 1;
nodes = (
(138,761,o),
(160,805,o),
(186,805,cs),
(212,805,o),
(234,761,o),
(234,706,cs),
(234,651,o),
(212,607,o),
(186,607,cs),
(160,607,o),
(138,651,o),
(138,706,cs,{
name = hr00;
})
);
},
{
closed = 1;
nodes = (
(345,778,o),
(274,838,o),
(186,838,cs),
(100,838,o),
(29,778,o),
(29,706,cs),
(29,633,o),
(100,576,o),
(186,576,cs),
(274,576,o),
(345,633,o),
(345,706,cs)
);
},
{
closed = 1;
nodes = (
(101,670,o),
(113,638,o),
(132,616,c),
(129,613,l),
(89,631,o),
(61,668,o),
(61,706,cs),
(61,744,o),
(89,781,o),
(129,799,c),
(132,796,l),
(113,774,o),
(101,741,o),
(101,706,c)
);
}
);
width = 374;
}
);
unicode = 730;
},
{
glyphname = tilde;
layers = (
{
layerId = master01;
shapes = (
{
closed = 1;
nodes = (
(584,665,o),
(530,647,o),
(484,647,cs),
(344,647,o),
(251,697,o),
(167,697,cs),
(153,697,o),
(139,695,o),
(125,692,c),
(122,696,l),
(140,712,o),
(165,726,o),
(202,726,cs),
(312,726,o),
(356,682,o),
(512,682,cs,{
name = hr01;
}),
(541,682,o),
(587,688,o),
(615,697,c,{
name = hr02;
}),
(617,693,l)
);
},
{
closed = 1;
nodes = (
(642,764,o),
(621,751,o),
(577,751,cs,{
name = hr03;
}),
(471,751,o),
(426,787,o),
(276,787,cs,{
name = hr04;
}),
(128,787,o),
(54,675,o),
(50,625,c),
(78,625,l),
(87,647,o),
(111,662,o),
(140,662,cs,{
name = hr05;
}),
(270,662,o),
(320,613,o),
(477,613,cs,{
name = hr06;
}),
(616,613,o),
(683,733,o),
(688,786,c),
(655,786,l)
);
}
);
width = 738;
}
);
unicode = 732;
},
{
glyphname = macron;
layers = (
{
layerId = master01;
shapes = (
{
closed = 1;
nodes = (
(455,630,l),
(455,764,l),
(50,764,l),
(50,630,l)
);
},
{
closed = 1;
nodes = (
(111,650,l),
(111,744,l),
(165,744,l),
(165,650,l,{
name = hr01;
})
);
}
);
width = 505;
}
);
unicode = 175;
},
{
glyphname = cedilla;
layers = (
{
layerId = master01;
shapes = (
{
closed = 1;
nodes = (
(101,-207,o),
(188,-223,o),
(283,-223,cs),
(391,-223,o),
(516,-212,o),
(516,-133,cs),
(516,-35,o),
(345,16,o),
(175,16,c),
(175,0,l),
(263,-13,o),
(306,-50,o),
(306,-105,cs),
(306,-154,o),
(271,-175,o),
(228,-175,cs),
(175,-175,o),
(110,-132,o),
(89,-79,c),
(50,-79,l),
(50,-188,l)
);
},
{
closed = 1;
nodes = (
(376,-41,o),
(416,-65,o),
(416,-107,cs,{
name = hr01;
}),
(416,-146,o),
(364,-178,o),
(324,-188,c),
(321,-182,l),
(349,-169,o),
(366,-137,o),
(366,-107,cs),
(366,-74,o),
(351,-49,o),
(320,-30,c),
(324,-24,l)
);
}
);
width = 566;
}
);
unicode = 184;
},
{
glyphname = ogonek;
layers = (
{
layerId = master01;
shapes = (
{
closed = 1;
nodes = (
(477,-80,l),
(456,-133,o),
(391,-176,o),
(338,-176,cs),
(295,-176,o),
(260,-155,o),
(260,-106,cs),
(260,-51,o),
(303,-7,o),
(391,6,c),
(391,22,l),
(221,11,o),
(50,-36,o),
(50,-134,cs),
(50,-213,o),
(175,-224,o),
(283,-224,cs),
(378,-224,o),
(465,-208,o),
(516,-189,c),
(516,-80,l,{
name = hr00;
})
);
},
{
closed = 1;
nodes = (
(154,-62,o),
(140,-88,o),
(140,-119,cs),
(140,-148,o),
(166,-184,o),
(194,-196,c),
(192,-201,l),
(127,-193,o),
(90,-161,o),
(90,-124,cs),
(90,-84,o),
(130,-55,o),
(182,-39,c),
(185,-44,l)
);
}
);
width = 566;
}
);
unicode = 731;
},
{
glyphname = dieresis.case;
layers = (
{
layerId = master01;
shapes = (
{
closed = 1;
nodes = (
(807,861,o),
(746,913,o),
(669,913,cs),
(594,913,o),
(533,861,o),
(533,798,cs),
(533,735,o),
(594,685,o),
(669,685,cs),
(746,685,o),
(807,735,o),
(807,798,c,{
name = hr00;
})
);
},
{
closed = 1;
nodes = (
(351,861,o),
(290,913,o),
(213,913,cs),
(138,913,o),
(77,861,o),
(77,798,cs),
(77,735,o),
(138,685,o),
(213,685,cs),
(290,685,o),
(351,735,o),
(351,798,c)
);
},
{
closed = 1;
nodes = (
(155,762,o),
(167,732,o),
(186,711,c),
(183,708,l),
(143,725,o),
(114,760,o),
(114,798,cs),
(114,836,o),
(143,871,o),
(183,888,c),
(186,885,l),
(167,864,o),
(155,834,o),
(155,798,c)
);
},
{
closed = 1;
nodes = (
(611,762,o),
(623,732,o),
(642,711,c),
(639,708,l),
(599,725,o),
(570,760,o),
(570,798,cs),
(570,836,o),
(599,871,o),
(639,888,c),
(642,885,l),
(623,864,o),
(611,834,o),
(611,798,cs)
);
}
);
width = 885;
}
);
},
{
glyphname = dotaccent.case;
layers = (
{
layerId = master01;
shapes = (
{
closed = 1;
nodes = (
(324,861,o),
(263,913,o),
(186,913,cs),
(111,913,o),
(50,861,o),
(50,798,cs),
(50,735,o),
(111,685,o),
(186,685,cs),
(263,685,o),
(324,735,o),
(324,798,c,{
name = hr00;
})
);
},
{
closed = 1;
nodes = (
(112,767,o),
(123,739,o),
(139,720,c),
(137,717,l),
(102,733,o),
(77,765,o),
(77,798,cs),
(77,831,o),
(102,863,o),
(137,879,c),
(139,876,l),
(123,857,o),
(112,829,o),
(112,798,c)
);
}
);
width = 374;
}
);
},
{
glyphname = grave.case;
layers = (
{
layerId = master01;
shapes = (
{
closed = 1;
nodes = (
(276,716,o),
(459,716,o),
(546,716,cs),
(600,716,l),
(600,752,l),
(444,752,o),
(391,792,o),
(341,862,c),
(50,862,l),
(50,862,o),
(74,763,o),
(198,734,cs,{
name = hr00;
})
);
},
{
closed = 1;
nodes = (
(184,760,o),
(140,809,o),
(123,834,c),
(187,834,l),
(205,797,o),
(258,769,o),
(288,759,c),
(288,755,l)
);
}
);
width = 650;
}
);
},
{
glyphname = acute.case;
layers = (
{
layerId = master01;
shapes = (
{
closed = 1;
nodes = (
(576,763,o),
(600,862,o),
(600,862,c),
(309,862,l),
(259,792,o),
(206,752,o),
(50,752,c),
(50,716,l),
(104,716,ls),
(191,716,o),
(374,716,o),
(452,734,c,{
name = hr00;
})
);
},
{
closed = 1;
nodes = (
(278,769,o),
(331,797,o),
(349,834,c),
(413,834,l),
(396,809,o),
(352,760,o),
(248,755,c),
(248,759,l)
);
}
);
width = 650;
}
);
},
{
glyphname = hungarumlaut.case;
layers = (
{
layerId = master01;
shapes = (
{
closed = 1;
nodes = (
(457,765,o),
(480,862,o),
(480,862,c),
(239,862,l),
(197,792,o),
(152,752,o),
(50,752,c),
(50,716,l),
(65,716,ls),
(138,716,o),
(266,717,o),
(336,734,cs,{
name = hr00;
})
);
},
{
closed = 1;
nodes = (
(208,769,o),
(261,797,o),
(279,834,c),
(343,834,l),
(326,809,o),
(282,760,o),
(178,755,c),
(178,759,l)
);
},
{
closed = 1;
nodes = (
(856,765,o),
(879,862,o),
(879,862,c),
(638,862,l),
(596,792,o),
(551,752,o),
(449,752,c),
(449,716,l),
(464,716,ls),
(537,716,o),
(665,717,o),
(735,734,cs)
);
},
{
closed = 1;
nodes = (
(607,769,o),
(660,797,o),
(678,834,c),
(742,834,l),
(725,809,o),
(681,760,o),
(577,755,c),
(577,759,l)
);
}
);
width = 929;
}
);
},
{
glyphname = circumflex.case;
layers = (
{
layerId = master01;
shapes = (
{
closed = 1;
nodes = (
(50,716,l),
(347,716,l),
(451,828,l),
(554,716,l),
(641,716,l),
(508,862,l),
(184,862,l,{
name = hr00;
})
);
},
{
closed = 1;
nodes = (
(223,754,l),
(161,754,l),
(236,837,l),
(298,837,l)
);
}
);
width = 691;
}
);
},
{
glyphname = caron.case;
layers = (
{
layerId = master01;
shapes = (
{
closed = 1;
nodes = (
(641,862,l),
(554,862,l),
(451,750,l),
(347,862,l),
(50,862,l),
(184,716,l),
(508,716,l,{
name = hr00;
})
);
},
{
closed = 1;
nodes = (
(161,824,l),
(223,824,l),
(298,741,l),
(236,741,l)
);
}
);
width = 691;
}
);
},
{
glyphname = breve.case;
layers = (
{
layerId = master01;
shapes = (
{
closed = 1;
nodes = (
(165,818,o),
(112,846,o),
(71,879,c),
(50,873,l),
(50,768,o),
(139,683,o),
(246,683,cs),
(355,683,o),
(440,768,o),
(440,873,c),
(420,879,l),
(380,846,o),
(328,818,o),
(246,818,cs)
);
},
{
closed = 1;
nodes = (
(300,755,o),
(348,773,o),
(380,797,c),
(385,794,l),
(358,746,o),
(304,715,o),
(246,715,cs),
(189,715,o),
(135,746,o),
(108,794,c),
(113,797,l),
(145,773,o),
(195,755,o),
(246,755,cs,{
name = hr01;
})
);
}
);
width = 490;
}
);
},
{
glyphname = ring.case;
layers = (
{
layerId = master01;
shapes = (
{
closed = 1;
nodes = (
(138,853,o),
(160,897,o),
(186,897,cs),
(212,897,o),
(234,853,o),
(234,798,cs),
(234,743,o),
(212,699,o),
(186,699,cs),
(160,699,o),
(138,743,o),
(138,798,cs,{
name = hr00;
})
);
},
{
closed = 1;
nodes = (
(345,870,o),
(274,930,o),
(186,930,cs),
(100,930,o),
(29,870,o),
(29,798,cs),
(29,725,o),
(100,668,o),
(186,668,cs),
(274,668,o),
(345,725,o),
(345,798,cs)
);
},
{
closed = 1;
nodes = (
(101,762,o),
(113,730,o),
(132,708,c),
(129,705,l),
(89,723,o),
(61,760,o),
(61,798,cs),
(61,836,o),
(89,873,o),
(129,891,c),
(132,888,l),
(113,866,o),
(101,833,o),
(101,798,c)
);
}
);
width = 374;
}
);
},
{
glyphname = tilde.case;
layers = (
{
layerId = master01;
shapes = (
{
closed = 1;
nodes = (
(584,757,o),
(530,739,o),
(484,739,cs),
(344,739,o),
(251,789,o),
(167,789,cs),
(153,789,o),
(139,787,o),
(125,784,c),
(122,788,l),
(140,804,o),
(165,818,o),
(202,818,cs),
(312,818,o),
(356,774,o),
(512,774,cs,{
name = hr01;
}),
(541,774,o),
(587,780,o),
(615,789,c,{
name = hr02;
}),
(617,785,l)
);
},
{
closed = 1;
nodes = (
(642,856,o),
(621,843,o),
(577,843,cs,{
name = hr03;
}),
(471,843,o),
(426,879,o),
(276,879,cs,{
name = hr04;
}),
(128,879,o),
(54,767,o),
(50,717,c),
(78,717,l),
(87,739,o),
(111,754,o),
(140,754,cs,{
name = hr05;
}),
(270,754,o),
(320,705,o),
(477,705,cs,{
name = hr06;
}),
(616,705,o),
(683,825,o),
(688,878,c),
(655,878,l)
);
}
);
width = 738;
}
);
},
{
glyphname = macron.case;
layers = (
{
layerId = master01;
shapes = (
{
closed = 1;
nodes = (
(455,722,l),
(455,856,l),
(50,856,l),
(50,722,l,{
name = hr00;
})
);
},
{
closed = 1;
nodes = (
(111,742,l),
(111,836,l),
(165,836,l),
(165,742,l)
);
}
);
width = 505;
}
);
},
{
glyphname = caron.salt;
layers = (
{
layerId = master01;
shapes = (
{
closed = 1;
nodes = (
(75,801,o),
(86,773,o),
(102,754,c),
(100,751,l),
(65,767,o),
(40,799,o),
(40,832,cs),
(40,865,o),
(65,897,o),
(100,913,c),
(102,910,l),
(86,891,o),
(75,863,o),
(75,832,c,{
name = hr00;
})
);
},
{
closed = 1;
nodes = (
(0,769,o),
(61,717,o),
(138,717,cs),
(153,717,o),
(168,719,o),
(181,723,c),
(152,664,o),
(58,645,o),
(10,645,c),
(10,608,l),
(206,621,o),
(274,726,o),
(274,824,cs),
(274,895,o),
(213,945,o),
(138,945,cs),
(61,945,o),
(0,895,o),
(0,832,cs)
);
}
);
width = 274;
}
);
},
{
glyphname = ringacute;
layers = (
{
layerId = master01;
shapes = (
{
closed = 1;
nodes = (
(138,745,o),
(160,785,o),
(186,785,cs),
(212,785,o),
(234,745,o),
(234,696,cs),
(234,647,o),
(212,607,o),
(186,607,cs),
(160,607,o),
(138,647,o),
(138,696,cs,{
name = hr00;
})
);
},
{
closed = 1;
nodes = (
(101,664,o),
(113,636,o),
(132,616,c),
(129,613,l),
(89,629,o),
(61,662,o),
(61,696,cs),
(61,731,o),
(89,765,o),
(129,782,c),
(132,779,l),
(113,758,o),
(101,728,o),
(101,696,cs)
);
},
{
closed = 1;
nodes = (
(207,818,o),
(260,846,o),
(278,883,c),
(342,883,l),
(325,858,o),
(282,809,o),
(180,804,c),
(177,808,l)
);
},
{
closed = 1;
nodes = (
(248,911,l),
(204,796,o),
(29,823,o),
(29,696,cs),
(29,629,o),
(100,576,o),
(186,576,cs),
(274,576,o),
(345,629,o),
(345,696,cs),
(345,736,o),
(319,771,o),
(280,794,c),
(397,808,o),
(439,883,o),
(445,911,c)
);
}
);
width = 374;
}
);
},
{
glyphname = ringacute.case;
layers = (
{
layerId = master01;
shapes = (
{
closed = 1;
nodes = (
(138,837,o),
(160,877,o),
(186,877,cs),
(212,877,o),
(234,837,o),
(234,788,cs),
(234,739,o),
(212,699,o),
(186,699,cs),
(160,699,o),
(138,739,o),
(138,788,cs,{
name = hr00;
})
);
},
{
closed = 1;
nodes = (
(101,756,o),
(113,728,o),
(132,708,c),
(129,705,l),
(89,721,o),
(61,754,o),
(61,788,cs),
(61,823,o),
(89,857,o),
(129,874,c),
(132,871,l),
(113,850,o),
(101,820,o),
(101,788,cs)
);
},
{
closed = 1;
nodes = (
(207,910,o),
(260,938,o),
(278,975,c),
(342,975,l),
(325,950,o),
(282,901,o),
(180,896,c),
(177,900,l)
);
},
{
closed = 1;
nodes = (
(248,1003,l),
(204,888,o),
(29,915,o),
(29,788,cs),
(29,721,o),
(100,668,o),
(186,668,cs),
(274,668,o),
(345,721,o),
(345,788,cs),
(345,828,o),
(319,863,o),
(280,886,c),
(397,900,o),
(439,975,o),
(445,1003,c)
);
}
